<svg width="24" height="24" viewBox="0 0 24 24" fill="none" xmlns="http://www.w3.org/2000/svg">
<path d="M1 4.6108V15.3731C1.06707 16.391 1.5353 17.3412 2.30254 18.0164C3.06979 18.6916 4.07381 19.037 5.09557 18.9772H5.70948C5.99816 18.9738 6.28287 19.0445 6.53621 19.1824C6.78954 19.3204 7.00298 19.5211 7.15597 19.7651L8.51835 22.1791C8.66728 22.4292 8.87895 22.6364 9.13256 22.7804C9.38617 22.9243 9.67299 23 9.96483 23C10.2567 23 10.5435 22.9243 10.7971 22.7804C11.0507 22.6364 11.2624 22.4292 11.4113 22.1791L12.7737 19.7651C12.9267 19.5211 13.1401 19.3204 13.3935 19.1824C13.6468 19.0445 13.9315 18.9738 14.2202 18.9772H18.9128C19.9332 19.0347 20.9351 18.6882 21.7005 18.0133C22.4659 17.3383 22.9329 16.3894 23 15.3731V4.6108C22.9351 3.5936 22.4686 2.64342 21.7027 1.96801C20.9368 1.29261 19.9337 0.946951 18.9128 1.00662H5.07875C4.0598 0.951467 3.06011 1.29893 2.29655 1.97365C1.53299 2.64838 1.06712 3.59594 1 4.6108Z" stroke="#5A5A5A" stroke-width="2" stroke-miterlimit="10"/>
</svg>
