<svg width="24" height="21" viewBox="0 0 24 21" fill="none" xmlns="http://www.w3.org/2000/svg">
<path d="M21.0672 1.03391C19.8682 0.266083 18.4529 -0.0899897 17.0346 0.0193548C15.6163 0.128699 14.2719 0.697531 13.2038 1.64014C12.8209 1.99023 12.3528 2.4257 11.8762 2.33177C11.5779 2.23245 11.3128 2.05216 11.1103 1.81091C9.96221 0.768112 8.49583 0.146389 6.95033 0.0471456C5.40483 -0.0520976 3.87141 0.376996 2.60017 1.26444C-1.07622 3.95411 -0.650709 9.59817 2.60017 12.4672L9.68913 19.5457C10.2128 20.0121 10.8907 20.2661 11.5909 20.2582C12.291 20.2503 12.9631 19.9811 13.4761 19.503C15.9015 17.4964 18.378 15.5069 20.5992 13.2869C22.0324 11.9957 23.1183 10.3629 23.7564 8.53937C24.1302 7.16265 24.0727 5.70387 23.5915 4.36111C23.1104 3.01835 22.2291 1.8567 21.0672 1.03391Z" fill="#D25853"/>
</svg>
