<svg width="20" height="24" viewBox="0 0 20 24" fill="none" xmlns="http://www.w3.org/2000/svg">
<path d="M17.9996 2.00041H1.99644V21.4103L9.998 13.7368L11.3883 15.065L17.9996 21.4103V2.00041ZM18.1877 0C18.4277 0 18.6571 0.0466761 18.8758 0.140028C19.2198 0.276045 19.4932 0.489424 19.696 0.780164C19.8987 1.07091 20 1.39363 20 1.74833V21.8924C20 22.2471 19.8987 22.5699 19.696 22.8606C19.4933 23.1513 19.2199 23.3647 18.8758 23.5007C18.6784 23.5834 18.449 23.6247 18.1877 23.6247C17.6875 23.6247 17.2555 23.458 16.8914 23.1246L10 16.4973L3.10862 23.1246C2.73388 23.4687 2.30179 23.6407 1.81235 23.6407C1.57232 23.6407 1.34295 23.5941 1.12424 23.5007C0.780155 23.3647 0.506754 23.1513 0.304041 22.8606C0.101329 22.5698 -1.82304e-05 22.2471 2.45969e-09 21.8924V1.74833C2.45969e-09 1.39361 0.101356 1.07089 0.304069 0.780164C0.506781 0.489442 0.780164 0.276063 1.12422 0.140028C1.34294 0.0466761 1.57232 0 1.81235 0H18.1896H18.1877Z" fill="#5A5A5A"/>
</svg>
