<svg width="32" height="32" viewBox="0 0 32 32" fill="none" xmlns="http://www.w3.org/2000/svg">
<path d="M2.625 0.3125C2.01169 0.3125 1.42349 0.556138 0.989815 0.989815C0.556138 1.42349 0.3125 2.01169 0.3125 2.625V13.2301C0.312631 13.8434 0.556355 14.4315 0.990062 14.8651L17.1776 31.0526C17.6112 31.4861 18.1993 31.7296 18.8125 31.7296C19.4257 31.7296 20.0138 31.4861 20.4474 31.0526L31.0526 20.4474C31.4861 20.0138 31.7296 19.4257 31.7296 18.8125C31.7296 18.1993 31.4861 17.6112 31.0526 17.1776L14.8651 0.990062C14.4315 0.556355 13.8434 0.312631 13.2301 0.3125H2.625ZM11.875 8.40625C11.875 9.32622 11.5095 10.2085 10.859 10.859C10.2085 11.5095 9.32622 11.875 8.40625 11.875C7.48628 11.875 6.60399 11.5095 5.95347 10.859C5.30296 10.2085 4.9375 9.32622 4.9375 8.40625C4.9375 7.48628 5.30296 6.60399 5.95347 5.95347C6.60399 5.30296 7.48628 4.9375 8.40625 4.9375C9.32622 4.9375 10.2085 5.30296 10.859 5.95347C11.5095 6.60399 11.875 7.48628 11.875 8.40625Z" fill="white"/>
</svg>
