<svg width="26" height="21" viewBox="0 0 26 21" fill="none" xmlns="http://www.w3.org/2000/svg">
<path d="M20.2843 4.07625L16.581 1.20618C16.4364 1.09391 16.2633 1.02435 16.0812 1.00532C15.8991 0.986288 15.7153 1.01856 15.5506 1.0985C15.386 1.17844 15.2469 1.30286 15.1492 1.45768C15.0515 1.6125 14.9991 1.79155 14.9978 1.97462V4.07625C14.9925 4.28622 14.9205 4.48905 14.7924 4.65546C14.6643 4.82188 14.4866 4.94326 14.2849 5.00208C11.1297 5.92322 8.25948 7.62927 5.94256 9.96076C3.62563 12.2923 1.93762 15.1731 1.03629 18.334C0.974574 18.5546 0.991971 18.7898 1.08545 18.999C1.17894 19.2081 1.34262 19.3779 1.54816 19.479C1.75369 19.5801 1.98812 19.6062 2.21083 19.5526C2.43354 19.4991 2.63051 19.3693 2.7676 19.1858C5.56492 15.6763 9.49023 13.2426 13.8776 12.2976C14.0198 12.27 14.1664 12.2745 14.3066 12.3109C14.4469 12.3472 14.5772 12.4144 14.6881 12.5076C14.7991 12.6007 14.8878 12.7175 14.9478 12.8494C15.0078 12.9813 15.0375 13.1249 15.0349 13.2697V14.3993C15.0344 14.5831 15.0856 14.7634 15.1826 14.9196C15.2796 15.0758 15.4185 15.2015 15.5835 15.2826C15.7485 15.3637 15.933 15.3967 16.1159 15.3781C16.2988 15.3594 16.4728 15.2897 16.618 15.1769L20.3213 12.2976L24.6172 8.97389C24.7363 8.88222 24.8327 8.76444 24.8991 8.6296C24.9655 8.49476 25 8.34648 25 8.1962C25 8.04591 24.9655 7.89763 24.8991 7.76279C24.8327 7.62795 24.7363 7.51017 24.6172 7.4185L20.2843 4.07625Z" stroke="#5A5A5A" stroke-width="2" stroke-miterlimit="10"/>
</svg>
