<svg width="29" height="28" viewBox="0 0 29 28" fill="none" xmlns="http://www.w3.org/2000/svg">
<path d="M14.29 28C22.022 28 28.29 21.732 28.29 14C28.29 6.26801 22.022 0 14.29 0C6.55805 0 0.290039 6.26801 0.290039 14C0.290039 21.732 6.55805 28 14.29 28Z" fill="#E24E4D"/>
<path d="M9.82678 11.743C9.94542 11.4015 10.1353 11.0891 10.3837 10.8264C10.6322 10.5638 10.9335 10.3569 11.268 10.2195L20.7715 6.99122C21.3891 6.7771 21.7103 7.10651 21.488 7.71593L18.3256 16.3301C18.1816 16.6685 17.9721 16.9751 17.7093 17.2323C17.4464 17.4895 17.1353 17.6923 16.7938 17.8289L8.30324 20.7359C7.68559 20.95 7.32324 20.6042 7.47971 19.9783L9.82678 11.743Z" fill="white"/>
<path d="M14.5371 14.9141C15.1466 14.9141 15.6407 14.42 15.6407 13.8106C15.6407 13.2011 15.1466 12.707 14.5371 12.707C13.9277 12.707 13.4336 13.2011 13.4336 13.8106C13.4336 14.42 13.9277 14.9141 14.5371 14.9141Z" fill="#E24E4D"/>
<path d="M14.29 28C22.022 28 28.29 21.732 28.29 14C28.29 6.26801 22.022 0 14.29 0C6.55805 0 0.290039 6.26801 0.290039 14C0.290039 21.732 6.55805 28 14.29 28Z" fill="#B3B1B2"/>
<path d="M9.82678 11.743C9.94542 11.4015 10.1353 11.0891 10.3837 10.8264C10.6322 10.5638 10.9335 10.3569 11.268 10.2195L20.7715 6.99122C21.3891 6.7771 21.7103 7.10651 21.488 7.71593L18.3256 16.3301C18.1816 16.6685 17.9721 16.9751 17.7093 17.2323C17.4464 17.4895 17.1353 17.6923 16.7938 17.8289L8.30324 20.7359C7.68559 20.95 7.32324 20.6042 7.47971 19.9783L9.82678 11.743Z" fill="white"/>
<path d="M14.5371 14.9141C15.1466 14.9141 15.6407 14.42 15.6407 13.8106C15.6407 13.2011 15.1466 12.707 14.5371 12.707C13.9277 12.707 13.4336 13.2011 13.4336 13.8106C13.4336 14.42 13.9277 14.9141 14.5371 14.9141Z" fill="#B3B1B2"/>
</svg>
