<svg width="29" height="28" viewBox="0 0 29 28" fill="none" xmlns="http://www.w3.org/2000/svg">
<path d="M23.9172 0.0292969H4.4301C3.2686 0.0642873 2.16849 0.558951 1.37149 1.40459C0.574492 2.25023 0.1458 3.37767 0.179591 4.53921V17.9853C0.1458 19.1468 0.574492 20.2742 1.37149 21.1199C2.16849 21.9655 3.2686 22.4601 4.4301 22.4951H5.07436C5.39249 22.4982 5.70316 22.592 5.96991 22.7654C6.23666 22.9388 6.44845 23.1846 6.58047 23.4741L8.00287 26.4946C8.1399 26.7776 8.35385 27.0162 8.62022 27.1832C8.88659 27.3501 9.19461 27.4387 9.50898 27.4387C9.82334 27.4387 10.1313 27.3501 10.3977 27.1832C10.6641 27.0162 10.878 26.7776 11.0151 26.4946L12.4375 23.4741C12.5695 23.1846 12.7813 22.9388 13.048 22.7654C13.3148 22.592 13.6254 22.4982 13.9436 22.4951H23.9172C25.0795 22.4601 26.1804 21.9658 26.9787 21.1204C27.7771 20.275 28.2077 19.1476 28.1761 17.9853V4.53084C28.2054 3.36993 27.7738 2.24468 26.9757 1.40112C26.1776 0.557553 25.078 0.0643187 23.9172 0.0292969ZM6.68087 13.5757C6.36479 13.5757 6.05582 13.482 5.79301 13.3064C5.5302 13.1308 5.32534 12.8812 5.20438 12.5892C5.08343 12.2972 5.05179 11.9759 5.11346 11.6659C5.17512 11.3559 5.32731 11.0711 5.55081 10.8476C5.77431 10.6241 6.05909 10.4718 6.36909 10.4102C6.6791 10.3485 7.00043 10.3802 7.29245 10.5011C7.58447 10.6221 7.83406 10.8269 8.00966 11.0897C8.18527 11.3526 8.279 11.6616 8.279 11.9776C8.2768 12.4008 8.10771 12.806 7.80848 13.1052C7.50924 13.4045 7.10404 13.5735 6.68087 13.5757ZM13.8683 13.5757C13.5522 13.5757 13.2432 13.482 12.9804 13.3064C12.7176 13.1308 12.5127 12.8812 12.3918 12.5892C12.2708 12.2972 12.2392 11.9759 12.3008 11.6659C12.3625 11.3559 12.5147 11.0711 12.7382 10.8476C12.9617 10.6241 13.2465 10.4718 13.5565 10.4102C13.8665 10.3485 14.1878 10.3802 14.4798 10.5011C14.7719 10.6221 15.0214 10.8269 15.1971 11.0897C15.3727 11.3526 15.4664 11.6616 15.4664 11.9776C15.4653 12.19 15.4221 12.4001 15.3393 12.5957C15.2565 12.7913 15.1358 12.9685 14.984 13.1171C14.8323 13.2658 14.6526 13.3828 14.4554 13.4615C14.2581 13.5402 14.0472 13.5791 13.8348 13.5757H13.8683ZM21.0557 13.5757C20.7396 13.5757 20.4306 13.482 20.1678 13.3064C19.905 13.1308 19.7002 12.8812 19.5792 12.5892C19.4582 12.2972 19.4266 11.9759 19.4882 11.6659C19.5499 11.3559 19.7021 11.0711 19.9256 10.8476C20.1491 10.6241 20.4339 10.4718 20.7439 10.4102C21.0539 10.3485 21.3752 10.3802 21.6672 10.5011C21.9593 10.6221 22.2088 10.8269 22.3844 11.0897C22.5601 11.3526 22.6538 11.6616 22.6538 11.9776C22.6527 12.19 22.6095 12.4001 22.5267 12.5957C22.4439 12.7913 22.3232 12.9685 22.1714 13.1171C22.0197 13.2658 21.84 13.3828 21.6427 13.4615C21.4455 13.5402 21.2346 13.5791 21.0222 13.5757H21.0557Z" fill="#B3B1B2"/>
</svg>
