<svg width="28" height="27" viewBox="0 0 28 27" fill="none" xmlns="http://www.w3.org/2000/svg">
<path d="M27.4597 10.5169L27.3531 10.4458H27.4171L20.6411 4.97802L15.0311 0.441701C14.7032 0.176161 14.2941 0.03125 13.8721 0.03125C13.4502 0.03125 13.041 0.176161 12.7132 0.441701L7.10319 4.97802L0.497818 10.4458C-0.511832 11.1568 0.135213 12.7921 1.35817 12.7921C1.65481 12.7914 1.94201 12.8961 2.16861 13.0876C2.39521 13.279 2.54646 13.5447 2.59534 13.8373L3.85382 25.9247C3.90098 26.2173 4.05054 26.4838 4.27581 26.6765C4.50108 26.8692 4.78746 26.9757 5.08391 26.977H9.8833C10.1166 26.9751 10.3397 26.8817 10.5047 26.7167C10.6696 26.5518 10.7631 26.3286 10.765 26.0953V20.72C10.765 18.6509 11.732 16.9729 13.801 16.9729C15.8701 16.9729 16.8584 18.6509 16.8584 20.72V26.0598C16.8584 26.303 16.955 26.5363 17.127 26.7083C17.2991 26.8803 17.5324 26.977 17.7756 26.977H22.3617C22.659 26.976 22.9463 26.8697 23.1728 26.6771C23.3992 26.4845 23.5502 26.2179 23.5989 25.9247L24.8574 13.8373C24.9034 13.5447 25.0528 13.2783 25.2785 13.0865C25.5042 12.8947 25.7913 12.7902 26.0875 12.7921H26.7487C27.0139 12.7903 27.2717 12.7043 27.4849 12.5465C27.6981 12.3887 27.8556 12.1672 27.9347 11.914C28.0138 11.6609 28.0104 11.3891 27.9251 11.138C27.8397 10.8868 27.6767 10.6693 27.4597 10.5169V10.5169Z" fill="#B3B1B2"/>
</svg>
