<svg width="30" height="28" viewBox="0 0 30 28" fill="none" xmlns="http://www.w3.org/2000/svg">
<path d="M28.5473 10.9128L28.4335 10.8397H28.4985L21.4622 5.15215L15.6283 0.439582C15.2857 0.155495 14.8546 0 14.4096 0C13.9645 0 13.5334 0.155495 13.1908 0.439582L7.35695 5.15215L0.491218 10.8397C0.274395 11.0224 0.119048 11.2674 0.0462735 11.5415C-0.026501 11.8155 -0.0131804 12.1053 0.0844282 12.3715C0.182037 12.6377 0.359207 12.8674 0.591877 13.0295C0.824547 13.1915 1.10145 13.278 1.38498 13.2773C1.69288 13.2787 1.99042 13.3886 2.22525 13.5877C2.46007 13.7869 2.61712 14.0625 2.66875 14.366L4.74878 26.9112C4.79712 27.2148 4.95211 27.4912 5.18592 27.6907C5.41973 27.8903 5.71703 28 6.02443 28H9.53448C9.77659 28 10.0089 27.9044 10.1809 27.7339C10.3528 27.5635 10.4505 27.3321 10.4526 27.09V21.4999C10.4526 20.4634 10.8644 19.4693 11.5973 18.7364C12.3302 18.0035 13.3243 17.5917 14.3608 17.5917C15.3973 17.5917 16.3914 18.0035 17.1243 18.7364C17.8572 19.4693 18.269 20.4634 18.269 21.4999V27.0494C18.269 27.3015 18.3691 27.5433 18.5474 27.7215C18.7257 27.8998 18.9675 28 19.2196 28H22.4697C22.7771 28 23.0744 27.8903 23.3082 27.6907C23.542 27.4912 23.697 27.2148 23.7453 26.9112L25.8741 14.366C25.9257 14.0625 26.0828 13.7869 26.3176 13.5877C26.5524 13.3886 26.85 13.2787 27.1579 13.2773H27.8485C28.1209 13.2675 28.3833 13.1724 28.5987 13.0054C28.8141 12.8384 28.9715 12.6079 29.0488 12.3465C29.126 12.0852 29.1192 11.8061 29.0292 11.5488C28.9392 11.2916 28.7706 11.0691 28.5473 10.9128V10.9128Z" fill="#B3B1B2"/>
</svg>
