<svg width="31" height="29" viewBox="0 0 31 29" fill="none" xmlns="http://www.w3.org/2000/svg">
<path d="M25.2174 8.29102H5.4865C3.76591 8.29102 2.37109 9.68583 2.37109 11.4064V25.2181C2.37109 26.9387 3.76591 28.3335 5.4865 28.3335H25.2174C26.938 28.3335 28.3328 26.9387 28.3328 25.2181V11.4064C28.3328 9.68583 26.938 8.29102 25.2174 8.29102Z" fill="#B3B1B2"/>
<path d="M23.1494 4.33594H7.36467C5.64408 4.33594 4.24927 5.73075 4.24927 7.45134V16.5206C4.24927 18.2412 5.64408 19.6361 7.36467 19.6361H23.1494C24.87 19.6361 26.2648 18.2412 26.2648 16.5206V7.45134C26.2648 5.73075 24.87 4.33594 23.1494 4.33594Z" fill="white"/>
<path d="M6.17024 10.8956C6.03365 11.7197 5.58778 12.4606 4.92361 12.9671C4.25945 13.4737 3.42702 13.7078 2.59617 13.6216C1.93321 13.4947 1.32652 13.1636 0.861007 12.6748C0.395491 12.1861 0.0944448 11.564 0 10.8956L3.82503 1.84362C4.11885 1.4688 4.4798 1.15186 4.88947 0.908984C5.33356 0.648387 5.82465 0.477816 6.33467 0.407042C17.0569 0.277233 24.88 0.329189 25.9964 0.493613C26.5256 0.573385 27.0292 0.774811 27.4675 1.08207C27.7731 1.31802 28.029 1.61214 28.2204 1.94746C29.1204 4.92441 30.0175 7.90136 30.9118 10.8783C30.7752 11.7024 30.3293 12.4433 29.6651 12.9498C29.001 13.4564 28.1686 13.6904 27.3377 13.6043C26.6748 13.4773 26.0681 13.1464 25.6025 12.6576C25.137 12.1688 24.836 11.5467 24.7415 10.8783" fill="#B3B1B2"/>
<path d="M6.17041 10.8965C6.26485 11.5648 6.5659 12.1869 7.03142 12.6757C7.49693 13.1645 8.10362 13.4955 8.76658 13.6224C9.59743 13.7086 10.4299 13.4746 11.094 12.968C11.7582 12.4614 12.2041 11.7205 12.3407 10.8965" fill="#B3B1B2"/>
<path d="M12.3579 10.8965C12.4524 11.5648 12.7534 12.1869 13.2189 12.6757C13.6844 13.1645 14.2911 13.4955 14.9541 13.6224C15.7849 13.7086 16.6174 13.4746 17.2815 12.968C17.9457 12.4614 18.3916 11.7205 18.5282 10.8965" fill="#B3B1B2"/>
<path d="M18.5369 10.8965C18.6313 11.5648 18.9324 12.1869 19.3979 12.6757C19.8634 13.1645 20.4701 13.4955 21.133 13.6224C21.9639 13.7086 22.7963 13.4746 23.4605 12.968C24.1246 12.4614 24.5705 11.7205 24.7071 10.8965" fill="#B3B1B2"/>
</svg>
