<svg width="28" height="26" viewBox="0 0 28 26" fill="none" xmlns="http://www.w3.org/2000/svg">
<g clip-path="url(#clip0_1333_986)">
<path d="M24.7392 7.20312C24.2218 7.20312 23.7985 8.47298 23.7985 10.0251V14.6578C23.7965 15.4056 23.4985 16.1221 22.9697 16.6509C22.4409 17.1797 21.7244 17.4776 20.9766 17.4797H6.67871C5.93092 17.4776 5.21435 17.1797 4.68558 16.6509C4.15681 16.1221 3.85884 15.4056 3.85677 14.6578V10.0251C3.85677 8.45731 3.47267 7.20312 3.01018 7.20312C2.5477 7.20312 2.15576 8.47298 2.15576 10.0251V22.567C2.15783 23.3148 2.4558 24.0315 2.98457 24.5602C3.51334 25.089 4.22991 25.387 4.9777 25.389H22.85C23.5978 25.387 24.3144 25.089 24.8432 24.5602C25.3719 24.0315 25.6699 23.3148 25.672 22.567V10.0251C25.672 8.47298 25.2487 7.20312 24.7392 7.20312Z" fill="#B3B1B2"/>
<path d="M5.60465 9.56273C5.48093 10.3092 5.07706 10.9803 4.47545 11.4391C3.87385 11.898 3.11983 12.11 2.36725 12.032C1.76624 11.9181 1.21608 11.6186 0.794225 11.1756C0.372365 10.7327 0.100051 10.1686 0.015625 9.56273L3.4882 1.37123C3.75166 1.02708 4.07903 0.737002 4.45236 0.516832C4.85356 0.2846 5.29506 0.130327 5.75359 0.0621713C15.4736 -0.0475712 22.5599 -0.000550188 23.5711 0.148386C24.0515 0.216916 24.5085 0.399704 24.9036 0.681415C25.1818 0.893734 25.4138 1.16044 25.5856 1.46529C26.3904 4.15137 27.203 6.84528 28.0235 9.54703C27.8997 10.2935 27.4959 10.9646 26.8943 11.4234C26.2927 11.8823 25.5386 12.0943 24.7861 12.0163C24.1851 11.9024 23.6349 11.6029 23.213 11.1599C22.7912 10.717 22.5189 10.1529 22.4344 9.54703" fill="#B3B1B2"/>
<path d="M5.60474 9.46094C5.65762 10.1669 5.9754 10.8269 6.49438 11.3084C7.01336 11.79 7.69518 12.0576 8.40316 12.0576C9.11115 12.0576 9.79297 11.79 10.312 11.3084C10.8309 10.8269 11.1487 10.1669 11.2016 9.46094" fill="#B3B1B2"/>
<path d="M11.2017 9.46094C11.2396 10.1785 11.5514 10.8542 12.0728 11.3488C12.5942 11.8433 13.2854 12.119 14.004 12.119C14.7226 12.119 15.4138 11.8433 15.9352 11.3488C16.4566 10.8542 16.7684 10.1785 16.8064 9.46094" fill="#B3B1B2"/>
<path d="M16.8062 9.5625C16.8906 10.1683 17.1629 10.7325 17.5848 11.1754C18.0066 11.6184 18.5568 11.9179 19.1578 12.0317C19.9104 12.1098 20.6644 11.8977 21.266 11.4389C21.8676 10.98 22.2715 10.3089 22.3952 9.5625" fill="#B3B1B2"/>
</g>
<defs>
<clipPath id="clip0_1333_986">
<rect width="28" height="25.3583" fill="white"/>
</clipPath>
</defs>
</svg>
