<svg width="28" height="28" viewBox="0 0 28 28" fill="none" xmlns="http://www.w3.org/2000/svg">
<path d="M14 0C11.2311 0 8.52431 0.821114 6.22202 2.35945C3.91973 3.89779 2.12532 6.08427 1.06569 8.64243C0.00606244 11.2006 -0.271179 14.0155 0.269014 16.7313C0.809207 19.447 2.14257 21.9416 4.10051 23.8995C6.05844 25.8574 8.55301 27.1908 11.2687 27.731C13.9845 28.2712 16.7994 27.9939 19.3576 26.9343C21.9157 25.8747 24.1022 24.0803 25.6406 21.778C27.1789 19.4757 28 16.7689 28 14C28 10.287 26.525 6.72602 23.8995 4.10051C21.274 1.475 17.713 0 14 0ZM19.2541 15.1365H15.3588V19.8224C15.3588 20.15 15.2287 20.4642 14.997 20.6959C14.7654 20.9275 14.4512 21.0577 14.1235 21.0577C13.7959 21.0577 13.4817 20.9275 13.25 20.6959C13.0184 20.4642 12.8882 20.15 12.8882 19.8224V15.1365H8.30941C7.98179 15.1365 7.66759 15.0063 7.43593 14.7747C7.20427 14.543 7.07411 14.2288 7.07411 13.9012C7.07411 13.5736 7.20427 13.2593 7.43593 13.0277C7.66759 12.796 7.98179 12.6659 8.30941 12.6659H12.8882V8.19413C12.8882 7.86651 13.0184 7.5523 13.25 7.32064C13.4817 7.08897 13.7959 6.95883 14.1235 6.95883C14.4512 6.95883 14.7654 7.08897 14.997 7.32064C15.2287 7.5523 15.3588 7.86651 15.3588 8.19413V12.6659H19.2541C19.5817 12.6659 19.8959 12.796 20.1276 13.0277C20.3593 13.2593 20.4894 13.5736 20.4894 13.9012C20.4894 14.2288 20.3593 14.543 20.1276 14.7747C19.8959 15.0063 19.5817 15.1365 19.2541 15.1365Z" fill="#B3B1B2"/>
</svg>
