<svg width="29" height="29" viewBox="0 0 29 29" fill="none" xmlns="http://www.w3.org/2000/svg">
<path d="M0.249699 4.62663V18.3624C0.217486 19.5497 0.657334 20.7015 1.47287 21.5651C2.2884 22.4287 3.41308 22.9337 4.60036 22.9695H5.2585C5.58442 22.9734 5.90243 23.0704 6.17502 23.2491C6.44761 23.4278 6.66345 23.6808 6.79706 23.9781L8.25012 27.0552C8.3901 27.3442 8.60866 27.5879 8.88077 27.7585C9.15288 27.929 9.46754 28.0195 9.78868 28.0195C10.1098 28.0195 10.4245 27.929 10.6966 27.7585C10.9687 27.5879 11.1872 27.3442 11.3272 27.0552L12.7803 23.9781C12.9139 23.6808 13.1297 23.4278 13.4023 23.2491C13.6749 23.0704 13.9929 22.9734 14.3188 22.9695H24.5074C25.6939 22.9337 26.8178 22.4284 27.6319 21.5645C28.4461 20.7007 28.884 19.5489 28.8495 18.3624V4.62663C28.884 3.44006 28.4461 2.28832 27.6319 1.42446C26.8178 0.560599 25.6939 0.0552756 24.5074 0.0195312H4.60036C3.41308 0.0552944 2.2884 0.560336 1.47287 1.42394C0.657334 2.28754 0.217486 3.43925 0.249699 4.62663Z" fill="#B3B1B2"/>
<path d="M14.2078 13.8647C15.1094 13.8647 15.8403 13.1338 15.8403 12.2322C15.8403 11.3305 15.1094 10.5996 14.2078 10.5996C13.3061 10.5996 12.5752 11.3305 12.5752 12.2322C12.5752 13.1338 13.3061 13.8647 14.2078 13.8647Z" fill="white"/>
<path d="M21.55 13.8647C22.4517 13.8647 23.1826 13.1338 23.1826 12.2322C23.1826 11.3305 22.4517 10.5996 21.55 10.5996C20.6484 10.5996 19.9175 11.3305 19.9175 12.2322C19.9175 13.1338 20.6484 13.8647 21.55 13.8647Z" fill="white"/>
<path d="M6.86548 13.8647C7.76712 13.8647 8.49805 13.1338 8.49805 12.2322C8.49805 11.3305 7.76712 10.5996 6.86548 10.5996C5.96384 10.5996 5.23291 11.3305 5.23291 12.2322C5.23291 13.1338 5.96384 13.8647 6.86548 13.8647Z" fill="white"/>
</svg>
