<svg width="28" height="28" viewBox="0 0 28 28" fill="none" xmlns="http://www.w3.org/2000/svg">
<path d="M15.8201 0.114506C12.9205 -0.265005 9.97487 0.272977 7.39664 1.65294C4.81842 3.03291 2.73703 5.18559 1.44463 7.80881C0.152231 10.432 -0.286289 13.3941 0.190612 16.2793C0.667512 19.1644 2.03589 21.8278 4.10368 23.8956C6.17148 25.9634 8.83489 27.3318 11.72 27.8087C14.6052 28.2856 17.5673 27.8471 20.1905 26.5547C22.8137 25.2623 24.9664 23.1809 26.3463 20.6027C27.7263 18.0244 28.2643 15.0788 27.8848 12.1792C27.4843 9.11983 26.0844 6.27842 23.9027 4.09664C21.7209 1.91487 18.8795 0.514937 15.8201 0.114506V0.114506ZM17.0801 17.631L8.08712 20.7027C7.97266 20.738 7.85076 20.7414 7.73452 20.7125C7.61828 20.6837 7.5121 20.6237 7.42741 20.539C7.34271 20.4543 7.2827 20.3481 7.25384 20.2319C7.22498 20.1156 7.22835 19.9937 7.2636 19.8792L9.66831 11.2651C9.72567 11.0615 9.83007 10.8741 9.97311 10.7182C10.1162 10.5622 10.2939 10.4421 10.4918 10.3675L20.6048 6.92511C20.6948 6.89413 20.7918 6.88937 20.8844 6.91139C20.9771 6.93341 21.0615 6.98133 21.128 7.04951C21.1944 7.1177 21.2401 7.20335 21.2598 7.29651C21.2794 7.38968 21.2722 7.48647 21.2389 7.57568L17.8295 16.8816C17.7696 17.0552 17.671 17.2128 17.5412 17.3427C17.4113 17.4725 17.2536 17.5711 17.0801 17.631V17.631Z" fill="#B3B1B2"/>
<path d="M14.2471 14.9063C14.8565 14.9063 15.3506 14.4122 15.3506 13.8027C15.3506 13.1933 14.8565 12.6992 14.2471 12.6992C13.6376 12.6992 13.1436 13.1933 13.1436 13.8027C13.1436 14.4122 13.6376 14.9063 14.2471 14.9063Z" fill="#B3B1B2"/>
</svg>
