<svg width="11" height="18" viewBox="0 0 11 18" fill="none" xmlns="http://www.w3.org/2000/svg">
    <path d="M0.240234 8.94922C0.240234 9.28125 0.367188 9.56445 0.630859 9.81836L8.24805 17.2695C8.45312 17.4844 8.72656 17.5918 9.03906 17.5918C9.67383 17.5918 10.1719 17.1035 10.1719 16.459C10.1719 16.1465 10.0449 15.8633 9.83008 15.6484L2.96484 8.94922L9.83008 2.25C10.0449 2.02539 10.1719 1.74219 10.1719 1.42969C10.1719 0.794922 9.67383 0.306641 9.03906 0.306641C8.72656 0.306641 8.45312 0.414062 8.24805 0.628906L0.630859 8.08008C0.367188 8.33398 0.25 8.61719 0.240234 8.94922Z" fill="#3C3C3C" />
</svg>