<svg width="16" height="15" viewBox="0 0 16 15" fill="none" xmlns="http://www.w3.org/2000/svg">
<path d="M3.95022 7.53615C4.05921 7.79904 4.23248 8.03221 4.45505 8.21552C4.75164 8.44959 5.10558 8.60512 5.48243 8.66699L12.6873 8.6455C13.0071 8.60584 13.3116 8.48908 13.573 8.30583C13.8643 8.10019 14.0825 7.81167 14.1974 7.48025L15.2646 2.56563C15.3094 2.47964 15.3327 2.38466 15.3327 2.28831C15.3327 2.19196 15.3094 2.09696 15.2646 2.01097C15.1692 1.84434 15.0101 1.72081 14.8218 1.66699H2.66602C3.15313 4.66823 3.65352 6.87399 3.95022 7.53615Z" stroke="#5A5A5A" stroke-width="1.3" stroke-miterlimit="10"/>
<path d="M3.11914 3.66699C3.61457 6.81911 4.11884 9.12807 4.41521 9.82421C4.5324 10.0947 4.71087 10.3357 4.93717 10.529C5.23302 10.7735 5.59041 10.9363 5.97227 11.0003C8.38747 11.0003 11.5841 11.0003 13.9993 11.0003" stroke="#5A5A5A" stroke-width="1.3" stroke-miterlimit="10"/>
<path d="M-0.666016 0.75H2.09306C2.25115 0.777132 2.39683 0.852898 2.50984 0.966731C2.63427 1.09232 2.7109 1.25742 2.72654 1.43352L3.14332 3.83829" stroke="#5A5A5A" stroke-width="1.3" stroke-miterlimit="10"/>
<path d="M5.66602 14.333C6.2183 14.333 6.66602 13.8853 6.66602 13.333C6.66602 12.7807 6.2183 12.333 5.66602 12.333C5.11373 12.333 4.66602 12.7807 4.66602 13.333C4.66602 13.8853 5.11373 14.333 5.66602 14.333Z" fill="#5A5A5A"/>
<path d="M12.5996 14.333C13.1519 14.333 13.5996 13.8853 13.5996 13.333C13.5996 12.7807 13.1519 12.333 12.5996 12.333C12.0473 12.333 11.5996 12.7807 11.5996 13.333C11.5996 13.8853 12.0473 14.333 12.5996 14.333Z" fill="#5A5A5A"/>
</svg>
