<svg width="16" height="16" viewBox="0 0 16 16" fill="none" xmlns="http://www.w3.org/2000/svg">
<path d="M7.125 8C7.125 8.23206 7.21719 8.45462 7.38128 8.61872C7.54538 8.78281 7.76794 8.875 8 8.875C8.23206 8.875 8.45462 8.78281 8.61872 8.61872C8.78281 8.45462 8.875 8.23206 8.875 8C8.875 7.76794 8.78281 7.54538 8.61872 7.38128C8.45462 7.21719 8.23206 7.125 8 7.125C7.76794 7.125 7.54538 7.21719 7.38128 7.38128C7.21719 7.54538 7.125 7.76794 7.125 8Z" fill="#5A5A5A"/>
<path d="M10.771 8C10.771 8.23206 10.8632 8.45462 11.0273 8.61872C11.1914 8.78281 11.4139 8.875 11.646 8.875C11.8781 8.875 12.1006 8.78281 12.2647 8.61872C12.4288 8.45462 12.521 8.23206 12.521 8C12.521 7.76794 12.4288 7.54538 12.2647 7.38128C12.1006 7.21719 11.8781 7.125 11.646 7.125C11.4139 7.125 11.1914 7.21719 11.0273 7.38128C10.8632 7.54538 10.771 7.76794 10.771 8Z" fill="#5A5A5A"/>
<path d="M3.479 8C3.479 8.23206 3.57119 8.45462 3.73529 8.61872C3.89938 8.78281 4.12194 8.875 4.354 8.875C4.58607 8.875 4.80863 8.78281 4.97272 8.61872C5.13682 8.45462 5.229 8.23206 5.229 8C5.229 7.76794 5.13682 7.54538 4.97272 7.38128C4.80863 7.21719 4.58607 7.125 4.354 7.125C4.12194 7.125 3.89938 7.21719 3.73529 7.38128C3.57119 7.54538 3.479 7.76794 3.479 8Z" fill="#5A5A5A"/>
<path d="M15.3785 4.9C14.9749 3.94107 14.3963 3.08036 13.6589 2.34107C12.9214 1.60357 12.0607 1.02321 11.1 0.621429C10.1178 0.208929 9.07499 0 8 0H7.96429C6.88216 0.00535714 5.83396 0.219643 4.84825 0.641071C3.89648 1.04821 3.04292 1.62679 2.31257 2.36429C1.58222 3.10179 1.00902 3.95893 0.612594 4.91429C0.201885 5.90357 -0.00525577 6.95536 0.000101307 8.0375C0.00545838 9.27679 0.301883 10.5071 0.857233 11.6071V14.3214C0.857233 14.775 1.22509 15.1429 1.67865 15.1429H4.39469C5.49468 15.6982 6.72502 15.9946 7.96429 16H8.00179C9.07142 16 10.1089 15.7929 11.0857 15.3875C12.041 14.9893 12.8999 14.4179 13.6356 13.6875C14.3731 12.9571 14.9535 12.1036 15.3588 11.1518C15.7803 10.1661 15.9945 9.11786 15.9999 8.03572C16.0053 6.94821 15.7945 5.89286 15.3785 4.9ZM12.6803 12.7214C11.4285 13.9607 9.76784 14.6429 8 14.6429H7.96964C6.89287 14.6375 5.82324 14.3696 4.87861 13.8661L4.72861 13.7857H2.21436V11.2714L2.134 11.1214C1.63044 10.1768 1.36258 9.10714 1.35723 8.03036C1.35008 6.25 2.03043 4.57857 3.27863 3.31964C4.52504 2.06071 6.19109 1.36429 7.97143 1.35714H8.00179C8.89463 1.35714 9.76069 1.53036 10.5768 1.87321C11.3732 2.20714 12.0874 2.6875 12.7017 3.30179C13.3142 3.91429 13.7964 4.63036 14.1303 5.42679C14.4767 6.25179 14.6499 7.12679 14.6463 8.03036C14.6356 9.80893 13.9374 11.475 12.6803 12.7214Z" fill="#5A5A5A"/>
</svg>
