<svg width="16" height="16" viewBox="0 0 16 16" fill="none" xmlns="http://www.w3.org/2000/svg">
<path d="M8 0C6.41775 0 4.87103 0.469208 3.55544 1.34826C2.23985 2.22731 1.21447 3.47672 0.608965 4.93853C0.00346429 6.40034 -0.15496 8.00887 0.153722 9.56072C0.462404 11.1126 1.22433 12.538 2.34315 13.6569C3.46197 14.7757 4.88743 15.5376 6.43928 15.8463C7.99113 16.155 9.59966 15.9965 11.0615 15.391C12.5233 14.7855 13.7727 13.7602 14.6518 12.4446C15.5308 11.129 16 9.58225 16 8C16 5.87827 15.1571 3.84344 13.6569 2.34315C12.1566 0.842856 10.1217 0 8 0ZM11.0024 8.64941H8.77648V11.3271C8.77648 11.5143 8.7021 11.6938 8.56972 11.8262C8.43735 11.9586 8.2578 12.0329 8.07059 12.0329C7.88338 12.0329 7.70383 11.9586 7.57145 11.8262C7.43908 11.6938 7.36471 11.5143 7.36471 11.3271V8.64941H4.74823C4.56102 8.64941 4.38148 8.57505 4.2491 8.44267C4.11672 8.31029 4.04235 8.13074 4.04235 7.94353C4.04235 7.75632 4.11672 7.57677 4.2491 7.44439C4.38148 7.31201 4.56102 7.23765 4.74823 7.23765H7.36471V4.68236C7.36471 4.49515 7.43908 4.3156 7.57145 4.18322C7.70383 4.05084 7.88338 3.97648 8.07059 3.97648C8.2578 3.97648 8.43735 4.05084 8.56972 4.18322C8.7021 4.3156 8.77648 4.49515 8.77648 4.68236V7.23765H11.0024C11.1896 7.23765 11.3691 7.31201 11.5015 7.44439C11.6339 7.57677 11.7082 7.75632 11.7082 7.94353C11.7082 8.13074 11.6339 8.31029 11.5015 8.44267C11.3691 8.57505 11.1896 8.64941 11.0024 8.64941Z" fill="#E24E4D"/>
</svg>
