<svg width="17" height="14" viewBox="0 0 17 14" fill="none" xmlns="http://www.w3.org/2000/svg">
<path d="M13.8699 1.61352C13.1373 1.15879 12.2722 0.947378 11.405 1.01113C10.5378 1.07488 9.71549 1.41033 9.06184 1.96697C8.83288 2.17905 8.54148 2.43657 8.25529 2.38102C8.07287 2.32229 7.91077 2.21568 7.78697 2.07301C7.08496 1.45635 6.18834 1.08869 5.24335 1.03C4.29836 0.971316 3.36076 1.22506 2.58346 1.74985C2.03364 2.16043 1.60146 2.70091 1.32817 3.31969C1.05488 3.93847 0.94961 4.6149 1.02241 5.28441C1.17838 6.47428 1.74514 7.57779 2.63029 8.41501C3.3796 9.19261 4.19135 9.92982 4.94586 10.6872C5.57606 11.3995 6.27283 12.0536 7.02726 12.6413C7.27789 12.8256 7.57062 12.9486 7.88064 12.9998C8.15842 13.0034 8.43412 12.9529 8.6915 12.8515C8.94888 12.75 9.18272 12.5996 9.37925 12.409C9.83716 12.0455 10.3055 11.7021 10.7634 11.3386C11.7416 10.561 12.6835 9.74298 13.5785 8.87449C14.5828 7.90501 15.5818 6.63258 15.6599 5.20361C15.7006 4.5069 15.5576 3.81163 15.2444 3.18346C14.9312 2.55529 14.4581 2.01496 13.8699 1.61352Z" stroke="#5A5A5A" stroke-width="1.3" stroke-miterlimit="10"/>
</svg>
