<svg width="16" height="16" viewBox="0 0 16 16" fill="none" xmlns="http://www.w3.org/2000/svg">
<path d="M13.0533 4.78516H2.84057C1.94999 4.78516 1.22803 5.50712 1.22803 6.3977V13.5466C1.22803 14.4372 1.94999 15.1592 2.84057 15.1592H13.0533C13.9439 15.1592 14.6659 14.4372 14.6659 13.5466V6.3977C14.6659 5.50712 13.9439 4.78516 13.0533 4.78516Z" fill="#E44C4D"/>
<path d="M11.982 2.73828H3.81176C2.92118 2.73828 2.19922 3.46024 2.19922 4.35082V9.04511C2.19922 9.93569 2.92118 10.6577 3.81176 10.6577H11.982C12.8726 10.6577 13.5945 9.93569 13.5945 9.04511V4.35082C13.5945 3.46024 12.8726 2.73828 11.982 2.73828Z" fill="white"/>
<path d="M3.19373 6.13323C3.12303 6.55977 2.89225 6.94326 2.54847 7.20546C2.2047 7.46766 1.77383 7.5888 1.34378 7.54419C1.00064 7.4785 0.686611 7.30716 0.445659 7.05416C0.204707 6.80116 0.0488848 6.47918 0 6.13323L1.97984 1.44789C2.13192 1.25389 2.31875 1.08984 2.5308 0.964125C2.76066 0.829239 3.01485 0.740951 3.27884 0.704319C8.82867 0.637129 12.8779 0.664022 13.4558 0.749128C13.7297 0.790418 13.9904 0.894677 14.2172 1.05372C14.3754 1.17584 14.5079 1.32808 14.6069 1.50164C15.0728 3.04252 15.5371 4.58339 16 6.12427C15.9293 6.5508 15.6985 6.93429 15.3547 7.19649C15.011 7.45869 14.5801 7.57983 14.1501 7.53523C13.8069 7.46953 13.4929 7.29822 13.2519 7.04522C13.011 6.79222 12.8552 6.47021 12.8063 6.12427" fill="#E44C4D"/>
<path d="M3.19385 6.12012C3.24273 6.46606 3.39855 6.78804 3.63951 7.04104C3.88046 7.29404 4.19448 7.46538 4.53763 7.53107C4.96768 7.57568 5.39855 7.45454 5.74232 7.19234C6.0861 6.93014 6.31688 6.54665 6.38758 6.12012" fill="#E44C4D"/>
<path d="M6.396 6.12012C6.44488 6.46606 6.6007 6.78804 6.84166 7.04104C7.08261 7.29404 7.39663 7.46538 7.73978 7.53107C8.16983 7.57568 8.6007 7.45454 8.94447 7.19234C9.28825 6.93014 9.51902 6.54665 9.58973 6.12012" fill="#E44C4D"/>
<path d="M9.59521 6.12012C9.6441 6.46606 9.79992 6.78804 10.0409 7.04104C10.2818 7.29404 10.5959 7.46538 10.939 7.53107C11.369 7.57568 11.7999 7.45454 12.1437 7.19234C12.4875 6.93014 12.7182 6.54665 12.7889 6.12012" fill="#E44C4D"/>
</svg>


