<svg width="28" height="27" viewBox="0 0 28 27" fill="none" xmlns="http://www.w3.org/2000/svg">
<path d="M27.4597 10.5208L27.3531 10.4497H27.4171L20.6411 4.98192L15.0311 0.445608C14.7032 0.180067 14.2941 0.0351562 13.8721 0.0351562C13.4502 0.0351562 13.041 0.180067 12.7132 0.445608L7.10319 4.98192L0.497818 10.4497C-0.511832 11.1607 0.135213 12.796 1.35817 12.796C1.65481 12.7954 1.94201 12.9 2.16861 13.0915C2.39521 13.2829 2.54646 13.5486 2.59534 13.8412L3.85382 25.9286C3.90098 26.2213 4.05054 26.4877 4.27581 26.6804C4.50108 26.8731 4.78746 26.9796 5.08391 26.9809H9.8833C10.1166 26.9791 10.3397 26.8856 10.5047 26.7206C10.6696 26.5557 10.7631 26.3325 10.765 26.0992V20.7239C10.765 18.6548 11.732 16.9768 13.801 16.9768C15.8701 16.9768 16.8584 18.6548 16.8584 20.7239V26.0637C16.8584 26.3069 16.955 26.5402 17.127 26.7122C17.2991 26.8843 17.5324 26.9809 17.7756 26.9809H22.3617C22.659 26.9799 22.9463 26.8737 23.1728 26.681C23.3992 26.4884 23.5502 26.2218 23.5989 25.9286L24.8574 13.8412C24.9034 13.5486 25.0528 13.2822 25.2785 13.0904C25.5042 12.8986 25.7913 12.7942 26.0875 12.796H26.7487C27.0139 12.7942 27.2717 12.7082 27.4849 12.5504C27.6981 12.3926 27.8556 12.1711 27.9347 11.9179C28.0138 11.6648 28.0104 11.393 27.9251 11.1419C27.8397 10.8907 27.6767 10.6733 27.4597 10.5208V10.5208Z" fill="#E24E4D"/>
</svg>
