<svg width="28" height="26" viewBox="0 0 28 26" fill="none" xmlns="http://www.w3.org/2000/svg">
<path d="M24.7392 7.20703C24.2218 7.20703 23.7985 8.47689 23.7985 10.029V14.6617C23.7965 15.4095 23.4985 16.126 22.9697 16.6548C22.4409 17.1836 21.7244 17.4815 20.9766 17.4836H6.67871C5.93092 17.4815 5.21435 17.1836 4.68558 16.6548C4.15681 16.126 3.85884 15.4095 3.85677 14.6617V10.029C3.85677 8.46121 3.47267 7.20703 3.01018 7.20703C2.5477 7.20703 2.15576 8.47689 2.15576 10.029V22.571C2.15783 23.3187 2.4558 24.0354 2.98457 24.5641C3.51334 25.0929 4.22991 25.3909 4.9777 25.3929H22.85C23.5978 25.3909 24.3144 25.0929 24.8432 24.5641C25.3719 24.0354 25.6699 23.3187 25.672 22.571V10.029C25.672 8.47689 25.2487 7.20703 24.7392 7.20703Z" fill="#E24E4D"/>
<path d="M5.60465 9.56663C5.48093 10.3131 5.07706 10.9842 4.47545 11.443C3.87385 11.9019 3.11983 12.1139 2.36725 12.0359C1.76624 11.922 1.21608 11.6225 0.794225 11.1795C0.372365 10.7366 0.100051 10.1725 0.015625 9.56663L3.4882 1.37513C3.75166 1.03099 4.07903 0.740908 4.45236 0.520738C4.85356 0.288506 5.29506 0.134233 5.75359 0.0660775C15.4736 -0.0436649 22.5599 0.00335606 23.5711 0.152292C24.0515 0.220822 24.5085 0.40361 24.9036 0.685321C25.1818 0.89764 25.4138 1.16434 25.5856 1.4692C26.3904 4.15527 27.203 6.84919 28.0235 9.55094C27.8997 10.2974 27.4959 10.9685 26.8943 11.4273C26.2927 11.8862 25.5386 12.0982 24.7861 12.0202C24.1851 11.9063 23.6349 11.6068 23.213 11.1639C22.7912 10.7209 22.5189 10.1568 22.4344 9.55094" fill="#E24E4D"/>
<path d="M5.60474 9.46484C5.65762 10.1709 5.9754 10.8308 6.49438 11.3123C7.01336 11.7939 7.69518 12.0615 8.40316 12.0615C9.11115 12.0615 9.79297 11.7939 10.312 11.3123C10.8309 10.8308 11.1487 10.1709 11.2016 9.46484" fill="#E24E4D"/>
<path d="M11.2017 9.46484C11.2396 10.1824 11.5514 10.8581 12.0728 11.3527C12.5942 11.8472 13.2854 12.1229 14.004 12.1229C14.7226 12.1229 15.4138 11.8472 15.9352 11.3527C16.4566 10.8581 16.7684 10.1824 16.8064 9.46484" fill="#E24E4D"/>
<path d="M16.8062 9.56641C16.8906 10.1722 17.1629 10.7364 17.5848 11.1793C18.0066 11.6223 18.5568 11.9218 19.1578 12.0356C19.9104 12.1137 20.6644 11.9016 21.266 11.4428C21.8676 10.9839 22.2715 10.3128 22.3952 9.56641" fill="#E24E4D"/>
</svg>
