<svg width="28" height="28" viewBox="0 0 28 28" fill="none" xmlns="http://www.w3.org/2000/svg">
<path d="M27.4673 10.9113L27.3657 10.8382H27.4282L20.662 5.15016L15.0521 0.437189C14.722 0.154547 14.3077 0 13.8801 0C13.4525 0 13.0382 0.154547 12.7081 0.437189L7.10601 5.15016L0.496024 10.8382C-0.511882 11.5614 0.136616 13.276 1.36329 13.276C1.66051 13.2777 1.94755 13.3888 2.17352 13.5896C2.39948 13.7904 2.54978 14.0679 2.59778 14.3729L4.56672 26.9111C4.61168 27.2154 4.76029 27.4928 4.98546 27.6927C5.21063 27.8925 5.49736 28.0016 5.79339 28H9.16871C9.40152 28 9.62491 27.9043 9.79026 27.7339C9.95561 27.5634 10.0495 27.332 10.0516 27.0899V21.5074C10.0957 20.5027 10.5105 19.5543 11.2097 18.8596C11.9089 18.1648 12.8388 17.7771 13.8059 17.7771C14.7729 17.7771 15.7028 18.1648 16.402 18.8596C17.1012 19.5543 17.516 20.5027 17.5601 21.5074V27.0493C17.5601 27.1748 17.584 27.2991 17.6304 27.4149C17.6769 27.5308 17.7449 27.636 17.8306 27.7244C17.9163 27.8128 18.018 27.8826 18.1298 27.9299C18.2417 27.9772 18.3614 28.001 18.4821 28H21.6386C21.9346 28.0016 22.2214 27.8925 22.4466 27.6927C22.6717 27.4928 22.8203 27.2154 22.8653 26.9111L24.8342 14.3729C24.8822 14.0679 25.0325 13.7904 25.2585 13.5896C25.4845 13.3888 25.7715 13.2777 26.0687 13.276H26.725C26.9929 13.2815 27.2554 13.1974 27.4739 13.036C27.6923 12.8746 27.8551 12.6445 27.9383 12.3796C28.0214 12.1147 28.0205 11.829 27.9357 11.5646C27.8509 11.3003 27.6867 11.0713 27.4673 10.9113Z" fill="#E24E4D"/>
</svg>
