<svg width="28" height="28" viewBox="0 0 28 28" fill="none" xmlns="http://www.w3.org/2000/svg">
<path d="M0.00161768 4.6071V18.3428C-0.0299163 19.5302 0.400654 20.6819 1.19898 21.5455C1.99732 22.4091 3.09827 22.9142 4.2605 22.9499H4.90476C5.22381 22.9539 5.5351 23.0509 5.80195 23.2296C6.06879 23.4083 6.28007 23.6612 6.41087 23.9585L7.83327 27.0356C7.9703 27.3247 8.18425 27.5684 8.45062 27.7389C8.71699 27.9095 9.02501 28 9.33938 28C9.65374 28 9.96174 27.9095 10.2281 27.7389C10.4945 27.5684 10.7084 27.3247 10.8455 27.0356L12.2679 23.9585C12.3987 23.6612 12.6099 23.4083 12.8768 23.2296C13.1436 23.0509 13.4549 22.9539 13.774 22.9499H23.7476C24.9091 22.9142 26.0092 22.4089 26.8062 21.545C27.6032 20.6811 28.0319 19.5294 27.9981 18.3428V4.6071C28.0319 3.42053 27.6032 2.26879 26.8062 1.40493C26.0092 0.541068 24.9091 0.0357444 23.7476 0H4.2605C3.09827 0.0357631 1.99732 0.540805 1.19898 1.40441C0.400654 2.26801 -0.0299163 3.41972 0.00161768 4.6071Z" fill="#E34D4D"/>
<path d="M13.6645 13.8472C14.5472 13.8472 15.2627 13.1162 15.2627 12.2146C15.2627 11.313 14.5472 10.582 13.6645 10.582C12.7819 10.582 12.0664 11.313 12.0664 12.2146C12.0664 13.1162 12.7819 13.8472 13.6645 13.8472Z" fill="white"/>
<path d="M20.852 13.8472C21.7347 13.8472 22.4502 13.1162 22.4502 12.2146C22.4502 11.313 21.7347 10.582 20.852 10.582C19.9694 10.582 19.2539 11.313 19.2539 12.2146C19.2539 13.1162 19.9694 13.8472 20.852 13.8472Z" fill="white"/>
<path d="M6.47704 13.8472C7.35966 13.8472 8.07517 13.1162 8.07517 12.2146C8.07517 11.313 7.35966 10.582 6.47704 10.582C5.59442 10.582 4.87891 11.313 4.87891 12.2146C4.87891 13.1162 5.59442 13.8472 6.47704 13.8472Z" fill="white"/>
</svg>
