<svg width="28" height="29" viewBox="0 0 28 29" fill="none" xmlns="http://www.w3.org/2000/svg">
<path d="M14 0.00390625C11.2311 0.00390625 8.52431 0.82502 6.22202 2.36336C3.91973 3.9017 2.12532 6.08817 1.06569 8.64634C0.00606244 11.2045 -0.271179 14.0194 0.269014 16.7352C0.809207 19.4509 2.14257 21.9455 4.10051 23.9034C6.05844 25.8613 8.55301 27.1947 11.2687 27.7349C13.9845 28.2751 16.7994 27.9978 19.3576 26.9382C21.9157 25.8786 24.1022 24.0842 25.6406 21.7819C27.1789 19.4796 28 16.7728 28 14.0039C28 10.2909 26.525 6.72992 23.8995 4.10441C21.274 1.4789 17.713 0.00390625 14 0.00390625ZM19.2541 15.1404H15.3588V19.8263C15.3588 20.1539 15.2287 20.4681 14.997 20.6998C14.7654 20.9314 14.4512 21.0616 14.1235 21.0616C13.7959 21.0616 13.4817 20.9314 13.25 20.6998C13.0184 20.4681 12.8882 20.1539 12.8882 19.8263V15.1404H8.30941C7.98179 15.1404 7.66759 15.0102 7.43593 14.7786C7.20427 14.5469 7.07411 14.2327 7.07411 13.9051C7.07411 13.5775 7.20427 13.2633 7.43593 13.0316C7.66759 12.7999 7.98179 12.6698 8.30941 12.6698H12.8882V8.19803C12.8882 7.87041 13.0184 7.5562 13.25 7.32454C13.4817 7.09288 13.7959 6.96274 14.1235 6.96274C14.4512 6.96274 14.7654 7.09288 14.997 7.32454C15.2287 7.5562 15.3588 7.87041 15.3588 8.19803V12.6698H19.2541C19.5817 12.6698 19.8959 12.7999 20.1276 13.0316C20.3593 13.2633 20.4894 13.5775 20.4894 13.9051C20.4894 14.2327 20.3593 14.5469 20.1276 14.7786C19.8959 15.0102 19.5817 15.1404 19.2541 15.1404Z" fill="#E24E4D"/>
</svg>
