<svg width="29" height="28" viewBox="0 0 29 28" fill="none" xmlns="http://www.w3.org/2000/svg">
<path d="M15.8201 0.118412C12.9205 -0.261099 9.97487 0.276883 7.39664 1.65685C4.81842 3.03682 2.73703 5.18949 1.44463 7.81271C0.152231 10.4359 -0.286289 13.398 0.190612 16.2832C0.667512 19.1684 2.03589 21.8317 4.10368 23.8995C6.17148 25.9673 8.83489 27.3357 11.72 27.8126C14.6052 28.2895 17.5673 27.851 20.1905 26.5586C22.8137 25.2662 24.9664 23.1848 26.3463 20.6066C27.7263 18.0283 28.2643 15.0827 27.8848 12.1831C27.4843 9.12374 26.0844 6.28232 23.9027 4.10055C21.7209 1.91877 18.8795 0.518843 15.8201 0.118412V0.118412ZM17.0801 17.6349L8.08712 20.7066C7.97266 20.7419 7.85076 20.7453 7.73452 20.7165C7.61828 20.6876 7.5121 20.6276 7.42741 20.5429C7.34271 20.4582 7.2827 20.352 7.25384 20.2358C7.22498 20.1195 7.22835 19.9976 7.2636 19.8831L9.66831 11.269C9.72567 11.0654 9.83007 10.878 9.97311 10.7221C10.1162 10.5661 10.2939 10.446 10.4918 10.3714L20.6048 6.92902C20.6948 6.89804 20.7918 6.89327 20.8844 6.91529C20.9771 6.93732 21.0615 6.98524 21.128 7.05342C21.1944 7.1216 21.2401 7.20726 21.2598 7.30042C21.2794 7.39358 21.2722 7.49038 21.2389 7.57959L17.8295 16.8855C17.7696 17.0591 17.671 17.2167 17.5412 17.3466C17.4113 17.4764 17.2536 17.575 17.0801 17.6349V17.6349Z" fill="#E24E4D"/>
<path d="M14.2471 14.9102C14.8565 14.9102 15.3506 14.4161 15.3506 13.8067C15.3506 13.1972 14.8565 12.7031 14.2471 12.7031C13.6376 12.7031 13.1436 13.1972 13.1436 13.8067C13.1436 14.4161 13.6376 14.9102 14.2471 14.9102Z" fill="#E24E4D"/>
</svg>
