<svg width="29" height="28" viewBox="0 0 29 28" fill="none" xmlns="http://www.w3.org/2000/svg">
<path d="M23.9172 0.0332031H4.4301C3.2686 0.0681935 2.16849 0.562858 1.37149 1.40849C0.574492 2.25413 0.1458 3.38158 0.179591 4.54312V17.9892C0.1458 19.1507 0.574492 20.2781 1.37149 21.1238C2.16849 21.9694 3.2686 22.464 4.4301 22.499H5.07436C5.39249 22.5022 5.70316 22.5959 5.96991 22.7693C6.23666 22.9427 6.44845 23.1886 6.58047 23.478L8.00287 26.4986C8.1399 26.7815 8.35385 27.0201 8.62022 27.1871C8.88659 27.354 9.19461 27.4426 9.50897 27.4426C9.82334 27.4426 10.1313 27.354 10.3977 27.1871C10.6641 27.0201 10.878 26.7815 11.0151 26.4986L12.4375 23.478C12.5695 23.1886 12.7813 22.9427 13.048 22.7693C13.3148 22.5959 13.6254 22.5022 13.9436 22.499H23.9172C25.0795 22.464 26.1804 21.9697 26.9787 21.1243C27.7771 20.2789 28.2077 19.1515 28.1761 17.9892V4.53474C28.2054 3.37384 27.7738 2.24859 26.9757 1.40502C26.1776 0.561459 25.078 0.068225 23.9172 0.0332031V0.0332031ZM6.68087 13.5796C6.36479 13.5796 6.05582 13.4859 5.79301 13.3103C5.5302 13.1347 5.32534 12.8851 5.20438 12.5931C5.08343 12.3011 5.05179 11.9798 5.11346 11.6698C5.17512 11.3598 5.32731 11.075 5.55081 10.8515C5.77431 10.628 6.05909 10.4757 6.36909 10.4141C6.6791 10.3524 7.00043 10.3841 7.29245 10.505C7.58447 10.626 7.83406 10.8308 8.00966 11.0937C8.18527 11.3565 8.279 11.6655 8.279 11.9815C8.2768 12.4047 8.10771 12.8099 7.80847 13.1091C7.50924 13.4084 7.10404 13.5774 6.68087 13.5796V13.5796ZM13.8683 13.5796C13.5522 13.5796 13.2432 13.4859 12.9804 13.3103C12.7176 13.1347 12.5127 12.8851 12.3918 12.5931C12.2708 12.3011 12.2392 11.9798 12.3008 11.6698C12.3625 11.3598 12.5147 11.075 12.7382 10.8515C12.9617 10.628 13.2465 10.4757 13.5565 10.4141C13.8665 10.3524 14.1878 10.3841 14.4798 10.505C14.7719 10.626 15.0214 10.8308 15.1971 11.0937C15.3727 11.3565 15.4664 11.6655 15.4664 11.9815C15.4653 12.1939 15.4221 12.404 15.3393 12.5996C15.2565 12.7952 15.1358 12.9724 14.984 13.121C14.8323 13.2697 14.6526 13.3867 14.4554 13.4654C14.2581 13.5441 14.0472 13.583 13.8348 13.5796H13.8683ZM21.0557 13.5796C20.7396 13.5796 20.4306 13.4859 20.1678 13.3103C19.905 13.1347 19.7002 12.8851 19.5792 12.5931C19.4582 12.3011 19.4266 11.9798 19.4882 11.6698C19.5499 11.3598 19.7021 11.075 19.9256 10.8515C20.1491 10.628 20.4339 10.4757 20.7439 10.4141C21.0539 10.3524 21.3752 10.3841 21.6672 10.505C21.9593 10.626 22.2088 10.8308 22.3844 11.0937C22.5601 11.3565 22.6538 11.6655 22.6538 11.9815C22.6527 12.1939 22.6095 12.404 22.5267 12.5996C22.4439 12.7952 22.3232 12.9724 22.1714 13.121C22.0197 13.2697 21.84 13.3867 21.6427 13.4654C21.4455 13.5441 21.2346 13.583 21.0222 13.5796H21.0557Z" fill="#E24E4D"/>
</svg>
