<svg width="28" height="28" viewBox="0 0 28 28" fill="none" xmlns="http://www.w3.org/2000/svg">
<path d="M22.2621 7.95703H5.72234C4.16382 7.95703 2.90039 9.35185 2.90039 11.0724V24.8841C2.90039 26.6047 4.16382 27.9995 5.72234 27.9995H22.2621C23.8206 27.9995 25.084 26.6047 25.084 24.8841V11.0724C25.084 9.35185 23.8206 7.95703 22.2621 7.95703Z" fill="#E24E4D"/>
<path d="M20.491 4.00195H7.32195C5.76343 4.00195 4.5 5.39677 4.5 7.11736V16.1867C4.5 17.9073 5.76343 19.3021 7.32195 19.3021H20.491C22.0496 19.3021 23.313 17.9073 23.313 16.1867V7.11736C23.313 5.39677 22.0496 4.00195 20.491 4.00195Z" fill="white"/>
<path d="M5.58903 10.5616C5.4653 11.3857 5.06144 12.1266 4.45983 12.6332C3.85822 13.1397 3.10421 13.3738 2.35162 13.2876C1.75111 13.1607 1.20157 12.8297 0.779904 12.3409C0.358237 11.8521 0.0855484 11.23 0 10.5616L3.46472 1.50964C3.73087 1.13482 4.05782 0.81788 4.4289 0.574999C4.83116 0.314402 5.27599 0.143831 5.73797 0.0730577C15.4502 -0.056751 22.5364 -0.00479584 23.5476 0.159628C24.027 0.239401 24.4832 0.440827 24.8802 0.748088C25.157 0.984034 25.3888 1.27815 25.5622 1.61348C26.3774 4.59042 27.19 7.56737 28 10.5443C27.8763 11.3684 27.4724 12.1093 26.8708 12.6158C26.2692 13.1224 25.5152 13.3564 24.7626 13.2703C24.1621 13.1434 23.6126 12.8124 23.1909 12.3236C22.7692 11.8348 22.4965 11.2127 22.411 10.5443" fill="#E24E4D"/>
<path d="M5.58789 10.5625C5.67344 11.2309 5.94613 11.8529 6.36779 12.3417C6.78946 12.8305 7.339 13.1615 7.93951 13.2884C8.6921 13.3746 9.44611 13.1406 10.0477 12.634C10.6493 12.1275 11.0532 11.3866 11.1769 10.5625" fill="#E24E4D"/>
<path d="M11.1934 10.5625C11.2789 11.2309 11.5516 11.8529 11.9733 12.3417C12.3949 12.8305 12.9445 13.1615 13.545 13.2884C14.2976 13.3746 15.0516 13.1406 15.6532 12.634C16.2548 12.1275 16.6587 11.3866 16.7824 10.5625" fill="#E24E4D"/>
<path d="M16.7891 10.5625C16.8746 11.2309 17.1473 11.8529 17.569 12.3417C17.9906 12.8305 18.5402 13.1615 19.1407 13.2884C19.8933 13.3746 20.6473 13.1406 21.2489 12.634C21.8505 12.1275 22.2544 11.3866 22.3781 10.5625" fill="#E24E4D"/>
</svg>
