<svg width="28" height="28" viewBox="0 0 28 28" fill="none" xmlns="http://www.w3.org/2000/svg">
<path d="M14 28C21.732 28 28 21.732 28 14C28 6.26801 21.732 0 14 0C6.26801 0 0 6.26801 0 14C0 21.732 6.26801 28 14 28Z" fill="#E24E4D"/>
<path d="M9.53576 11.7449C9.65441 11.4034 9.84424 11.091 10.0927 10.8284C10.3411 10.5657 10.6425 10.3589 10.9769 10.2214L20.4805 6.99317C21.0981 6.77905 21.4193 7.10847 21.1969 7.71788L18.0346 16.332C17.8906 16.6704 17.6811 16.977 17.4182 17.2343C17.1554 17.4915 16.8443 17.6942 16.5028 17.8308L8.01223 20.7379C7.39458 20.952 7.03223 20.6061 7.1887 19.9802L9.53576 11.7449Z" fill="white"/>
<path d="M14.2481 14.9121C14.8575 14.9121 15.3516 14.4181 15.3516 13.8086C15.3516 13.1991 14.8575 12.7051 14.2481 12.7051C13.6386 12.7051 13.1445 13.1991 13.1445 13.8086C13.1445 14.4181 13.6386 14.9121 14.2481 14.9121Z" fill="#E24E4D"/>
<path d="M14 28C21.732 28 28 21.732 28 14C28 6.26801 21.732 0 14 0C6.26801 0 0 6.26801 0 14C0 21.732 6.26801 28 14 28Z" fill="#E24E4D"/>
<path d="M9.53576 11.7449C9.65441 11.4034 9.84424 11.091 10.0927 10.8284C10.3411 10.5657 10.6425 10.3589 10.9769 10.2214L20.4805 6.99317C21.0981 6.77905 21.4193 7.10847 21.1969 7.71788L18.0346 16.332C17.8906 16.6704 17.6811 16.977 17.4182 17.2343C17.1554 17.4915 16.8443 17.6942 16.5028 17.8308L8.01223 20.7379C7.39458 20.952 7.03223 20.6061 7.1887 19.9802L9.53576 11.7449Z" fill="white"/>
<path d="M14.2481 14.9121C14.8575 14.9121 15.3516 14.4181 15.3516 13.8086C15.3516 13.1991 14.8575 12.7051 14.2481 12.7051C13.6386 12.7051 13.1445 13.1991 13.1445 13.8086C13.1445 14.4181 13.6386 14.9121 14.2481 14.9121Z" fill="#E24E4D"/>
</svg>
