<svg width="24" height="24" viewBox="0 0 24 24" fill="none" xmlns="http://www.w3.org/2000/svg">
<path d="M20.4867 0H3.5133C1.57296 0 0 1.57296 0 3.51331V20.2433C0 22.1837 1.57296 23.7566 3.5133 23.7566H20.4867C22.427 23.7566 24 22.1837 24 20.2433V3.51331C24 1.57296 22.427 0 20.4867 0Z" fill="#E24E4D"/>
<path d="M19.3916 5.56596C20.1602 5.56596 20.7833 4.94971 20.7833 4.18954C20.7833 3.42936 20.1602 2.81311 19.3916 2.81311C18.6231 2.81311 18 3.42936 18 4.18954C18 4.94971 18.6231 5.56596 19.3916 5.56596Z" fill="white"/>
<path d="M14.6992 9.55176H6.47863C5.67225 9.55176 5.01855 10.2055 5.01855 11.0118V15.1791C5.01855 15.9855 5.67225 16.6392 6.47863 16.6392H14.6992C15.5055 16.6392 16.1592 15.9855 16.1592 15.1791V11.0118C16.1592 10.2055 15.5055 9.55176 14.6992 9.55176Z" fill="white"/>
<path d="M16.152 11.5898L17.7641 9.98523C17.8594 9.88886 17.9812 9.82292 18.1139 9.79581C18.2467 9.76871 18.3845 9.78163 18.51 9.83294C18.6354 9.88425 18.7427 9.97165 18.8185 10.084C18.8942 10.1964 18.9348 10.3288 18.9352 10.4643V15.9396C18.9362 16.0651 18.8997 16.1881 18.8304 16.2927C18.7611 16.3974 18.6622 16.4791 18.5462 16.5272C18.4303 16.5754 18.3027 16.5879 18.1796 16.5631C18.0565 16.5384 17.9437 16.4775 17.8554 16.3883L16.1215 14.5404C16.007 14.4126 15.9422 14.248 15.939 14.0765V12.0993C15.9377 12.0043 15.9558 11.91 15.9925 11.8224C16.0291 11.7347 16.0834 11.6555 16.152 11.5898Z" fill="white"/>
</svg>
