<svg width="94" height="27" viewBox="0 0 94 27" fill="none" xmlns="http://www.w3.org/2000/svg">
<path d="M18.1543 10.6562C18.1543 12.3053 17.6839 13.7552 16.7432 15.0059C15.8024 16.2454 14.5186 17.1641 12.8916 17.7617C12.0173 18.1048 10.999 18.3594 9.83691 18.5254C8.68587 18.6914 7.55143 18.7799 6.43359 18.791L6.4668 25H0.97168C0.982747 23.9928 0.993815 22.6204 1.00488 20.8828C1.02702 19.1341 1.03809 16.5111 1.03809 13.0137C1.03809 11.763 1.03255 10.2467 1.02148 8.46484C1.01042 6.67188 0.993815 4.77376 0.97168 2.77051C1.50293 2.75944 2.09505 2.75391 2.74805 2.75391C3.40104 2.74284 4.00423 2.7373 4.55762 2.7373C6.93717 2.7373 8.81868 2.84245 10.2021 3.05273C11.5967 3.26302 12.8252 3.62826 13.8877 4.14844C15.249 4.79036 16.3005 5.66471 17.042 6.77148C17.7835 7.86719 18.1543 9.16211 18.1543 10.6562ZM12.5264 11.0049C12.5264 10.1527 12.3327 9.41113 11.9453 8.78027C11.569 8.14941 10.9935 7.64583 10.2188 7.26953C9.69857 7.00391 9.13965 6.84342 8.54199 6.78809C7.9554 6.72168 7.35775 6.68848 6.74902 6.68848C6.68262 6.68848 6.59961 6.68848 6.5 6.68848C6.40039 6.68848 6.31738 6.68848 6.25098 6.68848C6.25098 6.84342 6.24544 7.49089 6.23438 8.63086C6.22331 9.75977 6.21777 10.6784 6.21777 11.3867C6.21777 12.0729 6.21777 12.9085 6.21777 13.8936C6.21777 14.8675 6.21777 15.3988 6.21777 15.4873C6.29525 15.4873 6.38932 15.4873 6.5 15.4873C6.61068 15.4873 6.69368 15.4873 6.74902 15.4873C7.29134 15.4873 7.88346 15.443 8.52539 15.3545C9.17839 15.2549 9.7207 15.0944 10.1523 14.873C10.9271 14.4967 11.5137 14.0098 11.9121 13.4121C12.3216 12.8034 12.5264 12.001 12.5264 11.0049ZM26.7207 25H21.624C21.624 24.5905 21.6296 23.196 21.6406 20.8164C21.6628 18.4258 21.6738 15.5205 21.6738 12.1006C21.6738 10.6064 21.6683 8.89095 21.6572 6.9541C21.6462 5.01725 21.6351 2.91992 21.624 0.662109H26.7207C26.6986 2.79818 26.682 4.94531 26.6709 7.10352C26.6598 9.25065 26.6543 10.9827 26.6543 12.2998C26.6543 14.0928 26.6654 16.5387 26.6875 19.6377C26.7096 22.7367 26.7207 24.5241 26.7207 25ZM38.873 24.7344L34.7227 26.5273C32.5866 23.7272 30.8047 21.5026 29.377 19.8535C27.9492 18.1934 27.0583 17.0921 26.7041 16.5498V16.5166C27.014 16.0628 27.9105 14.9062 29.3936 13.0469C30.8877 11.1764 32.2214 9.3724 33.3945 7.63477L37.9268 9.36133C36.8421 10.8112 35.763 12.2168 34.6895 13.5781C33.627 14.9395 32.9629 15.7917 32.6973 16.1348V16.1514C32.6973 16.1514 33.306 16.9925 34.5234 18.6748C35.752 20.346 37.2018 22.3659 38.873 24.7344ZM55.2588 16.1846C55.2588 18.8962 55.2533 20.988 55.2422 22.46C55.2422 23.932 55.2422 24.7842 55.2422 25.0166C55.0651 25.0387 54.3457 25.0885 53.084 25.166C51.8223 25.2435 50.4831 25.2822 49.0664 25.2822C48.1367 25.2822 47.0742 25.2048 45.8789 25.0498C44.6947 24.8949 43.7041 24.6458 42.9072 24.3027C41.889 23.86 41.0921 23.279 40.5166 22.5596C39.9411 21.8291 39.6533 20.9769 39.6533 20.0029C39.6533 18.9404 39.9577 18.0329 40.5664 17.2803C41.1862 16.5277 42.1491 15.9079 43.4551 15.4209C44.3294 15.0889 45.4085 14.8288 46.6924 14.6406C47.9762 14.4525 49.1383 14.3197 50.1787 14.2422C50.1455 13.6445 49.985 13.1576 49.6973 12.7812C49.4206 12.3939 48.9447 12.0951 48.2695 11.8848C47.8268 11.7409 47.3343 11.6413 46.792 11.5859C46.2607 11.5195 45.6243 11.4863 44.8828 11.4863C44.2077 11.4863 43.6322 11.4974 43.1562 11.5195C42.6803 11.5417 42.1657 11.5638 41.6123 11.5859L42.0605 7.88379C42.2819 7.87272 42.6361 7.86165 43.123 7.85059C43.61 7.82845 44.2962 7.81738 45.1816 7.81738C47.0521 7.81738 48.6071 7.97786 49.8467 8.29883C51.0973 8.61979 52.1488 9.15104 53.001 9.89258C53.7868 10.5677 54.3568 11.3923 54.7109 12.3662C55.0762 13.3291 55.2588 14.6019 55.2588 16.1846ZM50.4443 19.2393C50.4443 18.8851 50.4443 18.4756 50.4443 18.0107C50.4443 17.5348 50.4388 17.0368 50.4277 16.5166C50.1068 16.5277 49.5368 16.5941 48.7178 16.7158C47.8988 16.8265 47.1683 17.0202 46.5264 17.2969C46.0837 17.474 45.6742 17.7507 45.2979 18.127C44.9326 18.5033 44.75 18.9681 44.75 19.5215C44.75 20.1413 44.9105 20.6338 45.2314 20.999C45.5635 21.3643 45.9896 21.6465 46.5098 21.8457C46.8861 21.9785 47.3122 22.0781 47.7881 22.1445C48.264 22.2109 48.7786 22.2441 49.332 22.2441C49.4759 22.2441 49.6419 22.2441 49.8301 22.2441C50.0182 22.2331 50.2174 22.2275 50.4277 22.2275C50.4277 22.0837 50.4277 21.7461 50.4277 21.2148C50.4388 20.6836 50.4443 20.0251 50.4443 19.2393ZM73.8027 24.9502C73.2383 24.9502 72.0264 24.9502 70.167 24.9502C68.3187 24.9391 66.8854 24.9336 65.8672 24.9336C64.6276 24.9336 63.2884 24.9391 61.8496 24.9502C60.4108 24.9502 59.5475 24.9502 59.2598 24.9502L58.0645 22.6592C59.0052 21.4417 60.1895 19.9089 61.6172 18.0605C63.056 16.2122 64.6497 14.1426 66.3984 11.8516L66.3818 11.8184C65.9613 11.8184 65.513 11.8184 65.0371 11.8184C64.5612 11.8184 64.1074 11.8184 63.6758 11.8184C62.8568 11.8184 61.8607 11.8239 60.6875 11.835C59.5143 11.835 58.8281 11.835 58.6289 11.835V8.14941C58.9609 8.14941 59.9404 8.15495 61.5674 8.16602C63.2054 8.16602 64.5003 8.16602 65.4521 8.16602C66.4593 8.16602 67.7155 8.16602 69.2207 8.16602C70.737 8.15495 71.7441 8.14941 72.2422 8.14941L73.5371 10.291C71.7663 12.5046 70.0231 14.7402 68.3076 16.998C66.5921 19.2448 65.5186 20.6504 65.0869 21.2148L65.1035 21.248C65.4688 21.248 65.9391 21.248 66.5146 21.248C67.1012 21.248 67.721 21.248 68.374 21.248C70.0231 21.248 71.2572 21.2425 72.0762 21.2314C72.8952 21.2204 73.4707 21.2148 73.8027 21.2148V24.9502ZM93.6582 16.5498C93.6582 17.8337 93.4147 19.0622 92.9277 20.2354C92.4408 21.3975 91.7158 22.4157 90.7529 23.29C89.945 24.0205 89.0264 24.5684 87.9971 24.9336C86.9678 25.2878 85.8444 25.4648 84.627 25.4648C83.4427 25.4648 82.3249 25.2878 81.2734 24.9336C80.222 24.5684 79.2923 24.026 78.4844 23.3066C77.5547 22.4766 76.8353 21.4694 76.3262 20.2852C75.8281 19.1009 75.5791 17.8447 75.5791 16.5166C75.5791 15.2106 75.7949 14.0264 76.2266 12.9639C76.6582 11.8903 77.3278 10.9163 78.2354 10.042C79.0544 9.24512 80.0062 8.64193 81.0908 8.23242C82.1865 7.82292 83.3597 7.61816 84.6104 7.61816C85.8721 7.61816 87.0286 7.80632 88.0801 8.18262C89.1315 8.55892 90.0778 9.13997 90.9189 9.92578C91.8376 10.8001 92.5238 11.7907 92.9775 12.8975C93.4313 13.9932 93.6582 15.2106 93.6582 16.5498ZM88.5947 16.6162C88.5947 15.8304 88.473 15.0501 88.2295 14.2754C87.9971 13.5007 87.6152 12.8532 87.084 12.333C86.7741 12.0231 86.4033 11.7907 85.9717 11.6357C85.54 11.4697 85.0918 11.3867 84.627 11.3867C84.0736 11.3867 83.5921 11.4753 83.1826 11.6523C82.7842 11.8184 82.3968 12.1006 82.0205 12.499C81.5778 12.9528 81.2347 13.5505 80.9912 14.292C80.7588 15.0335 80.6426 15.7751 80.6426 16.5166C80.6426 17.3799 80.7588 18.1768 80.9912 18.9072C81.2347 19.6266 81.6387 20.252 82.2031 20.7832C82.513 21.0931 82.8783 21.3255 83.2988 21.4805C83.7194 21.6243 84.1621 21.6963 84.627 21.6963C85.1139 21.6963 85.5788 21.6077 86.0215 21.4307C86.4753 21.2536 86.8626 20.999 87.1836 20.667C87.6374 20.18 87.986 19.5768 88.2295 18.8574C88.473 18.138 88.5947 17.391 88.5947 16.6162Z" fill="#E24E4D"/>
</svg>
