<svg width="15" height="16" viewBox="0 0 15 16" fill="none" xmlns="http://www.w3.org/2000/svg">
<path d="M6.58834 0.470703C9.96718 0.470703 12.706 3.20953 12.706 6.58834C12.706 8.08953 12.1648 9.46506 11.2674 10.53L14.9046 14.2848L13.8382 15.385L10.1413 11.569C9.10508 12.3104 7.86244 12.708 6.58834 12.706C3.20953 12.706 0.470703 9.96718 0.470703 6.58834C0.470703 3.2095 3.20953 0.470703 6.58834 0.470703ZM6.58834 1.88247C3.98931 1.88247 1.88247 3.98931 1.88247 6.58834C1.88247 9.18738 3.98931 11.2942 6.58834 11.2942C9.18738 11.2942 11.2942 9.1874 11.2942 6.58834C11.2942 3.98928 9.1874 1.88247 6.58834 1.88247Z" fill="#000000"/>
</svg>
