<svg width="20" height="20" viewBox="0 0 20 20" fill="none" xmlns="http://www.w3.org/2000/svg">
<path d="M17.1169 18C17.6046 18 18 17.6046 18 17.1169V2.88306C18 2.39531 17.6046 2 17.1169 2H2.88306C2.39525 2 2 2.39531 2 2.88306V17.1169C2 17.6046 2.39525 18 2.88306 18H17.1169Z" fill="#395185"/>
<path d="M11.422 16.9808V11.0585H13.2647L13.5406 8.75055H11.422V7.27693C11.422 6.6087 11.594 6.15332 12.4823 6.15332L13.6152 6.15278V4.08854C13.4192 4.0604 12.7467 3.99756 11.9644 3.99756C10.3309 3.99756 9.21267 5.07314 9.21267 7.04843V8.75055H7.36523V11.0585H9.21267V16.9808H11.422Z" fill="white"/>
</svg>
