<svg width="44" height="44" viewBox="0 0 44 44" fill="none" xmlns="http://www.w3.org/2000/svg">
<g filter="url(#filter0_d_4243_5248)">
<circle cx="22" cy="20" r="18" fill="white"/>
</g>
<g clip-path="url(#clip0_4243_5248)">
<path d="M29.1156 13.2613C27.0836 11.5527 23.9441 11.8094 22 13.7887C20.0559 11.8094 16.9164 11.5492 14.8844 13.2613C12.2406 15.4867 12.6273 19.1148 14.5117 21.0379L20.6781 27.3203C21.0297 27.6789 21.5008 27.8793 22 27.8793C22.5027 27.8793 22.9703 27.6824 23.3219 27.3238L29.4883 21.0414C31.3691 19.1184 31.7629 15.4902 29.1156 13.2613ZM28.2859 19.8531L22.1195 26.1355C22.0352 26.2199 21.9648 26.2199 21.8805 26.1355L15.7141 19.8531C14.4309 18.5453 14.1707 16.0703 15.9707 14.5551C17.3383 13.4055 19.4477 13.5777 20.7695 14.9242L22 16.1793L23.2305 14.9242C24.5594 13.5707 26.6688 13.4055 28.0293 14.5516C29.8258 16.0668 29.5586 18.5559 28.2859 19.8531Z" fill="#222222"/>
</g>
<defs>
<filter id="filter0_d_4243_5248" x="0" y="0" width="44" height="44" filterUnits="userSpaceOnUse" color-interpolation-filters="sRGB">
<feFlood flood-opacity="0" result="BackgroundImageFix"/>
<feColorMatrix in="SourceAlpha" type="matrix" values="0 0 0 0 0 0 0 0 0 0 0 0 0 0 0 0 0 0 127 0" result="hardAlpha"/>
<feOffset dy="2"/>
<feGaussianBlur stdDeviation="2"/>
<feComposite in2="hardAlpha" operator="out"/>
<feColorMatrix type="matrix" values="0 0 0 0 0 0 0 0 0 0 0 0 0 0 0 0 0 0 0.08 0"/>
<feBlend mode="normal" in2="BackgroundImageFix" result="effect1_dropShadow_4243_5248"/>
<feBlend mode="normal" in="SourceGraphic" in2="effect1_dropShadow_4243_5248" result="shape"/>
</filter>
<clipPath id="clip0_4243_5248">
<rect width="18" height="16" fill="white" transform="translate(13 12)"/>
</clipPath>
</defs>
</svg>
