<svg width="66" height="20" viewBox="0 0 66 20" fill="none" xmlns="http://www.w3.org/2000/svg">
<path d="M12.2266 7.875C12.2266 9.03906 11.8945 10.0625 11.2305 10.9453C10.5664 11.8203 9.66016 12.4688 8.51172 12.8906C7.89453 13.1328 7.17578 13.3125 6.35547 13.4297C5.54297 13.5469 4.74219 13.6094 3.95312 13.6172L3.97656 18H0.0976562C0.105469 17.2891 0.113281 16.3203 0.121094 15.0938C0.136719 13.8594 0.144531 12.0078 0.144531 9.53906C0.144531 8.65625 0.140625 7.58594 0.132812 6.32812C0.125 5.0625 0.113281 3.72266 0.0976562 2.30859C0.472656 2.30078 0.890625 2.29688 1.35156 2.29688C1.8125 2.28906 2.23828 2.28516 2.62891 2.28516C4.30859 2.28516 5.63672 2.35937 6.61328 2.50781C7.59766 2.65625 8.46484 2.91406 9.21484 3.28125C10.1758 3.73438 10.918 4.35156 11.4414 5.13281C11.9648 5.90625 12.2266 6.82031 12.2266 7.875ZM8.25391 8.12109C8.25391 7.51953 8.11719 6.99609 7.84375 6.55078C7.57812 6.10547 7.17188 5.75 6.625 5.48438C6.25781 5.29688 5.86328 5.18359 5.44141 5.14453C5.02734 5.09766 4.60547 5.07422 4.17578 5.07422C4.12891 5.07422 4.07031 5.07422 4 5.07422C3.92969 5.07422 3.87109 5.07422 3.82422 5.07422C3.82422 5.18359 3.82031 5.64062 3.8125 6.44531C3.80469 7.24219 3.80078 7.89062 3.80078 8.39062C3.80078 8.875 3.80078 9.46484 3.80078 10.1602C3.80078 10.8477 3.80078 11.2227 3.80078 11.2852C3.85547 11.2852 3.92188 11.2852 4 11.2852C4.07812 11.2852 4.13672 11.2852 4.17578 11.2852C4.55859 11.2852 4.97656 11.2539 5.42969 11.1914C5.89062 11.1211 6.27344 11.0078 6.57812 10.8516C7.125 10.5859 7.53906 10.2422 7.82031 9.82031C8.10938 9.39062 8.25391 8.82422 8.25391 8.12109ZM18.2734 18H14.6758C14.6758 17.7109 14.6797 16.7266 14.6875 15.0469C14.7031 13.3594 14.7109 11.3086 14.7109 8.89453C14.7109 7.83984 14.707 6.62891 14.6992 5.26172C14.6914 3.89453 14.6836 2.41406 14.6758 0.820312H18.2734C18.2578 2.32813 18.2461 3.84375 18.2383 5.36719C18.2305 6.88281 18.2266 8.10547 18.2266 9.03516C18.2266 10.3008 18.2344 12.0273 18.25 14.2148C18.2656 16.4023 18.2734 17.6641 18.2734 18ZM26.8516 17.8125L23.9219 19.0781C22.4141 17.1016 21.1562 15.5312 20.1484 14.3672C19.1406 13.1953 18.5117 12.418 18.2617 12.0352V12.0117C18.4805 11.6914 19.1133 10.875 20.1602 9.5625C21.2148 8.24219 22.1562 6.96875 22.9844 5.74219L26.1836 6.96094C25.418 7.98438 24.6562 8.97656 23.8984 9.9375C23.1484 10.8984 22.6797 11.5 22.4922 11.7422V11.7539C22.4922 11.7539 22.9219 12.3477 23.7812 13.5352C24.6484 14.7148 25.6719 16.1406 26.8516 17.8125ZM38.418 11.7773C38.418 13.6914 38.4141 15.168 38.4062 16.207C38.4062 17.2461 38.4062 17.8477 38.4062 18.0117C38.2812 18.0273 37.7734 18.0625 36.8828 18.1172C35.9922 18.1719 35.0469 18.1992 34.0469 18.1992C33.3906 18.1992 32.6406 18.1445 31.7969 18.0352C30.9609 17.9258 30.2617 17.75 29.6992 17.5078C28.9805 17.1953 28.418 16.7852 28.0117 16.2773C27.6055 15.7617 27.4023 15.1602 27.4023 14.4727C27.4023 13.7227 27.6172 13.082 28.0469 12.5508C28.4844 12.0195 29.1641 11.582 30.0859 11.2383C30.7031 11.0039 31.4648 10.8203 32.3711 10.6875C33.2773 10.5547 34.0977 10.4609 34.832 10.4062C34.8086 9.98438 34.6953 9.64062 34.4922 9.375C34.2969 9.10156 33.9609 8.89062 33.4844 8.74219C33.1719 8.64062 32.8242 8.57031 32.4414 8.53125C32.0664 8.48438 31.6172 8.46094 31.0938 8.46094C30.6172 8.46094 30.2109 8.46875 29.875 8.48438C29.5391 8.5 29.1758 8.51562 28.7852 8.53125L29.1016 5.91797C29.2578 5.91016 29.5078 5.90234 29.8516 5.89453C30.1953 5.87891 30.6797 5.87109 31.3047 5.87109C32.625 5.87109 33.7227 5.98438 34.5977 6.21094C35.4805 6.4375 36.2227 6.8125 36.8242 7.33594C37.3789 7.8125 37.7812 8.39453 38.0312 9.08203C38.2891 9.76172 38.418 10.6602 38.418 11.7773ZM35.0195 13.9336C35.0195 13.6836 35.0195 13.3945 35.0195 13.0664C35.0195 12.7305 35.0156 12.3789 35.0078 12.0117C34.7812 12.0195 34.3789 12.0664 33.8008 12.1523C33.2227 12.2305 32.707 12.3672 32.2539 12.5625C31.9414 12.6875 31.6523 12.8828 31.3867 13.1484C31.1289 13.4141 31 13.7422 31 14.1328C31 14.5703 31.1133 14.918 31.3398 15.1758C31.5742 15.4336 31.875 15.6328 32.2422 15.7734C32.5078 15.8672 32.8086 15.9375 33.1445 15.9844C33.4805 16.0312 33.8438 16.0547 34.2344 16.0547C34.3359 16.0547 34.4531 16.0547 34.5859 16.0547C34.7188 16.0469 34.8594 16.043 35.0078 16.043C35.0078 15.9414 35.0078 15.7031 35.0078 15.3281C35.0156 14.9531 35.0195 14.4883 35.0195 13.9336ZM51.5078 17.9648C51.1094 17.9648 50.2539 17.9648 48.9414 17.9648C47.6367 17.957 46.625 17.9531 45.9062 17.9531C45.0312 17.9531 44.0859 17.957 43.0703 17.9648C42.0547 17.9648 41.4453 17.9648 41.2422 17.9648L40.3984 16.3477C41.0625 15.4883 41.8984 14.4062 42.9062 13.1016C43.9219 11.7969 45.0469 10.3359 46.2812 8.71875L46.2695 8.69531C45.9727 8.69531 45.6562 8.69531 45.3203 8.69531C44.9844 8.69531 44.6641 8.69531 44.3594 8.69531C43.7812 8.69531 43.0781 8.69922 42.25 8.70703C41.4219 8.70703 40.9375 8.70703 40.7969 8.70703V6.10547C41.0312 6.10547 41.7227 6.10938 42.8711 6.11719C44.0273 6.11719 44.9414 6.11719 45.6133 6.11719C46.3242 6.11719 47.2109 6.11719 48.2734 6.11719C49.3438 6.10938 50.0547 6.10547 50.4062 6.10547L51.3203 7.61719C50.0703 9.17969 48.8398 10.7578 47.6289 12.3516C46.418 13.9375 45.6602 14.9297 45.3555 15.3281L45.3672 15.3516C45.625 15.3516 45.957 15.3516 46.3633 15.3516C46.7773 15.3516 47.2148 15.3516 47.6758 15.3516C48.8398 15.3516 49.7109 15.3477 50.2891 15.3398C50.8672 15.332 51.2734 15.3281 51.5078 15.3281V17.9648ZM65.5234 12.0352C65.5234 12.9414 65.3516 13.8086 65.0078 14.6367C64.6641 15.457 64.1523 16.1758 63.4727 16.793C62.9023 17.3086 62.2539 17.6953 61.5273 17.9531C60.8008 18.2031 60.0078 18.3281 59.1484 18.3281C58.3125 18.3281 57.5234 18.2031 56.7812 17.9531C56.0391 17.6953 55.3828 17.3125 54.8125 16.8047C54.1562 16.2188 53.6484 15.5078 53.2891 14.6719C52.9375 13.8359 52.7617 12.9492 52.7617 12.0117C52.7617 11.0898 52.9141 10.2539 53.2188 9.50391C53.5234 8.74609 53.9961 8.05859 54.6367 7.44141C55.2148 6.87891 55.8867 6.45312 56.6523 6.16406C57.4258 5.875 58.2539 5.73047 59.1367 5.73047C60.0273 5.73047 60.8438 5.86328 61.5859 6.12891C62.3281 6.39453 62.9961 6.80469 63.5898 7.35938C64.2383 7.97656 64.7227 8.67578 65.043 9.45703C65.3633 10.2305 65.5234 11.0898 65.5234 12.0352ZM61.9492 12.082C61.9492 11.5273 61.8633 10.9766 61.6914 10.4297C61.5273 9.88281 61.2578 9.42578 60.8828 9.05859C60.6641 8.83984 60.4023 8.67578 60.0977 8.56641C59.793 8.44922 59.4766 8.39062 59.1484 8.39062C58.7578 8.39062 58.418 8.45312 58.1289 8.57812C57.8477 8.69531 57.5742 8.89453 57.3086 9.17578C56.9961 9.49609 56.7539 9.91797 56.582 10.4414C56.418 10.9648 56.3359 11.4883 56.3359 12.0117C56.3359 12.6211 56.418 13.1836 56.582 13.6992C56.7539 14.207 57.0391 14.6484 57.4375 15.0234C57.6562 15.2422 57.9141 15.4062 58.2109 15.5156C58.5078 15.6172 58.8203 15.668 59.1484 15.668C59.4922 15.668 59.8203 15.6055 60.1328 15.4805C60.4531 15.3555 60.7266 15.1758 60.9531 14.9414C61.2734 14.5977 61.5195 14.1719 61.6914 13.6641C61.8633 13.1562 61.9492 12.6289 61.9492 12.082Z" fill="#E24E4D"/>
</svg>
