<svg width="34" height="29" viewBox="0 0 34 29" fill="none" xmlns="http://www.w3.org/2000/svg">
<path d="M10.3665 16.6214C10.5837 17.1889 10.9295 17.6984 11.3766 18.11C11.9589 18.6198 12.67 18.9601 13.4323 19.0935H27.8487C28.4932 19.0006 29.1033 18.7443 29.6209 18.3492C30.2064 17.8979 30.6419 17.2802 30.8703 16.5771L32.9703 5.7581C33.0595 5.56821 33.1058 5.36097 33.1058 5.15114C33.1058 4.94131 33.0595 4.73407 32.9703 4.54418C32.8819 4.36471 32.7577 4.20526 32.6053 4.07571C32.4529 3.94617 32.2755 3.84926 32.0842 3.79102H7.79688C8.77156 10.3568 9.77284 15.1682 10.3665 16.6214Z" fill="#D25853"/>
<path d="M8.09961 7.5918C9.08315 14.0513 10.0933 18.7829 10.6869 20.2095C10.9123 20.7842 11.2706 21.2974 11.7325 21.7069C12.3251 22.2081 13.041 22.5415 13.8059 22.6728C18.6528 22.6728 24.7401 22.6728 29.578 22.6728" stroke="#D25853" stroke-width="2" stroke-miterlimit="10"/>
<path d="M0 1H5.8658C6.20079 1.06096 6.50959 1.22153 6.75188 1.46075C7.01642 1.72775 7.17941 2.07877 7.21265 2.45316C7.51392 4.15442 7.82404 5.86453 8.09873 7.5658" stroke="#D25853" stroke-width="2" stroke-miterlimit="10"/>
<path d="M12.8401 28.9995C14.1908 28.9995 15.2857 27.9046 15.2857 26.554C15.2857 25.2033 14.1908 24.1084 12.8401 24.1084C11.4895 24.1084 10.3945 25.2033 10.3945 26.554C10.3945 27.9046 11.4895 28.9995 12.8401 28.9995Z" fill="#D25853"/>
<path d="M27.3889 28.9995C28.7396 28.9995 29.8345 27.9046 29.8345 26.554C29.8345 25.2033 28.7396 24.1084 27.3889 24.1084C26.0383 24.1084 24.9434 25.2033 24.9434 26.554C24.9434 27.9046 26.0383 28.9995 27.3889 28.9995Z" fill="#D25853"/>
</svg>
