<svg width="98" height="29" viewBox="0 0 98 29" fill="none" xmlns="http://www.w3.org/2000/svg">
<path d="M7.78906 21.707C7.78906 21.8242 7.78906 21.9297 7.78906 22.0234C7.8125 22.0938 7.83594 22.1992 7.85938 22.3398C7.90625 22.5039 7.91797 22.6211 7.89453 22.6914C7.89453 22.7383 7.89453 22.8086 7.89453 22.9023C7.94141 23.1367 7.95312 23.2656 7.92969 23.2891C7.92969 23.2891 7.92969 23.3008 7.92969 23.3242C7.92969 23.3711 7.92969 23.4414 7.92969 23.5352C7.95312 23.6055 7.96484 23.6758 7.96484 23.7461C7.98828 23.8164 7.98828 23.8984 7.96484 23.9922C7.96484 24.0625 7.97656 24.1328 8 24.2031C8 24.4141 8 24.5312 8 24.5547C8.02344 24.5547 8.03516 24.5664 8.03516 24.5898C8.03516 24.6602 8.02344 24.7305 8 24.8008C8 24.8477 8 24.9062 8 24.9766C8 25.0703 8.02344 25.2344 8.07031 25.4688C8.07031 25.5625 8.07031 25.6562 8.07031 25.75C8.07031 25.8438 8.08203 25.9375 8.10547 26.0312L8.17578 26.7344C8.22266 26.9453 8.23438 27.0742 8.21094 27.1211C8.21094 27.1445 8.22266 27.1797 8.24609 27.2266C8.24609 27.3203 8.25781 27.4023 8.28125 27.4727C8.32812 27.543 8.33984 27.6133 8.31641 27.6836C8.29297 27.7539 8.24609 27.8008 8.17578 27.8242C8.10547 27.8477 8.03516 27.8828 7.96484 27.9297C7.68359 28.0703 7.53125 28.1406 7.50781 28.1406C7.48438 28.1641 7.44922 28.1523 7.40234 28.1055C7.35547 28.1523 7.28516 28.1641 7.19141 28.1406C7.12109 28.1172 7.0625 28.1172 7.01562 28.1406C6.82812 28.1406 6.71094 28.1406 6.66406 28.1406C6.64062 28.1641 6.61719 28.1758 6.59375 28.1758C6.35938 28.1289 6.18359 28.1055 6.06641 28.1055C5.76172 28.082 5.53906 28.0938 5.39844 28.1406C5.14062 28.1172 4.98828 28.1055 4.94141 28.1055C4.91797 28.1289 4.88281 28.1406 4.83594 28.1406C4.74219 28.1406 4.63672 28.1289 4.51953 28.1055C4.42578 28.082 4.32031 28.0703 4.20312 28.0703C3.94531 28.0938 3.80469 28.1055 3.78125 28.1055C3.78125 28.1289 3.76953 28.1406 3.74609 28.1406C3.44141 28.1875 3.26562 28.2109 3.21875 28.2109C2.98438 28.1875 2.82031 28.1758 2.72656 28.1758C2.63281 28.1758 2.55078 28.1523 2.48047 28.1055C2.41016 28.082 2.32812 28.082 2.23438 28.1055C2.14062 28.1055 2.04688 28.1172 1.95312 28.1406C1.85938 28.1641 1.78906 28.1055 1.74219 27.9648C1.64844 27.7773 1.58984 27.6367 1.56641 27.543C1.56641 27.4492 1.57812 27.3438 1.60156 27.2266L1.63672 26.7344L1.67188 26.3477C1.69531 26.2539 1.71875 26.1719 1.74219 26.1016C1.76562 26.0312 1.77734 25.9492 1.77734 25.8555C1.80078 25.7617 1.80078 25.6914 1.77734 25.6445C1.77734 25.5742 1.77734 25.5039 1.77734 25.4336C1.77734 25.2695 1.78906 25.1055 1.8125 24.9414C1.83594 24.7773 1.84766 24.6016 1.84766 24.4141C1.84766 24.2969 1.83594 24.1914 1.8125 24.0977C1.8125 23.9805 1.8125 23.8633 1.8125 23.7461C1.83594 23.5117 1.83594 23.3359 1.8125 23.2188C1.8125 23.1016 1.8125 22.9844 1.8125 22.8672C1.8125 22.75 1.82422 22.6562 1.84766 22.5859C1.87109 22.5156 1.88281 22.4453 1.88281 22.375C1.88281 22.2812 1.87109 22.1992 1.84766 22.1289C1.84766 22.0352 1.84766 21.9414 1.84766 21.8477C1.84766 21.6836 1.84766 21.5547 1.84766 21.4609C1.87109 21.3438 1.87109 21.2383 1.84766 21.1445C1.77734 20.9102 1.76562 20.793 1.8125 20.793C1.85938 20.793 1.87109 20.7695 1.84766 20.7227C1.87109 20.5352 1.87109 20.3477 1.84766 20.1602C1.82422 19.9727 1.8125 19.7852 1.8125 19.5977C1.8125 19.4102 1.8125 19.2461 1.8125 19.1055C1.83594 18.9414 1.83594 18.7656 1.8125 18.5781C1.83594 18.3438 1.82422 18.1914 1.77734 18.1211C1.75391 18.0508 1.71875 17.9805 1.67188 17.9102C1.67188 17.793 1.67188 17.6875 1.67188 17.5938C1.69531 17.4766 1.70703 17.3477 1.70703 17.207C1.70703 17.043 1.71875 16.9258 1.74219 16.8555C1.76562 16.7852 1.77734 16.7031 1.77734 16.6094C1.77734 16.5156 1.75391 16.4102 1.70703 16.293C1.68359 16.1758 1.67188 16.0703 1.67188 15.9766C1.64844 15.7422 1.63672 15.5781 1.63672 15.4844C1.63672 15.3672 1.63672 15.25 1.63672 15.1328C1.63672 14.9219 1.64844 14.8164 1.67188 14.8164C1.69531 14.793 1.69531 14.7695 1.67188 14.7461C1.67188 14.6289 1.67188 14.4883 1.67188 14.3242C1.625 13.9961 1.60156 13.7734 1.60156 13.6562C1.625 13.5391 1.63672 13.4336 1.63672 13.3398C1.63672 13.1523 1.63672 13.0117 1.63672 12.918C1.66016 12.8242 1.64844 12.7305 1.60156 12.6367C1.60156 12.4961 1.58984 12.4141 1.56641 12.3906C1.56641 12.3438 1.56641 12.2852 1.56641 12.2148C1.56641 12.0039 1.57812 11.793 1.60156 11.582C1.625 11.3711 1.63672 11.1602 1.63672 10.9492C1.61328 10.7852 1.60156 10.6328 1.60156 10.4922C1.60156 10.3516 1.60156 10.1875 1.60156 10C1.60156 9.76562 1.58984 9.625 1.56641 9.57812C1.54297 9.53125 1.53125 9.48438 1.53125 9.4375C1.53125 9.22656 1.53125 9.07422 1.53125 8.98047C1.55469 8.88672 1.54297 8.81641 1.49609 8.76953C1.49609 8.46484 1.49609 8.3125 1.49609 8.3125C1.44922 8.10156 1.42578 7.9375 1.42578 7.82031C1.42578 7.70312 1.42578 7.59766 1.42578 7.50391C1.42578 7.38672 1.41406 7.26953 1.39062 7.15234C1.32031 6.80078 1.28516 6.56641 1.28516 6.44922C1.30859 6.30859 1.32031 6.16797 1.32031 6.02734C1.22656 5.76953 1.16797 5.59375 1.14453 5.5C1.14453 5.40625 1.12109 5.3125 1.07422 5.21875C1.02734 4.96094 1.01562 4.82031 1.03906 4.79688C1.0625 4.75 1.0625 4.70313 1.03906 4.65625C1.03906 4.51562 1.00391 4.375 0.933594 4.23438C0.980469 4.16406 0.980469 4.09375 0.933594 4.02344C0.910156 3.92969 0.898438 3.84766 0.898438 3.77734C0.898438 3.66016 0.898438 3.57813 0.898438 3.53125C0.921875 3.48437 0.910156 3.4375 0.863281 3.39062C0.816406 3.20312 0.792969 3.09766 0.792969 3.07422C0.816406 3.05078 0.828125 3.01563 0.828125 2.96875C0.828125 2.89844 0.816406 2.83984 0.792969 2.79297C0.792969 2.72266 0.804688 2.65234 0.828125 2.58203C0.875 2.46484 0.945312 2.33594 1.03906 2.19531C1.25 2.125 1.36719 2.07812 1.39062 2.05469C1.41406 2.00781 1.44922 1.98438 1.49609 1.98438H1.91797C2.01172 1.96094 2.09375 1.96094 2.16406 1.98438C2.23438 2.00781 2.30469 2.01953 2.375 2.01953C2.44531 2.01953 2.52734 2.01953 2.62109 2.01953C2.71484 2.01953 2.79688 2.01953 2.86719 2.01953C3.10156 2.06641 3.23047 2.08984 3.25391 2.08984C3.30078 2.06641 3.34766 2.05469 3.39453 2.05469C3.67578 2.125 3.85156 2.17188 3.92188 2.19531C3.99219 2.19531 4.07422 2.20703 4.16797 2.23047C4.35547 2.23047 4.48438 2.24219 4.55469 2.26562C4.64844 2.28906 4.74219 2.30078 4.83594 2.30078C4.92969 2.27734 5.01172 2.26562 5.08203 2.26562C5.17578 2.24219 5.28125 2.21875 5.39844 2.19531L5.78516 2.23047C6.01953 2.23047 6.13672 2.23047 6.13672 2.23047C6.16016 2.20703 6.19531 2.19531 6.24219 2.19531C6.35938 2.19531 6.46484 2.20703 6.55859 2.23047C6.65234 2.25391 6.75781 2.27734 6.875 2.30078C6.99219 2.30078 7.10938 2.28906 7.22656 2.26562C7.36719 2.24219 7.49609 2.23047 7.61328 2.23047C7.73047 2.23047 7.84766 2.24219 7.96484 2.26562C8.10547 2.28906 8.23438 2.30078 8.35156 2.30078H8.80859H9.23047C9.37109 2.30078 9.47656 2.3125 9.54688 2.33594C9.64062 2.33594 9.74609 2.34766 9.86328 2.37109C9.95703 2.37109 10.0391 2.37109 10.1094 2.37109C10.2031 2.37109 10.3086 2.38281 10.4258 2.40625C10.543 2.40625 10.6602 2.40625 10.7773 2.40625C10.8945 2.40625 11.0234 2.41797 11.1641 2.44141C11.4219 2.46484 11.5742 2.47656 11.6211 2.47656C11.6914 2.45313 11.7734 2.44141 11.8672 2.44141C12.0312 2.44141 12.1367 2.45313 12.1836 2.47656C12.2539 2.47656 12.3359 2.47656 12.4297 2.47656C12.7344 2.52344 12.8984 2.54688 12.9219 2.54688C12.9688 2.52344 13.0156 2.52344 13.0625 2.54688C13.1094 2.57031 13.1797 2.59375 13.2734 2.61719C13.3672 2.64062 13.4492 2.66406 13.5195 2.6875C13.5898 2.71094 13.6602 2.73438 13.7305 2.75781C13.8008 2.75781 13.8594 2.79297 13.9062 2.86328C14 2.81641 14.082 2.82812 14.1523 2.89844C14.2227 2.94531 14.3164 2.96875 14.4336 2.96875C14.4805 3.03906 14.5391 3.08594 14.6094 3.10938C14.7031 3.10938 14.7969 3.13281 14.8906 3.17969L15.3477 3.46094C15.6055 3.57813 15.7695 3.67188 15.8398 3.74219C15.9336 3.8125 16.0391 3.87109 16.1562 3.91797C16.3672 4.05859 16.4727 4.12891 16.4727 4.12891C16.4961 4.12891 16.5078 4.11719 16.5078 4.09375C16.7188 4.30469 16.8242 4.41016 16.8242 4.41016C16.9648 4.55078 17.0586 4.63281 17.1055 4.65625C17.1523 4.67969 17.1758 4.72656 17.1758 4.79688C17.2695 4.86719 17.3398 4.92578 17.3867 4.97266C17.457 5.01953 17.5039 5.06641 17.5273 5.11328C17.6211 5.16016 17.6914 5.23047 17.7383 5.32422C17.8086 5.39453 17.8906 5.46484 17.9844 5.53516L18.3008 5.78125C18.4414 6.03906 18.5234 6.20312 18.5469 6.27344C18.5938 6.32031 18.6172 6.36719 18.6172 6.41406C18.6641 6.46094 18.6992 6.51953 18.7227 6.58984C18.7461 6.66016 18.7812 6.73047 18.8281 6.80078C18.9688 7.15234 19.0742 7.39844 19.1445 7.53906C19.2383 7.65625 19.2852 7.73828 19.2852 7.78516C19.2852 7.83203 19.2969 7.87891 19.3203 7.92578C19.4141 8.08984 19.4609 8.18359 19.4609 8.20703C19.4609 8.23047 19.4727 8.26562 19.4961 8.3125C19.543 8.42969 19.6016 8.54687 19.6719 8.66406L19.8125 9.05078C19.8594 9.12109 19.8828 9.20312 19.8828 9.29688C19.9062 9.36719 19.9414 9.4375 19.9883 9.50781L20.1289 10.1406C20.1758 10.3516 20.1875 10.5039 20.1641 10.5977C20.1641 10.668 20.1875 10.7617 20.2344 10.8789C20.2578 11.1602 20.2695 11.3359 20.2695 11.4062C20.293 11.4531 20.293 11.5117 20.2695 11.582C20.2695 11.793 20.293 11.9453 20.3398 12.0391C20.293 12.1094 20.2695 12.2031 20.2695 12.3203C20.293 12.4375 20.3047 12.5547 20.3047 12.6719C20.3047 12.7656 20.293 12.8477 20.2695 12.918C20.2695 12.9883 20.2695 13.0469 20.2695 13.0938C20.2227 13.3516 20.2227 13.5273 20.2695 13.6211C20.2227 13.7383 20.1875 13.8789 20.1641 14.043C20.1641 14.207 20.1406 14.3477 20.0938 14.4648C20.0469 14.5352 20.0234 14.6172 20.0234 14.7109C20.0234 14.8047 20.0117 14.9102 19.9883 15.0273C19.8945 15.2852 19.8359 15.4141 19.8125 15.4141C19.8125 15.4141 19.8125 15.4258 19.8125 15.4492C19.6016 15.7305 19.4844 15.9297 19.4609 16.0469C19.4609 16.1406 19.4023 16.2109 19.2852 16.2578C19.2852 16.3281 19.2617 16.3984 19.2148 16.4688C19.168 16.5391 19.1211 16.5977 19.0742 16.6445C18.9805 16.8086 18.9336 16.9023 18.9336 16.9258C18.9336 16.9492 18.9219 16.9844 18.8984 17.0312C18.7344 17.1953 18.6406 17.2891 18.6172 17.3125C18.4297 17.5469 18.2891 17.7109 18.1953 17.8047L17.9492 18.1562L17.668 18.4727C17.3633 18.6602 17.1758 18.8008 17.1055 18.8945C16.9648 19.0117 16.8711 19.0938 16.8242 19.1406C16.8008 19.1641 16.7656 19.1992 16.7188 19.2461C16.5078 19.4336 16.3672 19.5391 16.2969 19.5625C16.25 19.5859 16.2148 19.6328 16.1914 19.7031C15.957 19.8203 15.8047 19.9023 15.7344 19.9492C15.6641 19.9961 15.6055 20.043 15.5586 20.0898C15.4648 20.0898 15.3828 20.1133 15.3125 20.1602C15.2656 20.1836 15.207 20.207 15.1367 20.2305C14.9492 20.2539 14.7969 20.3242 14.6797 20.4414C14.4453 20.5117 14.3047 20.5469 14.2578 20.5469C14.2109 20.5469 14.1641 20.5586 14.1172 20.582C13.9062 20.6758 13.7422 20.7461 13.625 20.793C13.5078 20.8164 13.4141 20.875 13.3438 20.9688C13.1328 20.9922 13.0039 21.0039 12.957 21.0039C12.9102 21.0039 12.8867 21.0273 12.8867 21.0742C12.6992 21.0742 12.5938 21.0742 12.5703 21.0742C12.5703 21.0508 12.5469 21.0391 12.5 21.0391C12.1953 21.0859 11.9727 21.1328 11.832 21.1797C11.7148 21.1797 11.5977 21.1797 11.4805 21.1797C11.3867 21.1562 11.3047 21.168 11.2344 21.2148C11 21.3086 10.8594 21.3555 10.8125 21.3555C10.7891 21.3555 10.7422 21.3672 10.6719 21.3906C10.3672 21.4375 10.1914 21.4609 10.1445 21.4609C10.0508 21.4609 9.96875 21.4844 9.89844 21.5312C9.82812 21.5547 9.75781 21.5547 9.6875 21.5312C9.5 21.5547 9.35938 21.5781 9.26562 21.6016C9.17188 21.625 9.10156 21.6484 9.05469 21.6719C8.96094 21.6484 8.80859 21.6484 8.59766 21.6719C8.38672 21.6953 8.22266 21.7305 8.10547 21.7773L7.78906 21.707ZM8.24609 17.875C8.64453 17.8281 8.87891 17.793 8.94922 17.7695L9.58203 17.6641C9.83984 17.5 9.96875 17.418 9.96875 17.418C10.1328 17.3477 10.2383 17.3125 10.2852 17.3125C10.3555 17.2891 10.4023 17.2656 10.4258 17.2422C10.6133 17.0547 10.7188 16.9492 10.7422 16.9258C10.7891 16.8789 10.8242 16.7969 10.8477 16.6797C11.1055 16.5625 11.2109 16.4922 11.1641 16.4688C11.1406 16.4453 11.1523 16.4219 11.1992 16.3984C11.4102 16.2109 11.5742 16.1055 11.6914 16.082C11.9023 15.8945 12.0078 15.7891 12.0078 15.7656C12.0312 15.7422 12.0664 15.707 12.1133 15.6602C12.3008 15.4492 12.4062 15.3438 12.4297 15.3438C12.4531 15.3203 12.4766 15.2969 12.5 15.2734C12.6875 15.0859 12.7812 14.9688 12.7812 14.9219C12.8281 14.8516 12.9219 14.7461 13.0625 14.6055C13.2969 14.4883 13.4258 14.4062 13.4492 14.3594C13.4961 14.2891 13.543 14.2305 13.5898 14.1836C13.8008 13.9727 13.918 13.8438 13.9414 13.7969C13.9883 13.7266 14.0234 13.668 14.0469 13.6211C14.1641 13.4102 14.2344 13.2812 14.2578 13.2344C14.3516 13.0938 14.3984 13 14.3984 12.9531C14.3984 12.8828 14.4102 12.8125 14.4336 12.7422C14.457 12.6719 14.4805 12.6133 14.5039 12.5664C14.5273 12.4961 14.5391 12.4258 14.5391 12.3555C14.5625 12.2383 14.5625 12.1328 14.5391 12.0391C14.5391 11.9219 14.5391 11.8047 14.5391 11.6875C14.5859 11.5 14.6094 11.3594 14.6094 11.2656C14.6094 11.1953 14.5977 11.125 14.5742 11.0547C14.5508 10.9844 14.5273 10.9258 14.5039 10.8789C14.4805 10.7617 14.457 10.6797 14.4336 10.6328C14.4102 10.5625 14.3984 10.4922 14.3984 10.4219C14.2578 10.1641 14.1758 10.0352 14.1523 10.0352C14.1289 10.0117 14.1172 9.97656 14.1172 9.92969L13.8711 9.57812C13.7305 9.39062 13.6484 9.27344 13.625 9.22656C13.6016 9.17969 13.5664 9.14453 13.5195 9.12109C13.4492 8.98047 13.4023 8.88672 13.3789 8.83984C13.3789 8.79297 13.3672 8.75781 13.3438 8.73438C13.1562 8.57031 13.0391 8.47656 12.9922 8.45312C12.875 8.24219 12.8047 8.125 12.7812 8.10156C12.6875 7.98437 12.6055 7.90234 12.5352 7.85547C12.4883 7.78516 12.4414 7.69141 12.3945 7.57422C12.2539 7.55078 12.1484 7.45703 12.0781 7.29297C11.9141 7.19922 11.8086 7.15234 11.7617 7.15234C11.7383 7.12891 11.7148 7.10547 11.6914 7.08203C11.5508 6.91797 11.4453 6.8125 11.375 6.76562C11.3047 6.71875 11.2578 6.66016 11.2344 6.58984C11.1406 6.58984 11.0703 6.55469 11.0234 6.48438C10.9766 6.41406 10.9297 6.39063 10.8828 6.41406L10.5312 6.09766C10.3203 5.95703 10.1914 5.88672 10.1445 5.88672C10.1211 5.88672 10.0859 5.875 10.0391 5.85156C9.73438 5.54688 9.39453 5.40625 9.01953 5.42969C8.66797 5.42969 8.375 5.39453 8.14062 5.32422C7.95312 5.44141 7.84766 5.51172 7.82422 5.53516C7.80078 5.53516 7.78906 5.54688 7.78906 5.57031C7.74219 5.71094 7.71875 5.82813 7.71875 5.92188C7.74219 5.99219 7.75391 6.07422 7.75391 6.16797C7.75391 6.42578 7.75391 6.58984 7.75391 6.66016C7.77734 6.73047 7.78906 6.80078 7.78906 6.87109C7.76562 7.15234 7.74219 7.31641 7.71875 7.36328C7.69531 7.38672 7.68359 7.42187 7.68359 7.46875C7.68359 7.75 7.69531 7.99609 7.71875 8.20703C7.74219 8.39453 7.73047 8.52344 7.68359 8.59375C7.68359 8.85156 7.68359 9.01562 7.68359 9.08594C7.70703 9.34375 7.70703 9.48438 7.68359 9.50781C7.68359 9.50781 7.68359 9.51953 7.68359 9.54297C7.70703 9.70703 7.69531 9.83594 7.64844 9.92969V10.8086C7.67188 10.9492 7.67188 11.1133 7.64844 11.3008C7.625 11.4883 7.60156 11.6758 7.57812 11.8633V12.4961C7.53125 12.8242 7.49609 13.082 7.47266 13.2695C7.44922 13.4336 7.46094 13.5742 7.50781 13.6914V14.1484C7.55469 14.4297 7.55469 14.6758 7.50781 14.8867C7.50781 15.0273 7.49609 15.1797 7.47266 15.3438C7.47266 15.4844 7.48438 15.625 7.50781 15.7656C7.50781 15.8828 7.51953 15.9883 7.54297 16.082C7.56641 16.1758 7.57812 16.2812 7.57812 16.3984V16.8555C7.60156 17.043 7.625 17.2188 7.64844 17.3828C7.67188 17.5469 7.67188 17.7227 7.64844 17.9102C7.76562 17.957 7.87109 17.9688 7.96484 17.9453C8.05859 17.9219 8.15234 17.8984 8.24609 17.875ZM28.1445 1.35156C28.1914 1.42188 28.2266 1.49219 28.25 1.5625C28.2969 1.63281 28.3438 1.70312 28.3906 1.77344C28.5312 2.07812 28.5664 2.41797 28.4961 2.79297C28.4727 2.88672 28.4492 2.99219 28.4258 3.10938C28.4023 3.20312 28.3906 3.30859 28.3906 3.42578C28.4141 3.61328 28.4258 3.73047 28.4258 3.77734C28.4258 3.80078 28.4141 3.82422 28.3906 3.84766C28.4375 3.98828 28.4375 4.11719 28.3906 4.23438C28.3672 4.35156 28.3672 4.46875 28.3906 4.58594C28.3906 4.70313 28.4141 4.83203 28.4609 4.97266C28.4609 5.30078 28.4492 5.58203 28.4258 5.81641C28.4258 6.02734 28.4141 6.22656 28.3906 6.41406C28.3672 6.46094 28.3555 6.51953 28.3555 6.58984C28.3555 6.66016 28.332 6.73047 28.2852 6.80078C28.3086 7.05859 28.3203 7.1875 28.3203 7.1875C28.3438 7.1875 28.3555 7.19922 28.3555 7.22266C28.3789 7.41016 28.3789 7.51563 28.3555 7.53906C28.3555 7.53906 28.3555 7.5625 28.3555 7.60938C28.3789 7.84375 28.3672 8.00781 28.3203 8.10156C28.2969 8.17188 28.2852 8.26562 28.2852 8.38281V9.36719C28.2852 9.48438 28.2852 9.61328 28.2852 9.75391C28.3086 9.87109 28.3086 10 28.2852 10.1406C28.2852 10.3516 28.2734 10.5039 28.25 10.5977C28.2266 10.668 28.2148 10.7266 28.2148 10.7734C28.2148 11.0312 28.2031 11.1953 28.1797 11.2656C28.1562 11.3359 28.1445 11.3945 28.1445 11.4414C28.1914 11.6758 28.2031 11.8281 28.1797 11.8984C28.1797 11.9688 28.1797 12.0391 28.1797 12.1094V12.5664C28.2031 12.7539 28.2031 12.8711 28.1797 12.918C28.1562 12.9414 28.1445 12.9766 28.1445 13.0234C28.168 13.2812 28.168 13.4922 28.1445 13.6562C28.1211 13.7969 28.1328 13.9258 28.1797 14.043L28.1094 14.4297C28.0625 14.7109 28.0273 14.9336 28.0039 15.0977C28.0039 15.2617 28.0391 15.4141 28.1094 15.5547C28.2969 15.4141 28.4375 15.3203 28.5312 15.2734C28.625 15.1328 28.6836 15.0508 28.707 15.0273C28.7539 15.0039 28.8008 14.9805 28.8477 14.957C28.9883 14.7695 29.0586 14.6758 29.0586 14.6758C29.082 14.6523 29.1055 14.6406 29.1289 14.6406C29.293 14.5 29.4219 14.3594 29.5156 14.2188C29.7266 14.0547 29.8555 13.9609 29.9023 13.9375C29.9492 13.9141 29.9961 13.8789 30.043 13.832C30.207 13.5977 30.3242 13.457 30.3945 13.4102C30.4883 13.3633 30.5586 13.3047 30.6055 13.2344C30.6523 13.1875 30.6875 13.1289 30.7109 13.0586C30.7344 12.9883 30.793 12.9414 30.8867 12.918C31.0508 12.6836 31.1797 12.5312 31.2734 12.4609C31.3672 12.3906 31.4375 12.2852 31.4844 12.1445C31.7188 11.9336 31.8594 11.793 31.9062 11.7227C31.9531 11.6289 32.0352 11.5586 32.1523 11.5117L32.6094 10.9844C32.6562 10.9375 32.6914 10.8906 32.7148 10.8438C32.7617 10.7969 32.8203 10.75 32.8906 10.7031C32.9844 10.5156 33.043 10.4102 33.0664 10.3867C33.1133 10.3398 33.1484 10.293 33.1719 10.2461C33.2891 10.0352 33.4297 9.85938 33.5938 9.71875C33.7109 9.55469 33.7695 9.47266 33.7695 9.47266C33.7695 9.44922 33.7812 9.41406 33.8047 9.36719C33.9453 9.20312 34.0273 9.09766 34.0508 9.05078C34.0977 9.00391 34.1211 8.95703 34.1211 8.91016C34.2617 8.65234 34.3438 8.53516 34.3672 8.55859C34.4141 8.58203 34.4492 8.58203 34.4727 8.55859C34.5664 8.34766 34.6836 8.18359 34.8242 8.06641C34.8477 7.94922 34.8828 7.85547 34.9297 7.78516C35 7.69141 35.0469 7.58594 35.0703 7.46875C35.1406 7.44531 35.1992 7.42187 35.2461 7.39844C35.293 7.35156 35.3633 7.30469 35.457 7.25781C35.7148 7.14062 35.9141 7.05859 36.0547 7.01172C36.2891 7.12891 36.4414 7.21094 36.5117 7.25781C36.582 7.30469 36.6758 7.35156 36.793 7.39844L37.1094 7.82031C37.2266 8.00781 37.3203 8.10156 37.3906 8.10156C37.4609 8.24219 37.5078 8.34766 37.5312 8.41797C37.5547 8.46484 37.5781 8.51172 37.6016 8.55859L37.8125 8.98047C37.8594 9.19141 37.9062 9.32031 37.9531 9.36719C38 9.39062 38.0234 9.4375 38.0234 9.50781C38.0938 9.625 38.1523 9.74219 38.1992 9.85938C38.2695 9.97656 38.3633 10.0703 38.4805 10.1406C38.6211 10.5859 38.7031 10.8906 38.7266 11.0547C38.7734 11.1953 38.7852 11.3945 38.7617 11.6523L38.4805 11.9336C38.4336 12.0039 38.375 12.0742 38.3047 12.1445C38.2344 12.1914 38.1758 12.2734 38.1289 12.3906L37.918 12.7422C37.8711 12.7891 37.8125 12.8359 37.7422 12.8828C37.6719 12.9297 37.6133 13 37.5664 13.0938C37.4961 13.1406 37.4258 13.1992 37.3555 13.2695C37.2852 13.3164 37.2031 13.3633 37.1094 13.4102C37.0391 13.457 36.957 13.5156 36.8633 13.5859C36.793 13.6328 36.7227 13.7031 36.6523 13.7969C36.582 13.8438 36.5117 13.9023 36.4414 13.9727C36.3711 14.0195 36.3008 14.0664 36.2305 14.1133C36.043 14.2773 35.9375 14.3828 35.9141 14.4297C35.8906 14.4531 35.8555 14.4648 35.8086 14.4648C35.6211 14.6523 35.4922 14.7812 35.4219 14.8516C35.3516 14.9219 35.2578 14.9805 35.1406 15.0273C35.0469 15.1445 34.9883 15.2383 34.9648 15.3086C34.9414 15.3555 34.9062 15.3906 34.8594 15.4141C34.6719 15.6016 34.543 15.7305 34.4727 15.8008C34.3555 15.9414 34.2617 16.0469 34.1914 16.1172C34.0742 16.2812 34.0039 16.375 33.9805 16.3984C33.957 16.3984 33.9219 16.4219 33.875 16.4688C33.6641 16.7266 33.5586 16.8555 33.5586 16.8555C33.3008 17.1133 33.1367 17.3125 33.0664 17.4531C32.9023 17.6641 32.8555 17.8047 32.9258 17.875C32.9961 17.9219 33.0664 17.9805 33.1367 18.0508C33.2305 18.2148 33.3008 18.3203 33.3477 18.3672C33.418 18.3906 33.4531 18.4258 33.4531 18.4727C33.6172 18.5664 33.7227 18.6367 33.7695 18.6836C33.8398 18.7305 33.8984 18.7773 33.9453 18.8242C34.0625 19.0586 34.1445 19.1992 34.1914 19.2461C34.2617 19.2695 34.3203 19.3047 34.3672 19.3516C34.4609 19.5859 34.543 19.7383 34.6133 19.8086C34.7305 19.9492 34.8008 20.0195 34.8242 20.0195C34.8477 20.0195 34.8711 20.043 34.8945 20.0898C35.0352 20.2305 35.1172 20.3359 35.1406 20.4062C35.1875 20.4531 35.2344 20.5 35.2812 20.5469C35.4219 20.6875 35.5039 20.7578 35.5273 20.7578C35.5508 20.7578 35.5625 20.7812 35.5625 20.8281C35.6328 20.875 35.6914 20.9453 35.7383 21.0391C35.7852 21.1094 35.832 21.1914 35.8789 21.2852C36.0195 21.4727 36.1016 21.5781 36.125 21.6016C36.1719 21.6016 36.2188 21.625 36.2656 21.6719C36.3828 21.8594 36.4531 21.9648 36.4766 21.9883C36.5234 21.9883 36.5586 22.0117 36.582 22.0586C36.8164 22.1992 36.9453 22.2695 36.9688 22.2695L37.25 22.6211C37.4844 22.7852 37.625 22.9258 37.6719 23.043C37.7422 23.1367 37.8242 23.207 37.918 23.2539C38.1289 23.3945 38.2578 23.4766 38.3047 23.5C38.375 23.5234 38.4336 23.5586 38.4805 23.6055C38.6211 23.6523 38.7148 23.6875 38.7617 23.7109C38.8086 23.7344 38.8555 23.7695 38.9023 23.8164C39.0898 24.0273 39.1953 24.1445 39.2188 24.168C39.2422 24.1914 39.2773 24.2266 39.3242 24.2734C39.4414 24.5312 39.5117 24.6719 39.5352 24.6953C39.5586 24.6953 39.5703 24.7188 39.5703 24.7656C39.4766 25.0469 39.4062 25.2109 39.3594 25.2578C39.3125 25.3047 39.3008 25.3633 39.3242 25.4336C39.1602 25.5039 39.043 25.6328 38.9727 25.8203C38.9258 26.0078 38.8438 26.1484 38.7266 26.2422C38.4922 26.5703 38.293 26.9336 38.1289 27.332C37.9648 27.4727 37.8711 27.5547 37.8477 27.5781C37.8477 27.6016 37.8242 27.625 37.7773 27.6484C37.6602 27.7422 37.5898 27.8242 37.5664 27.8945C37.543 27.9414 37.4961 27.9883 37.4258 28.0352C37.3555 28.1992 37.25 28.3516 37.1094 28.4922C37.0625 28.5156 37.0039 28.5391 36.9336 28.5625C36.8633 28.5859 36.7812 28.6094 36.6875 28.6328C36.6172 28.6328 36.5352 28.6211 36.4414 28.5977C36.3711 28.5742 36.3008 28.5508 36.2305 28.5273C36.1133 28.3398 36.0195 28.2227 35.9492 28.1758C35.8789 28.0586 35.8203 27.9883 35.7734 27.9648C35.75 27.918 35.7266 27.8711 35.7031 27.8242C35.6094 27.6836 35.5156 27.5664 35.4219 27.4727C35.3281 27.4258 35.2461 27.3438 35.1758 27.2266C35.1289 27.1094 35.0586 27.0273 34.9648 26.9805C34.918 26.8867 34.8594 26.8047 34.7891 26.7344C34.7422 26.6641 34.6953 26.5938 34.6484 26.5234C34.4844 26.2891 34.3906 26.1602 34.3672 26.1367C34.2734 26.0195 34.2031 25.9492 34.1562 25.9258C34.1328 25.9023 34.0977 25.8672 34.0508 25.8203C34.0039 25.7031 33.9336 25.5977 33.8398 25.5039C33.7695 25.4102 33.6992 25.3164 33.6289 25.2227C33.5117 25.0352 33.418 24.9062 33.3477 24.8359C33.2773 24.7656 33.1953 24.6953 33.1016 24.625C32.9844 24.4609 32.9023 24.3672 32.8555 24.3438C32.832 24.2969 32.7969 24.25 32.75 24.2031C32.6328 24.0156 32.5391 23.8867 32.4688 23.8164C32.4219 23.7461 32.3398 23.6875 32.2227 23.6406C32.1289 23.4531 32.0234 23.2891 31.9062 23.1484C31.8125 23.0078 31.6836 22.8906 31.5195 22.7969C31.4258 22.6328 31.3672 22.5391 31.3438 22.5156C31.3203 22.4688 31.2734 22.4336 31.2031 22.4102C31.0859 22.1992 31.0156 22.0938 30.9922 22.0938C30.9922 22.0938 30.9805 22.082 30.957 22.0586C30.8398 21.8945 30.7578 21.7891 30.7109 21.7422C30.6875 21.6953 30.6523 21.6484 30.6055 21.6016C30.3945 21.4844 30.2891 21.4141 30.2891 21.3906C30.2891 21.3672 30.2773 21.3438 30.2539 21.3203C29.9727 21.0859 29.8086 20.9688 29.7617 20.9688C29.6211 20.7344 29.5273 20.6055 29.4805 20.582C29.457 20.5352 29.4336 20.4766 29.4102 20.4062C29.2695 20.3828 29.1523 20.3594 29.0586 20.3359C28.9648 20.2891 28.8594 20.2656 28.7422 20.2656C28.6719 20.2891 28.6016 20.3359 28.5312 20.4062C28.4609 20.4531 28.3906 20.5 28.3203 20.5469C28.25 20.5938 28.1797 20.6406 28.1094 20.6875C28.0625 20.7344 28.0039 20.7812 27.9336 20.8281C27.9336 20.9453 27.9336 21.0977 27.9336 21.2852C27.9336 21.4492 27.9688 21.5898 28.0391 21.707C28.0391 21.8008 28.0273 21.8945 28.0039 21.9883C28.0039 22.082 28.0039 22.1875 28.0039 22.3047C28.0039 22.5156 28.0156 22.6445 28.0391 22.6914C28.0625 22.7383 28.0742 22.7852 28.0742 22.832C28.0273 23.1133 28.0039 23.2539 28.0039 23.2539C28.0273 23.2539 28.0391 23.2656 28.0391 23.2891C28.0156 23.4297 28.0156 23.5352 28.0391 23.6055C28.0625 23.6523 28.0742 23.7344 28.0742 23.8516C28.0977 24.1562 28.0977 24.332 28.0742 24.3789C28.0508 24.4258 28.0625 24.5078 28.1094 24.625C28.1562 24.7891 28.1797 24.9531 28.1797 25.1172C28.1562 25.2812 28.1562 25.3984 28.1797 25.4688C28.2031 25.5156 28.2266 25.5742 28.25 25.6445C28.25 25.7148 28.2383 25.7734 28.2148 25.8203C28.2148 25.8672 28.2266 25.9492 28.25 26.0664C28.25 26.1367 28.2617 26.2188 28.2852 26.3125C28.3086 26.3828 28.3203 26.4648 28.3203 26.5586C28.3203 26.8164 28.3203 26.9922 28.3203 27.0859C28.3438 27.1562 28.3203 27.2383 28.25 27.332C28.25 27.6367 28.1914 27.8242 28.0742 27.8945C27.8867 27.9648 27.7461 28.0117 27.6523 28.0352C27.582 28.0586 27.5234 28.0938 27.4766 28.1406C27.3828 28.0938 27.3008 28.082 27.2305 28.1055C27.1602 28.1523 27.0898 28.1875 27.0195 28.2109C26.9023 28.1875 26.7852 28.1641 26.668 28.1406C26.5508 28.1406 26.4219 28.1406 26.2812 28.1406C26.2344 28.1406 26.1641 28.1406 26.0703 28.1406C26 28.1641 25.9414 28.1523 25.8945 28.1055C25.6602 28.1758 25.5195 28.1992 25.4727 28.1758C25.4258 28.1758 25.3789 28.1758 25.332 28.1758C25.0508 28.1992 24.9102 28.2109 24.9102 28.2109C24.7227 28.1641 24.6055 28.1406 24.5586 28.1406C24.5352 28.1641 24.5117 28.1523 24.4883 28.1055C24.2305 28.1055 24.0781 28.1055 24.0312 28.1055C23.9844 28.1289 23.9258 28.1289 23.8555 28.1055C23.7852 28.082 23.7031 28.0586 23.6094 28.0352C23.5391 28.0352 23.4805 28.0117 23.4336 27.9648C23.1523 27.8008 23.0117 27.7305 23.0117 27.7539L22.9062 27.332C22.8359 27.168 22.8125 27.0742 22.8359 27.0508C22.8594 27.0039 22.8477 26.9688 22.8008 26.9453C22.8008 26.7344 22.8008 26.6172 22.8008 26.5938C22.8242 26.5703 22.8359 26.5352 22.8359 26.4883C22.8594 26.1836 22.8711 26.0078 22.8711 25.9609C22.8945 25.8906 22.8828 25.832 22.8359 25.7852L22.9766 25.3281C22.9531 25.1641 22.9531 25.0586 22.9766 25.0117C23.0234 24.9414 23.0469 24.8711 23.0469 24.8008C23 24.5898 22.9766 24.4727 22.9766 24.4492C23 24.4023 23.0117 24.3555 23.0117 24.3086C23.0117 24.0742 23.0234 23.9336 23.0469 23.8867C23.0703 23.8398 23.082 23.793 23.082 23.7461C23.0586 23.5586 23.0469 23.4531 23.0469 23.4297C23.0703 23.4062 23.082 23.3828 23.082 23.3594C23.0586 23.2188 23.0469 23.1367 23.0469 23.1133C23.0703 23.0664 23.082 23.0195 23.082 22.9727C23.082 22.9023 23.0703 22.8203 23.0469 22.7266C23.0469 22.6094 23.0469 22.5039 23.0469 22.4102C23.0469 22.1758 23.0469 22.0234 23.0469 21.9531C23.0703 21.8828 23.082 21.8008 23.082 21.707C23.0586 21.4961 23.0586 21.3672 23.082 21.3203C23.1055 21.2734 23.1172 21.2266 23.1172 21.1797C23.0938 20.8281 23.0938 20.6172 23.1172 20.5469C23.0938 20.2422 23.082 20.0547 23.082 19.9844C23.1055 19.8906 23.1172 19.7734 23.1172 19.6328C23.0938 19.375 23.082 19.2227 23.082 19.1758C23.1055 19.1289 23.1172 19.082 23.1172 19.0352C23.0469 18.6602 23 18.4375 22.9766 18.3672C22.9766 18.25 22.9648 18.1445 22.9414 18.0508C22.9414 17.9336 22.9531 17.8164 22.9766 17.6992C22.9766 17.4414 22.9648 17.2656 22.9414 17.1719C22.918 17.0781 22.918 16.9844 22.9414 16.8906C22.9883 16.6562 23 16.5391 22.9766 16.5391C22.9766 16.5391 22.9766 16.5273 22.9766 16.5039C22.9766 16.457 22.9766 16.3867 22.9766 16.293C23 16.1758 23.0117 16.0938 23.0117 16.0469C22.9648 15.7656 22.9414 15.6016 22.9414 15.5547C22.9648 15.5078 22.9531 15.4609 22.9062 15.4141C22.9062 15.1797 22.9062 15.0625 22.9062 15.0625C22.9297 15.0625 22.9414 15.0508 22.9414 15.0273C22.9414 14.793 22.9531 14.6406 22.9766 14.5703C23 14.4766 22.9883 14.3828 22.9414 14.2891C22.9883 14.0781 23.0117 13.8438 23.0117 13.5859L22.9766 13.1641C23 12.9531 23 12.8008 22.9766 12.707C22.9766 12.5898 22.9766 12.4727 22.9766 12.3555C22.9297 12.1211 22.9062 12.0039 22.9062 12.0039C22.9297 12.0039 22.9414 11.9922 22.9414 11.9688C22.9414 11.8516 22.9297 11.7695 22.9062 11.7227C22.9062 11.6523 22.918 11.5938 22.9414 11.5469C22.9883 11.3828 23 11.2773 22.9766 11.2305C22.9531 11.1602 22.9531 11.1016 22.9766 11.0547C22.9531 10.7969 22.9414 10.6211 22.9414 10.5273C22.918 10.4102 22.9062 10.2812 22.9062 10.1406C22.9062 9.97656 22.9062 9.83594 22.9062 9.71875C22.9062 9.60156 22.918 9.49609 22.9414 9.40234C22.9648 9.30859 22.9766 9.20312 22.9766 9.08594C23 8.80469 23 8.62891 22.9766 8.55859C22.9766 8.48828 22.9766 8.42969 22.9766 8.38281V6.87109C22.9531 6.61328 22.9531 6.48438 22.9766 6.48438C23 6.48438 23 6.46094 22.9766 6.41406C22.9297 6.22656 22.9062 6.09766 22.9062 6.02734C22.9297 5.95703 22.9297 5.88672 22.9062 5.81641C22.8828 5.58203 22.8594 5.44141 22.8359 5.39453C22.8125 5.32422 22.8008 5.26563 22.8008 5.21875C22.7773 5.10156 22.7656 4.98438 22.7656 4.86719C22.7891 4.75 22.8008 4.63281 22.8008 4.51562C22.7539 4.25781 22.7188 4.11719 22.6953 4.09375C22.6953 4.07031 22.6953 4.04687 22.6953 4.02344C22.6953 3.74219 22.6836 3.57813 22.6602 3.53125C22.6367 3.48437 22.625 3.4375 22.625 3.39062C22.6016 3.29688 22.5898 3.21484 22.5898 3.14453C22.6133 3.05078 22.625 2.96875 22.625 2.89844C22.5781 2.6875 22.5547 2.57031 22.5547 2.54688C22.5781 2.52344 22.5781 2.48828 22.5547 2.44141C22.5547 2.34766 22.543 2.28906 22.5195 2.26562C22.4961 2.21875 22.4961 2.13672 22.5195 2.01953C22.5664 1.83203 22.6133 1.71484 22.6602 1.66797C22.707 1.62109 22.7188 1.5625 22.6953 1.49219C22.8594 1.35156 23.0469 1.23437 23.2578 1.14062C23.4688 1.04688 23.7031 1.04688 23.9609 1.14062C24.1484 1.09375 24.2656 1.08203 24.3125 1.10547C24.3594 1.12891 24.418 1.14062 24.4883 1.14062C24.7695 1.09375 24.9336 1.05859 24.9805 1.03516C25.2383 0.964844 25.3672 0.953125 25.3672 1C25.3906 1.02344 25.4375 1.02344 25.5078 1C25.6953 1.04688 25.8125 1.07031 25.8594 1.07031C25.9062 1.07031 25.9414 1.07031 25.9648 1.07031C26.082 1.09375 26.1875 1.10547 26.2812 1.10547C26.375 1.08203 26.4688 1.08203 26.5625 1.10547C26.6328 1.12891 26.7031 1.16406 26.7734 1.21094C26.8438 1.23437 26.9375 1.22266 27.0547 1.17578C27.0547 1.22266 27.1016 1.25781 27.1953 1.28125C27.3125 1.30469 27.4062 1.29297 27.4766 1.24609C27.5703 1.29297 27.6758 1.31641 27.793 1.31641C27.9102 1.29297 28.0273 1.30469 28.1445 1.35156ZM58.9766 26.2773C58.8828 26.4648 58.8125 26.582 58.7656 26.6289C58.7188 26.6523 58.6953 26.6992 58.6953 26.7695C58.5781 26.8164 58.4727 26.8867 58.3789 26.9805C58.2852 27.0508 58.1797 27.1328 58.0625 27.2266C57.9453 27.2734 57.8398 27.332 57.7461 27.4023C57.6758 27.4492 57.6055 27.4961 57.5352 27.543C57.3242 27.5898 57.1602 27.6719 57.043 27.7891C56.9727 27.8125 56.9023 27.8477 56.832 27.8945C56.7852 27.918 56.7383 27.9531 56.6914 28C56.5039 28.0469 56.3867 28.082 56.3398 28.1055C56.293 28.1289 56.2461 28.1523 56.1992 28.1758L55.707 28.3164C55.543 28.4102 55.4141 28.4688 55.3203 28.4922C55.25 28.5156 55.1562 28.5156 55.0391 28.4922C54.7578 28.5156 54.6055 28.5273 54.582 28.5273C54.5586 28.5508 54.5234 28.5625 54.4766 28.5625C54.2656 28.4453 54.1367 28.3867 54.0898 28.3867C54.043 28.4102 53.9961 28.3984 53.9492 28.3516C53.8789 28.2812 53.8203 28.2109 53.7734 28.1406C53.7266 28.0703 53.668 28 53.5977 27.9297C53.5273 27.6953 53.4922 27.5664 53.4922 27.543C53.4219 27.2617 53.3398 27.0508 53.2461 26.9102C53.1992 26.582 53.1172 26.3242 53 26.1367L52.5781 26.2773C52.2031 26.418 51.9336 26.5586 51.7695 26.6992C51.6289 26.8164 51.5117 26.8984 51.418 26.9453C51.3008 26.9922 51.207 27.0156 51.1367 27.0156C51.0898 27.0156 51.043 27.0391 50.9961 27.0859C50.7148 27.25 50.5742 27.332 50.5742 27.332L50.1523 27.4727C49.8711 27.5664 49.707 27.625 49.6602 27.6484C49.6367 27.6484 49.6016 27.6602 49.5547 27.6836L49.168 27.8594C48.957 27.9062 48.8164 27.9648 48.7461 28.0352C48.6758 28.1055 48.5703 28.1406 48.4297 28.1406C48.2188 28.2109 48.0195 28.3047 47.832 28.4219C47.5742 28.5156 47.3633 28.5625 47.1992 28.5625C47.0586 28.5859 46.9062 28.6211 46.7422 28.668C46.4844 28.7617 46.3438 28.7969 46.3203 28.7734C46.2266 28.7734 46.1445 28.7852 46.0742 28.8086C46.0273 28.832 45.9688 28.8438 45.8984 28.8438C45.6875 28.8203 45.5352 28.8086 45.4414 28.8086C45.3711 28.832 45.3125 28.832 45.2656 28.8086C45.0078 28.7148 44.8438 28.668 44.7734 28.668C44.7266 28.668 44.6797 28.6562 44.6328 28.6328C44.5859 28.6094 44.5156 28.5742 44.4219 28.5273C44.3516 28.5039 44.293 28.4688 44.2461 28.4219C44.1289 28.4453 44.0234 28.4102 43.9297 28.3164C43.8594 28.2227 43.7891 28.1523 43.7188 28.1055C43.4844 27.9414 43.3555 27.8594 43.332 27.8594C43.3086 27.8359 43.2734 27.8008 43.2266 27.7539C43.0156 27.5898 42.8984 27.5078 42.875 27.5078C42.875 27.5078 42.8633 27.4961 42.8398 27.4727C42.6289 27.2383 42.5352 27.1094 42.5586 27.0859C42.4648 27.0391 42.3828 26.9805 42.3125 26.9102C42.2656 26.8398 42.207 26.7695 42.1367 26.6992C41.9961 26.582 41.9023 26.5 41.8555 26.4531C41.832 26.4062 41.7969 26.3711 41.75 26.3477C41.7266 26.207 41.6797 26.1016 41.6094 26.0312C41.5391 25.9609 41.457 25.8789 41.3633 25.7852C41.3164 25.668 41.2812 25.5742 41.2578 25.5039C41.2344 25.4102 41.1992 25.3164 41.1523 25.2227C41.082 25.0117 41.0234 24.8945 40.9766 24.8711C41 24.6133 41 24.4727 40.9766 24.4492C40.9531 24.4258 40.9414 24.3906 40.9414 24.3438C40.9414 24.25 40.9414 24.168 40.9414 24.0977C40.9648 24.0273 40.9648 23.957 40.9414 23.8867C40.8945 23.7227 40.8711 23.6055 40.8711 23.5352C40.8945 23.4648 40.9062 23.3945 40.9062 23.3242C40.8828 23.1836 40.8477 23.0312 40.8008 22.8672C40.7773 22.7031 40.7656 22.5508 40.7656 22.4102C40.7891 22.3398 40.8008 22.2812 40.8008 22.2344C40.8242 22.1641 40.8477 22.0938 40.8711 22.0234C40.8945 21.8828 40.8828 21.7422 40.8359 21.6016C40.8125 21.4609 40.8125 21.3203 40.8359 21.1797C40.8359 21.1094 40.8477 21.0508 40.8711 21.0039C40.918 20.9336 40.9414 20.8633 40.9414 20.793C40.918 20.6758 40.9062 20.582 40.9062 20.5117C40.9297 20.418 40.9531 20.3477 40.9766 20.3008C41.0234 20.1367 41.0586 20.0547 41.082 20.0547C41.1055 20.0312 41.1289 19.9961 41.1523 19.9492C41.2461 19.6914 41.3047 19.5508 41.3281 19.5273C41.4922 19.293 41.5859 19.1523 41.6094 19.1055C41.8438 18.8008 41.9844 18.6133 42.0312 18.543C42.1953 18.3789 42.3594 18.2969 42.5234 18.2969L42.8047 17.9453C43.0156 17.7812 43.1328 17.6992 43.1562 17.6992C43.3672 17.5586 43.4727 17.4883 43.4727 17.4883C43.4727 17.4648 43.4844 17.4414 43.5078 17.418C43.6953 17.3008 43.8008 17.2422 43.8242 17.2422C43.8711 17.2422 43.8945 17.2188 43.8945 17.1719C44.2227 17.0547 44.4219 16.9727 44.4922 16.9258C44.5625 16.8555 44.6445 16.8438 44.7383 16.8906C44.9492 16.6797 45.0781 16.5742 45.125 16.5742C45.1719 16.5742 45.2188 16.5625 45.2656 16.5391C45.4766 16.3984 45.582 16.3164 45.582 16.293C45.582 16.2695 45.5938 16.2578 45.6172 16.2578C45.6875 16.2109 45.7578 16.1875 45.8281 16.1875C45.9219 16.1641 46.0039 16.1172 46.0742 16.0469C46.2852 15.9531 46.4141 15.9062 46.4609 15.9062C46.5078 15.9062 46.5547 15.8828 46.6016 15.8359C46.8594 15.7656 47.0117 15.7188 47.0586 15.6953C47.1055 15.6484 47.1523 15.6016 47.1992 15.5547C47.457 15.4609 47.5977 15.4023 47.6211 15.3789C47.7617 15.3086 47.8438 15.2617 47.8672 15.2383C47.9141 15.1914 47.9609 15.1562 48.0078 15.1328C48.2188 15.0859 48.3359 15.0273 48.3594 14.957C48.5469 14.8867 48.6758 14.8164 48.7461 14.7461C48.8398 14.6523 48.9453 14.582 49.0625 14.5352C48.9453 14.2539 48.8398 14.0664 48.7461 13.9727C48.6992 13.8086 48.6758 13.7148 48.6758 13.6914C48.6992 13.668 48.6992 13.6328 48.6758 13.5859C48.6055 13.4688 48.4883 13.3984 48.3242 13.375C48.1836 13.2578 48.0781 13.1875 48.0078 13.1641C47.9609 13.1172 47.9375 13.1289 47.9375 13.1992C47.8906 13.1523 47.832 13.1406 47.7617 13.1641C47.6914 13.1641 47.6211 13.1641 47.5508 13.1641C47.2461 13.1641 47.0469 13.1641 46.9531 13.1641C46.8828 13.1641 46.8008 13.1523 46.707 13.1289C46.4961 13.1289 46.3789 13.1289 46.3555 13.1289C46.3555 13.1055 46.3438 13.0938 46.3203 13.0938L45.9336 13.1289C45.8164 13.1289 45.7227 13.1406 45.6523 13.1641C45.582 13.1641 45.4766 13.1641 45.3359 13.1641C45.0312 13.2109 44.8555 13.2227 44.8086 13.1992C44.7852 13.1758 44.7266 13.1758 44.6328 13.1992C44.3047 13.2695 44.1406 13.3164 44.1406 13.3398C44.0234 13.2695 43.8945 13.2578 43.7539 13.3047C43.6133 13.3516 43.4727 13.3867 43.332 13.4102C43.1914 13.4102 43.0742 13.4219 42.9805 13.4453C42.9102 13.4688 42.8516 13.4805 42.8047 13.4805L42.1367 13.5508C41.9727 13.457 41.8438 13.4102 41.75 13.4102C41.6094 13.2695 41.5156 13.1992 41.4688 13.1992C41.4453 13.1992 41.4336 13.1758 41.4336 13.1289C41.2695 12.9414 41.1641 12.8242 41.1172 12.7773C41.0703 12.7305 41.0352 12.6719 41.0117 12.6016C40.9414 12.4844 40.8828 12.4023 40.8359 12.3555C40.8125 12.2852 40.7891 12.2148 40.7656 12.1445C40.7188 11.8164 40.6836 11.6055 40.6602 11.5117C40.6367 11.3945 40.6367 11.2773 40.6602 11.1602C40.6602 11.043 40.6719 10.9023 40.6953 10.7383C40.7188 10.5742 40.6836 10.457 40.5898 10.3867C40.6367 10.1758 40.6484 10.0703 40.625 10.0703C40.6016 10.0703 40.5898 10.0469 40.5898 10C40.5664 9.67188 40.5312 9.4375 40.4844 9.29688C40.4609 9.15625 40.4609 9.02734 40.4844 8.91016C40.5312 8.76953 40.5898 8.64063 40.6602 8.52344C40.7539 8.40625 40.8242 8.28906 40.8711 8.17188C41.1055 8.00781 41.2227 7.9375 41.2227 7.96094C41.2461 7.96094 41.2812 7.94922 41.3281 7.92578C41.5625 7.87891 41.6797 7.85547 41.6797 7.85547C41.7031 7.83203 41.7266 7.82031 41.75 7.82031C41.9844 7.79688 42.3008 7.79688 42.6992 7.82031C43.0273 7.86719 43.2266 7.90234 43.2969 7.92578C43.3906 7.92578 43.4961 7.92578 43.6133 7.92578C43.8477 7.90234 44.0117 7.91406 44.1055 7.96094C44.293 8.00781 44.457 8.01953 44.5977 7.99609C44.7383 7.97266 44.8672 7.96094 44.9844 7.96094C45.1953 7.98437 45.3242 7.98437 45.3711 7.96094C45.4414 7.9375 45.5 7.92578 45.5469 7.92578C45.8516 7.94922 46.0273 7.94922 46.0742 7.92578C46.1211 7.90234 46.168 7.90234 46.2148 7.92578C46.3789 7.90234 46.4844 7.89062 46.5312 7.89062C46.6016 7.86719 46.6719 7.85547 46.7422 7.85547C46.8594 7.87891 46.9766 7.89062 47.0938 7.89062C47.2344 7.86719 47.3867 7.85547 47.5508 7.85547C47.9961 7.83203 48.3594 7.82031 48.6406 7.82031C48.9453 7.79688 49.2266 7.80859 49.4844 7.85547C49.7188 7.87891 49.8477 7.89062 49.8711 7.89062C50.082 7.91406 50.2344 7.94922 50.3281 7.99609C50.4219 8.04297 50.5391 8.04297 50.6797 7.99609C50.8203 8.13672 50.9844 8.18359 51.1719 8.13672C51.2891 8.23047 51.3828 8.28906 51.4531 8.3125C51.5234 8.33594 51.582 8.37109 51.6289 8.41797C51.8867 8.41797 52.0508 8.47656 52.1211 8.59375C52.3086 8.78125 52.4023 8.88672 52.4023 8.91016C52.4258 8.91016 52.4492 8.91016 52.4727 8.91016C52.5898 9.02734 52.6719 9.12109 52.7188 9.19141C52.7656 9.26172 52.8125 9.32031 52.8594 9.36719C53.0703 9.57812 53.1641 9.70703 53.1406 9.75391C53.1406 9.77734 53.1641 9.80078 53.2109 9.82422C53.3047 10.0352 53.4102 10.1523 53.5273 10.1758C53.6211 10.4336 53.6797 10.5859 53.7031 10.6328C53.75 10.6797 53.7852 10.7266 53.8086 10.7734C53.9492 11.1016 54.043 11.2773 54.0898 11.3008C54.0898 11.3945 54.0898 11.4766 54.0898 11.5469C54.0898 11.6172 54.1016 11.6758 54.125 11.7227C54.2188 11.9805 54.2656 12.168 54.2656 12.2852C54.3359 12.543 54.3945 12.7305 54.4414 12.8477C54.582 13.1289 54.6406 13.3047 54.6172 13.375C54.6172 13.4453 54.6289 13.5156 54.6523 13.5859C54.7227 13.7266 54.7578 13.832 54.7578 13.9023C54.7812 13.9492 54.8164 13.9961 54.8633 14.043L55.0039 14.4297C55.0742 14.6641 55.1094 14.8047 55.1094 14.8516C55.1094 14.8984 55.1211 14.9453 55.1445 14.9922C55.2852 15.2734 55.3555 15.4609 55.3555 15.5547C55.3555 15.6484 55.3672 15.7539 55.3906 15.8711C55.4844 16.1055 55.5195 16.2344 55.4961 16.2578C55.5195 16.5156 55.543 16.6914 55.5664 16.7852C55.5898 16.8789 55.625 16.9492 55.6719 16.9961C55.7891 17.3008 55.8359 17.5 55.8125 17.5938C55.8125 17.6641 55.8242 17.7461 55.8477 17.8398C55.8945 18.0273 55.9297 18.1797 55.9531 18.2969C56 18.4141 56.0234 18.5195 56.0234 18.6133C56.0469 18.707 56.082 18.8008 56.1289 18.8945C56.2461 19.1523 56.293 19.2812 56.2695 19.2812C56.2695 19.2812 56.2812 19.293 56.3047 19.3164C56.3516 19.3633 56.3867 19.4336 56.4102 19.5273C56.4336 19.5977 56.4688 19.6797 56.5156 19.7734C56.6094 20.0781 56.668 20.2656 56.6914 20.3359C56.8086 20.6172 56.8672 20.7578 56.8672 20.7578C56.9375 20.9453 57.0078 21.1445 57.0781 21.3555C57.1484 21.5664 57.2188 21.7656 57.2891 21.9531C57.3359 22.1172 57.3711 22.2227 57.3945 22.2695C57.4414 22.3164 57.4766 22.3633 57.5 22.4102C57.5469 22.5039 57.5703 22.6094 57.5703 22.7266C57.5938 22.8438 57.6289 22.9492 57.6758 23.043C57.6992 23.1133 57.7227 23.1836 57.7461 23.2539C57.793 23.3242 57.8398 23.4062 57.8867 23.5C57.9336 23.7344 57.9805 23.8984 58.0273 23.9922C58.0977 24.0625 58.1328 24.1562 58.1328 24.2734C58.2734 24.5547 58.3555 24.7188 58.3789 24.7656C58.4023 24.8125 58.4141 24.8828 58.4141 24.9766C58.4844 25.1172 58.5312 25.2227 58.5547 25.293C58.6016 25.3398 58.6484 25.3867 58.6953 25.4336C58.6953 25.6211 58.7422 25.7617 58.8359 25.8555C58.9297 25.9492 58.9766 26.0898 58.9766 26.2773ZM49.8711 18.4375C49.707 18.5781 49.5781 18.6484 49.4844 18.6484C49.4141 18.6484 49.3555 18.6602 49.3086 18.6836C49.0742 18.8008 48.9336 18.8594 48.8867 18.8594C48.8398 18.8594 48.793 18.8711 48.7461 18.8945C48.4414 19.082 48.2773 19.1875 48.2539 19.2109C48.1602 19.2812 48.0781 19.3398 48.0078 19.3867C47.9609 19.4102 47.9141 19.4453 47.8672 19.4922C47.75 19.5391 47.6328 19.5977 47.5156 19.668C47.4219 19.7148 47.3281 19.7852 47.2344 19.8789C47 19.9258 46.8242 20.0312 46.707 20.1953C46.5898 20.3359 46.4375 20.4648 46.25 20.582C46.1094 20.7695 46.0039 20.8867 45.9336 20.9336C45.8867 20.957 45.8516 20.9922 45.8281 21.0391C45.7109 21.2969 45.6406 21.4609 45.6172 21.5312C45.5703 21.6484 45.5352 21.7773 45.5117 21.918C45.5117 22.0352 45.5117 22.1758 45.5117 22.3398C45.5586 22.5273 45.5703 22.6445 45.5469 22.6914C45.5469 22.7148 45.5469 22.75 45.5469 22.7969C45.5938 22.8672 45.6172 22.9492 45.6172 23.043C45.6172 23.1133 45.6289 23.1836 45.6523 23.2539C45.7461 23.4883 45.8047 23.6172 45.8281 23.6406C45.875 23.6641 45.9102 23.6992 45.9336 23.7461C46.1211 23.8398 46.2148 23.9102 46.2148 23.957C46.2383 23.9805 46.2734 23.9922 46.3203 23.9922C46.3672 24.0156 46.4258 24.0273 46.4961 24.0273C46.5664 24.0273 46.6367 24.0391 46.707 24.0625C47.0352 24.1328 47.2578 24.1562 47.375 24.1328C47.5156 24.0859 47.6445 24.0625 47.7617 24.0625C47.8086 24.0391 47.8555 24.0156 47.9023 23.9922C47.9727 23.9688 48.0547 23.957 48.1484 23.957C48.1953 23.9102 48.2539 23.8867 48.3242 23.8867C48.418 23.8633 48.5 23.8281 48.5703 23.7812C48.6641 23.7344 48.7578 23.6992 48.8516 23.6758C48.9688 23.6523 49.0859 23.6172 49.2031 23.5703C49.4375 23.4531 49.5781 23.3828 49.625 23.3594C49.6953 23.3359 49.7539 23.3242 49.8008 23.3242C49.9414 23.207 50.0234 23.1367 50.0469 23.1133C50.0938 23.0898 50.1406 23.0664 50.1875 23.043L50.5391 22.7969C50.7734 22.6328 50.9023 22.5625 50.9258 22.5859C50.9492 22.5859 50.9727 22.5625 50.9961 22.5156C51.2305 22.4453 51.3594 22.3984 51.3828 22.375C51.4062 22.3516 51.4414 22.3164 51.4883 22.2695C51.6055 22.0352 51.6172 21.8711 51.5234 21.7773C51.5 21.5898 51.4648 21.4258 51.418 21.2852C51.3711 21.168 51.3242 21.0625 51.2773 20.9688C51.2305 20.8516 51.207 20.7344 51.207 20.6172C51.0898 20.3359 51.0078 20.1602 50.9609 20.0898C50.9375 20.0195 50.9375 19.9609 50.9609 19.9141C50.9141 19.7031 50.8789 19.5742 50.8555 19.5273C50.8555 19.457 50.8438 19.3984 50.8203 19.3516C50.7266 19.0703 50.668 18.9062 50.6445 18.8594C50.6211 18.8125 50.6094 18.7539 50.6094 18.6836C50.5156 18.543 50.457 18.4492 50.4336 18.4023C50.4336 18.3555 50.4102 18.332 50.3633 18.332C50.2461 18.3086 50.1641 18.3203 50.1172 18.3672C50.0703 18.4141 49.9883 18.4375 49.8711 18.4375ZM61.4375 7.60938C61.9531 7.5625 62.3867 7.62109 62.7383 7.78516C63.043 7.80859 63.3125 7.80859 63.5469 7.78516C63.7578 7.78516 63.8867 7.79688 63.9336 7.82031C64.0039 7.84375 64.0625 7.85547 64.1094 7.85547C64.4375 7.83203 64.6953 7.83203 64.8828 7.85547C65.0938 7.85547 65.3047 7.86719 65.5156 7.89062C65.6797 7.91406 65.7734 7.92578 65.7969 7.92578C65.8203 7.90234 65.8555 7.89062 65.9023 7.89062C65.9727 7.89062 66.043 7.90234 66.1133 7.92578C66.1836 7.94922 66.2773 7.96094 66.3945 7.96094C66.6055 7.98437 66.7812 7.96094 66.9219 7.89062C67.1797 7.86719 67.3672 7.86719 67.4844 7.89062C67.6016 7.89062 67.7188 7.89062 67.8359 7.89062C67.9531 7.89062 68.0703 7.89062 68.1875 7.89062C68.3047 7.86719 68.4219 7.85547 68.5391 7.85547C68.6562 7.85547 68.7617 7.86719 68.8555 7.89062C68.9727 7.89062 69.0898 7.90234 69.207 7.92578C69.2773 7.87891 69.3594 7.85547 69.4531 7.85547C69.5469 7.85547 69.6523 7.85547 69.7695 7.85547H70.3672C70.6484 7.90234 70.8125 7.91406 70.8594 7.89062C70.9297 7.86719 70.9883 7.85547 71.0352 7.85547L72.0195 7.82031C72.1367 7.82031 72.2305 7.82031 72.3008 7.82031C72.3945 7.79688 72.5352 7.78516 72.7227 7.78516C72.8164 7.78516 72.9219 7.77344 73.0391 7.75C73.1562 7.72656 73.2734 7.73828 73.3906 7.78516C73.7188 7.80859 73.918 7.82031 73.9883 7.82031C74.0586 7.79688 74.1172 7.79688 74.1641 7.82031C74.4219 7.9375 74.5742 7.99609 74.6211 7.99609C74.668 7.99609 74.7031 8.01953 74.7266 8.06641C74.7734 8.08984 74.7969 8.14844 74.7969 8.24219C74.8203 8.3125 74.8555 8.38281 74.9023 8.45312C74.9727 8.6875 75.0195 8.81641 75.043 8.83984C75.0664 8.93359 75.0781 9.01562 75.0781 9.08594C75.1016 9.15625 75.1133 9.23828 75.1133 9.33203C75.1133 9.54297 75.1016 9.68359 75.0781 9.75391C75.0781 9.82422 75.1016 9.88281 75.1484 9.92969C75.0781 10.1406 75.0547 10.2578 75.0781 10.2812C75.1016 10.2812 75.1133 10.3047 75.1133 10.3516L75.0781 11.0898C75.0547 11.4414 75.0664 11.6523 75.1133 11.7227C75.1602 11.793 75.1836 11.875 75.1836 11.9688C75.1836 12.0391 75.1602 12.1094 75.1133 12.1797C75.0898 12.2266 75.0898 12.3086 75.1133 12.4258L75.1484 13.0234C75.1016 13.2578 75.0664 13.3984 75.043 13.4453C75.0195 13.4922 74.9844 13.5391 74.9375 13.5859C74.9141 13.6562 74.9023 13.7266 74.9023 13.7969C74.9023 13.8672 74.8672 13.9258 74.7969 13.9727C74.6328 14.1836 74.5508 14.3125 74.5508 14.3594C74.5508 14.4062 74.5273 14.4531 74.4805 14.5L73.9883 15.0625L73.707 15.3789C73.4961 15.543 73.3906 15.625 73.3906 15.625C73.25 15.7422 73.1562 15.8125 73.1094 15.8359C73.0859 15.8594 73.0508 15.8945 73.0039 15.9414C72.8164 16.1289 72.6523 16.2695 72.5117 16.3633C72.3242 16.457 72.2188 16.5273 72.1953 16.5742C72.1953 16.5977 72.1719 16.6094 72.125 16.6094C72.0312 16.6094 71.9727 16.6562 71.9492 16.75C71.9258 16.8438 71.8672 16.8789 71.7734 16.8555C71.6328 16.9961 71.5625 17.0781 71.5625 17.1016C71.5625 17.125 71.5391 17.1484 71.4922 17.1719C71.2578 17.3125 71.0938 17.4297 71 17.5234C70.9531 17.5703 70.9062 17.6289 70.8594 17.6992C70.8125 17.7461 70.7656 17.793 70.7188 17.8398C70.5078 18.0273 70.3555 18.1562 70.2617 18.2266C70.0742 18.3906 69.957 18.5195 69.9102 18.6133C69.793 18.7539 69.6758 18.8242 69.5586 18.8242C69.3477 18.9883 69.2305 19.0938 69.207 19.1406C69.207 19.1641 69.1836 19.1875 69.1367 19.2109L68.8203 19.457C68.6328 19.6211 68.5039 19.7266 68.4336 19.7734C68.3867 19.7969 68.3398 19.832 68.293 19.8789C68.1992 19.9258 68.1055 19.9844 68.0117 20.0547C67.9414 20.1016 67.8828 20.1602 67.8359 20.2305C67.7656 20.2539 67.6953 20.3008 67.625 20.3711C67.5781 20.418 67.5312 20.4648 67.4844 20.5117C67.2734 20.7227 67.1094 20.8516 66.9922 20.8984C66.875 21.0625 66.8047 21.1562 66.7812 21.1797C66.7578 21.2031 66.7461 21.25 66.7461 21.3203C66.6289 21.3672 66.5352 21.4258 66.4648 21.4961C66.3945 21.543 66.3242 21.5898 66.2539 21.6367C66.1133 21.8008 66.0195 21.9062 65.9727 21.9531C65.9492 21.9766 65.9258 22.0117 65.9023 22.0586C65.7617 22.3164 65.6797 22.457 65.6562 22.4805C65.6562 22.5039 65.6445 22.5508 65.6211 22.6211C65.6914 22.8789 65.75 23.0078 65.7969 23.0078C65.8672 22.9844 65.9492 22.9961 66.043 23.043C66.3477 23.1133 66.5234 23.1367 66.5703 23.1133C66.6406 23.0898 66.7227 23.0898 66.8164 23.1133C67.0742 23.1602 67.2734 23.1719 67.4141 23.1484C67.5781 23.125 67.7188 23.1133 67.8359 23.1133C67.9062 23.0898 67.9648 23.0898 68.0117 23.1133C68.082 23.1133 68.1641 23.1133 68.2578 23.1133C68.3281 23.1133 68.3984 23.1133 68.4688 23.1133C68.5625 23.0898 68.6445 23.0898 68.7148 23.1133C68.7852 23.1133 68.8555 23.125 68.9258 23.1484C68.9961 23.1719 69.0781 23.1836 69.1719 23.1836C69.3125 23.207 69.4531 23.207 69.5938 23.1836C69.7578 23.1602 69.8984 23.1367 70.0156 23.1133C70.3672 23.1602 70.6133 23.1719 70.7539 23.1484C70.918 23.1016 71.1055 23.0781 71.3164 23.0781C71.4102 23.0547 71.5039 23.0547 71.5977 23.0781C71.7148 23.0781 71.7969 23.0781 71.8438 23.0781C71.9609 23.0781 72.0781 23.0547 72.1953 23.0078C72.3125 22.9609 72.418 22.9492 72.5117 22.9727C72.8164 22.9258 73.0273 22.8789 73.1445 22.832C73.2617 22.7617 73.3789 22.7031 73.4961 22.6562C73.6836 22.6094 73.8125 22.5977 73.8828 22.6211C73.9766 22.6211 74.0352 22.5742 74.0586 22.4805C74.1758 22.5273 74.3281 22.5273 74.5156 22.4805C74.75 22.3633 74.9258 22.3047 75.043 22.3047C75.3711 22.3984 75.5586 22.5039 75.6055 22.6211C75.6289 22.668 75.6289 22.75 75.6055 22.8672C75.6055 22.9609 75.6172 23.0547 75.6406 23.1484C75.5938 23.2188 75.5703 23.3242 75.5703 23.4648C75.5703 23.6055 75.5586 23.7344 75.5352 23.8516C75.5352 24.0156 75.5117 24.1562 75.4648 24.2734C75.4414 24.3672 75.418 24.4609 75.3945 24.5547C75.4414 24.7891 75.4414 24.9062 75.3945 24.9062C75.3477 24.9062 75.3359 24.9297 75.3594 24.9766C75.2891 25.1641 75.207 25.3047 75.1133 25.3984C75.1133 25.4688 75.1016 25.5391 75.0781 25.6094C75.0781 25.6797 75.0664 25.7617 75.043 25.8555L74.9727 26.2422C74.9258 26.3828 74.9023 26.4883 74.9023 26.5586C74.9023 26.6055 74.8906 26.6523 74.8672 26.6992C74.7734 26.9805 74.7266 27.168 74.7266 27.2617C74.7266 27.332 74.7148 27.4258 74.6914 27.543C74.6445 27.707 74.6094 27.8008 74.5859 27.8242C74.5625 27.8242 74.5391 27.8477 74.5156 27.8945C74.3984 28.0117 74.3164 28.082 74.2695 28.1055C74.2227 28.1289 74.1758 28.1172 74.1289 28.0703C73.9414 28.1172 73.8125 28.1523 73.7422 28.1758C73.6953 28.1992 73.6484 28.1992 73.6016 28.1758C73.4844 28.1055 73.3203 28.082 73.1094 28.1055L72.6523 28.0703C72.5352 28.0703 72.4062 28.0703 72.2656 28.0703C72.125 28.0938 71.9961 28.0938 71.8789 28.0703C71.8086 28.0469 71.7266 28.0234 71.6328 28C71.5625 27.9531 71.4688 27.9297 71.3516 27.9297C71.2344 27.9297 71.1289 27.9414 71.0352 27.9648C70.9414 27.9883 70.8711 28 70.8242 28C70.7539 28.0234 70.6836 28.0234 70.6133 28C70.543 28 70.4727 28 70.4023 28C70.2148 28 70.0156 28.0117 69.8047 28.0352C69.6172 28.082 69.4297 28.1055 69.2422 28.1055C68.8438 28.1055 68.5625 28.1055 68.3984 28.1055C68.2344 28.1289 68.0938 28.1523 67.9766 28.1758C67.7422 28.1992 67.625 28.1992 67.625 28.1758C67.625 28.1523 67.6016 28.1406 67.5547 28.1406C67.3672 28.1875 67.1914 28.1875 67.0273 28.1406C66.8633 28.1172 66.6875 28.1406 66.5 28.2109C66.4297 28.1641 66.3594 28.1406 66.2891 28.1406C66.2188 28.1641 66.125 28.1758 66.0078 28.1758C65.9609 28.1758 65.9023 28.1641 65.832 28.1406C65.7852 28.1406 65.7148 28.1523 65.6211 28.1758C65.3398 28.1758 65.1875 28.1875 65.1641 28.2109C65.1641 28.2344 65.1406 28.2344 65.0938 28.2109C65.0469 28.2109 64.9766 28.2109 64.8828 28.2109C64.8125 28.2344 64.7539 28.2461 64.707 28.2461C64.543 28.2461 64.4258 28.2578 64.3555 28.2812C64.2852 28.3047 64.2031 28.3281 64.1094 28.3516C63.8047 28.3281 63.5938 28.3047 63.4766 28.2812C63.3594 28.2578 63.2422 28.2461 63.125 28.2461C63.0078 28.2461 62.9023 28.2578 62.8086 28.2812C62.7383 28.3047 62.6328 28.3164 62.4922 28.3164C62.2812 28.293 62.1406 28.2812 62.0703 28.2812C61.9531 28.2812 61.8477 28.2812 61.7539 28.2812C61.6602 28.3047 61.5664 28.2812 61.4727 28.2109C61.2852 28.3047 61.1328 28.3047 61.0156 28.2109C60.9219 28.1406 60.8047 28.0469 60.6641 27.9297C60.5 27.7891 60.418 27.707 60.418 27.6836C60.4414 27.6602 60.4414 27.6367 60.418 27.6133C60.3008 27.4492 60.2305 27.332 60.207 27.2617C60.1836 27.1914 60.1602 27.1328 60.1367 27.0859C60.1133 26.9219 60.0781 26.793 60.0312 26.6992V26.1016C60.0312 25.8906 60.0312 25.7617 60.0312 25.7148C60.0547 25.6445 60.0664 25.5859 60.0664 25.5391C60.0898 25.3281 60.0781 25.1172 60.0312 24.9062C60.0312 24.6719 59.9961 24.4844 59.9258 24.3438C59.8789 24.2031 59.8555 24.0859 59.8555 23.9922C59.8555 23.875 59.8672 23.7578 59.8906 23.6406C59.9375 23.5234 59.9492 23.4062 59.9258 23.2891C59.8555 23.0312 59.8203 22.8789 59.8203 22.832C59.8438 22.7852 59.832 22.7266 59.7852 22.6562C59.832 22.5859 59.8555 22.5039 59.8555 22.4102C59.8555 22.3164 59.8672 22.2227 59.8906 22.1289C59.9375 22.0586 59.9844 22 60.0312 21.9531C60.0781 21.8828 60.1016 21.8008 60.1016 21.707C60.1719 21.6602 60.2305 21.6016 60.2773 21.5312C60.3242 21.4609 60.3711 21.3906 60.418 21.3203C60.6055 21.0625 60.7109 20.9219 60.7344 20.8984C60.7812 20.875 60.8281 20.8398 60.875 20.793C61.0156 20.6758 61.0859 20.6055 61.0859 20.582C61.1094 20.5352 61.1445 20.4883 61.1914 20.4414C61.4023 20.2773 61.5312 20.1719 61.5781 20.125C61.625 20.0547 61.6836 19.9961 61.7539 19.9492C61.8008 19.8789 61.8477 19.832 61.8945 19.8086C61.9648 19.7617 62.0117 19.6797 62.0352 19.5625C62.2461 19.3984 62.3633 19.3164 62.3867 19.3164C62.4102 19.3164 62.4453 19.293 62.4922 19.2461L63.0195 18.8594C63.0664 18.8125 63.125 18.7656 63.1953 18.7188C63.2656 18.6719 63.3242 18.625 63.3711 18.5781C63.418 18.5312 63.4648 18.4844 63.5117 18.4375C63.582 18.3672 63.6289 18.2969 63.6523 18.2266C63.7461 18.2031 63.8047 18.168 63.8281 18.1211C63.875 18.0742 63.9219 18.0273 63.9688 17.9805C64.1328 17.8164 64.2266 17.7227 64.25 17.6992C64.4844 17.4883 64.625 17.3594 64.6719 17.3125C64.7422 17.2422 64.8008 17.1602 64.8477 17.0664C64.9648 17.0195 65.0469 16.9492 65.0938 16.8555C65.1641 16.7617 65.2695 16.6914 65.4102 16.6445C65.457 16.5742 65.5039 16.5273 65.5508 16.5039C65.6211 16.457 65.6797 16.3984 65.7266 16.3281C65.8672 16.1406 65.9492 16.0352 65.9727 16.0117C66.0195 15.9648 66.0664 15.918 66.1133 15.8711C66.1602 15.8242 66.207 15.7773 66.2539 15.7305C66.3242 15.6836 66.3828 15.6367 66.4297 15.5898C66.6641 15.4492 66.8281 15.3203 66.9219 15.2031C67.0391 15.0625 67.1562 14.9336 67.2734 14.8164C67.4609 14.7227 67.5781 14.6523 67.625 14.6055C67.7656 14.3711 67.8828 14.2305 67.9766 14.1836C68.0938 14.0664 68.1875 13.9727 68.2578 13.9023C68.3516 13.7852 68.4453 13.7031 68.5391 13.6562C68.6562 13.6094 68.7383 13.5273 68.7852 13.4102C68.668 13.293 68.5273 13.2344 68.3633 13.2344C68.1289 13.2812 67.9883 13.3047 67.9414 13.3047C67.8945 13.2812 67.8477 13.2695 67.8008 13.2695C67.7305 13.2695 67.6602 13.2812 67.5898 13.3047C67.5195 13.3047 67.4492 13.3047 67.3789 13.3047C67.0977 13.3281 66.8984 13.3398 66.7812 13.3398C66.6641 13.3164 66.5703 13.3047 66.5 13.3047C66.4297 13.3047 66.3594 13.3164 66.2891 13.3398C66.2188 13.3398 66.1484 13.3398 66.0781 13.3398H65.6914C65.4336 13.3867 65.293 13.4102 65.2695 13.4102C65.2461 13.3867 65.2109 13.375 65.1641 13.375C64.9297 13.4453 64.8008 13.4688 64.7773 13.4453C64.7539 13.4219 64.7305 13.4336 64.707 13.4805C64.4492 13.457 64.2852 13.457 64.2148 13.4805C64.168 13.5039 64.1094 13.5156 64.0391 13.5156C63.9922 13.5391 63.9336 13.5508 63.8633 13.5508C63.793 13.5273 63.7227 13.5156 63.6523 13.5156C63.582 13.5391 63.5117 13.5508 63.4414 13.5508C63.3945 13.5273 63.3359 13.5273 63.2656 13.5508C62.9609 13.6445 62.7266 13.7031 62.5625 13.7266C62.4219 13.7266 62.293 13.75 62.1758 13.7969C61.8242 13.8438 61.5898 13.9023 61.4727 13.9727C61.3789 14.0195 61.25 14.0312 61.0859 14.0078H60.6641C60.5469 14.0078 60.4414 13.9961 60.3477 13.9727C60.2539 13.9492 60.1484 13.9492 60.0312 13.9727C59.8203 13.7852 59.7148 13.6797 59.7148 13.6562C59.5742 13.4219 59.4922 13.2461 59.4688 13.1289C59.4688 12.9883 59.4219 12.8711 59.3281 12.7773C59.2812 12.5195 59.2461 12.3555 59.2227 12.2852C59.1758 12.0039 59.1523 11.8047 59.1523 11.6875C59.1992 11.3828 59.1992 11.2188 59.1523 11.1953C59.1289 11.1484 59.0938 11.1016 59.0469 11.0547C59.0703 10.8906 59.0703 10.7969 59.0469 10.7734C59.0469 10.75 59.0469 10.7148 59.0469 10.668C59.0703 10.4336 59.0703 10.293 59.0469 10.2461C59.0234 10.1758 59 10.0938 58.9766 10C58.9531 9.90625 58.9531 9.83594 58.9766 9.78906C59 9.74219 59.0117 9.67188 59.0117 9.57812C59.0352 9.50781 59.0352 9.44922 59.0117 9.40234C59.0117 9.33203 59.0234 9.26172 59.0469 9.19141C59.1875 8.83984 59.2578 8.55859 59.2578 8.34766C59.3047 8.27734 59.3516 8.23047 59.3984 8.20703C59.4688 8.16016 59.5156 8.10156 59.5391 8.03125C59.8203 7.98437 60.1133 7.90234 60.418 7.78516C60.7227 7.66797 61.0039 7.63281 61.2617 7.67969L61.4375 7.60938ZM87.1016 7.08203C87.2188 7.08203 87.3008 7.09375 87.3477 7.11719C87.3945 7.11719 87.4648 7.09375 87.5586 7.04688C87.6289 7.11719 87.7695 7.15234 87.9805 7.15234C88.1914 7.12891 88.3438 7.14062 88.4375 7.1875C88.5547 7.21094 88.6484 7.22266 88.7188 7.22266C88.7891 7.22266 88.8594 7.26953 88.9297 7.36328C89.0234 7.33984 89.1055 7.35156 89.1758 7.39844C89.2461 7.44531 89.3047 7.46875 89.3516 7.46875C89.8203 7.49219 90.1367 7.57422 90.3008 7.71484C90.6055 7.71484 90.7812 7.75 90.8281 7.82031C90.875 7.86719 90.9336 7.86719 91.0039 7.82031C91.2148 7.98437 91.3555 8.07813 91.4258 8.10156C91.4961 8.10156 91.5664 8.125 91.6367 8.17188C91.6836 8.19531 91.7422 8.23047 91.8125 8.27734C91.9062 8.30078 92 8.32422 92.0938 8.34766C92.3047 8.51172 92.4102 8.60547 92.4102 8.62891C92.4102 8.62891 92.4219 8.64063 92.4453 8.66406C92.75 8.78125 92.9258 8.89844 92.9727 9.01562C93.1836 9.15625 93.2891 9.23828 93.2891 9.26172C93.5703 9.40234 93.7109 9.50781 93.7109 9.57812C93.9219 9.71875 94.0742 9.83594 94.168 9.92969L94.4492 10.2461C94.5898 10.457 94.6602 10.5742 94.6602 10.5977C94.6602 10.6211 94.6719 10.6445 94.6953 10.668C94.8125 10.832 94.8828 10.9375 94.9062 10.9844C94.9297 11.0078 94.9648 11.043 95.0117 11.0898C95.1992 11.3008 95.3164 11.4531 95.3633 11.5469C95.5039 11.7578 95.5742 11.8867 95.5742 11.9336C95.5742 11.9805 95.5977 12.0039 95.6445 12.0039C95.668 12.1914 95.7148 12.3203 95.7852 12.3906C95.8789 12.5781 95.9258 12.6836 95.9258 12.707C95.9492 12.707 95.9727 12.7305 95.9961 12.7773L96.207 13.1289C96.3008 13.3633 96.3711 13.5156 96.418 13.5859C96.4648 13.6328 96.5 13.6797 96.5234 13.7266C96.5469 13.7969 96.5586 13.8672 96.5586 13.9375C96.582 13.9844 96.6055 14.043 96.6289 14.1133C96.6992 14.5117 96.7695 14.7812 96.8398 14.9219C96.9102 15.1328 96.9453 15.2852 96.9453 15.3789C96.9688 15.4492 96.9922 15.5195 97.0156 15.5898C97.0625 15.8242 97.0859 15.9883 97.0859 16.082C97.0859 16.1758 97.1094 16.2578 97.1562 16.3281C97.1094 16.4219 97.1094 16.5156 97.1562 16.6094C97.2031 16.6797 97.2383 16.7734 97.2617 16.8906C97.2852 16.9844 97.2852 17.0781 97.2617 17.1719C97.2617 17.2422 97.2852 17.3125 97.332 17.3828C97.2852 17.4531 97.2617 17.5352 97.2617 17.6289C97.2852 17.6992 97.2969 17.7812 97.2969 17.875C97.25 18.1328 97.2266 18.2852 97.2266 18.332C97.25 18.3789 97.2617 18.4375 97.2617 18.5078C97.2617 18.7656 97.25 18.918 97.2266 18.9648C97.2031 19.0117 97.1797 19.0586 97.1562 19.1055C97.1562 19.2227 97.1562 19.3398 97.1562 19.457C97.1562 19.5742 97.1328 19.6914 97.0859 19.8086C97.0625 19.9258 97.0508 20.0195 97.0508 20.0898C97.0742 20.1367 97.0625 20.207 97.0156 20.3008L96.875 20.8633C96.8516 21.1211 96.8398 21.2617 96.8398 21.2852C96.8633 21.3086 96.875 21.332 96.875 21.3555C96.8281 21.4961 96.8047 21.5898 96.8047 21.6367C96.8047 21.6602 96.793 21.6953 96.7695 21.7422C96.6758 22.0234 96.6172 22.1641 96.5938 22.1641C96.5938 22.1641 96.5938 22.1758 96.5938 22.1992C96.5234 22.457 96.4648 22.6094 96.418 22.6562C96.2773 22.8906 96.1719 23.0078 96.1016 23.0078C96.0078 23.3359 95.9141 23.5469 95.8203 23.6406C95.7266 23.7344 95.6797 23.875 95.6797 24.0625L95.4336 24.3789C95.2695 24.6367 95.1641 24.7891 95.1172 24.8359C95.0938 24.8828 95.0586 24.9297 95.0117 24.9766C94.8477 25.1641 94.7656 25.2695 94.7656 25.293C94.7656 25.293 94.7539 25.3047 94.7305 25.3281C94.6133 25.4453 94.5195 25.5508 94.4492 25.6445C94.4023 25.7148 94.3555 25.7969 94.3086 25.8906C94.1914 25.9375 94.0859 26.0078 93.9922 26.1016C93.8984 26.1953 93.793 26.2891 93.6758 26.3828C93.6289 26.4297 93.5586 26.4766 93.4648 26.5234C93.3945 26.5703 93.3477 26.6406 93.3242 26.7344C93.043 26.8984 92.832 27.0039 92.6914 27.0508C92.4336 27.168 92.293 27.2383 92.2695 27.2617C92.2695 27.2852 92.2578 27.3086 92.2344 27.332C91.9766 27.4023 91.8242 27.4492 91.7773 27.4727C91.7539 27.4727 91.7188 27.4844 91.6719 27.5078L91.3203 27.6836L90.9336 27.8242C90.7461 27.918 90.6289 27.9766 90.582 28C90.5352 28 90.4766 28 90.4062 28C90.2422 28.1172 90.1484 28.1641 90.125 28.1406C90.1016 28.1406 90.0664 28.1406 90.0195 28.1406C89.9492 28.1641 89.8789 28.1875 89.8086 28.2109C89.7383 28.2578 89.6562 28.2695 89.5625 28.2461C89.3984 28.3633 89.2695 28.4102 89.1758 28.3867C89.082 28.3867 88.9883 28.3984 88.8945 28.4219C88.543 28.5156 88.2852 28.5391 88.1211 28.4922C87.957 28.4688 87.7812 28.4805 87.5938 28.5273C87.4766 28.5508 87.3711 28.5742 87.2773 28.5977C87.207 28.6211 87.125 28.6445 87.0312 28.668C86.7969 28.668 86.6797 28.6562 86.6797 28.6328C86.6797 28.6328 86.668 28.6328 86.6445 28.6328C86.5273 28.6797 86.4102 28.6797 86.293 28.6328C86.1758 28.5859 86.0469 28.5508 85.9062 28.5273C85.625 28.457 85.4492 28.4219 85.3789 28.4219C85.332 28.4219 85.2852 28.4102 85.2383 28.3867C85.0742 28.293 84.9805 28.2461 84.957 28.2461C84.957 28.2695 84.9336 28.2578 84.8867 28.2109C84.8164 28.2578 84.7344 28.2578 84.6406 28.2109C84.5469 28.1875 84.4414 28.1875 84.3242 28.2109C84.0898 28.1406 83.9375 28.082 83.8672 28.0352C83.8203 27.9883 83.7734 27.9414 83.7266 27.8945C83.4453 27.8945 83.2461 27.8008 83.1289 27.6133C82.9883 27.6133 82.8945 27.5781 82.8477 27.5078C82.8008 27.4141 82.707 27.3672 82.5664 27.3672C82.3789 27.1562 82.2734 27.0508 82.25 27.0508C82.0391 26.9336 81.9102 26.8516 81.8633 26.8047C81.6992 26.6875 81.5938 26.6172 81.5469 26.5938C81.5 26.5703 81.4414 26.5352 81.3711 26.4883C81.1367 26.2539 80.9961 26.1367 80.9492 26.1367C80.6914 25.9258 80.4922 25.7852 80.3516 25.7148C80.2344 25.5742 80.1055 25.4336 79.9648 25.293C79.8477 25.1289 79.6953 24.9883 79.5078 24.8711C79.4844 24.8008 79.4492 24.7422 79.4023 24.6953C79.3789 24.625 79.3438 24.5664 79.2969 24.5195C79.1797 24.2617 79.1094 24.1211 79.0859 24.0977C78.9219 23.9336 78.8164 23.8281 78.7695 23.7812C78.7461 23.7344 78.7227 23.6875 78.6992 23.6406C78.582 23.4062 78.4883 23.2188 78.418 23.0781C78.3711 22.9375 78.3008 22.7969 78.207 22.6562C78.0898 22.375 77.9609 22.1406 77.8203 21.9531C77.7969 21.9062 77.7734 21.8359 77.75 21.7422C77.7266 21.6484 77.7266 21.5547 77.75 21.4609C77.6562 21.1094 77.5859 20.875 77.5391 20.7578C77.5156 20.6406 77.4805 20.5117 77.4336 20.3711C77.3867 20.1602 77.3633 20.0312 77.3633 19.9844C77.3867 19.9375 77.3867 19.8789 77.3633 19.8086C77.3164 19.5508 77.293 19.4102 77.293 19.3867C77.293 19.3398 77.293 19.2578 77.293 19.1406C77.293 19.0234 77.2812 18.9414 77.2578 18.8945C77.2344 18.7539 77.2344 18.5664 77.2578 18.332C77.2812 18.0977 77.2695 17.8516 77.2227 17.5938C77.2227 17.5234 77.1992 17.4531 77.1523 17.3828C77.1289 17.3125 77.1172 17.2305 77.1172 17.1367C77.1641 16.8555 77.1758 16.6914 77.1523 16.6445C77.1523 16.5977 77.1641 16.5508 77.1875 16.5039C77.2344 16.3164 77.2461 16.1875 77.2227 16.1172C77.2227 16.0469 77.2344 15.9883 77.2578 15.9414C77.3047 15.6836 77.3281 15.5547 77.3281 15.5547C77.375 15.3203 77.4102 15.1797 77.4336 15.1328C77.457 15.0859 77.4688 15.0391 77.4688 14.9922C77.5391 14.7344 77.5859 14.5938 77.6094 14.5703C77.7266 14.3594 77.7969 14.2539 77.8203 14.2539C77.8438 14.2305 77.8555 14.207 77.8555 14.1836C77.9023 13.9023 77.9492 13.7383 77.9961 13.6914C78.0664 13.5508 78.1133 13.4688 78.1367 13.4453C78.1602 13.3984 78.1719 13.3281 78.1719 13.2344C78.3359 12.9766 78.4531 12.8008 78.5234 12.707C78.5938 12.5898 78.6406 12.4492 78.6641 12.2852C78.7578 12.0977 78.8398 11.9688 78.9102 11.8984C78.9805 11.8047 79.0508 11.7109 79.1211 11.6172C79.1914 11.5 79.2617 11.3945 79.332 11.3008C79.4023 11.1836 79.4609 11.0664 79.5078 10.9492C79.6484 10.8555 79.7656 10.6797 79.8594 10.4219C79.9531 10.375 80.0117 10.3398 80.0352 10.3164C80.082 10.2695 80.1289 10.2227 80.1758 10.1758C80.3867 9.98828 80.5039 9.88281 80.5273 9.85938C80.7148 9.67188 80.8203 9.57812 80.8438 9.57812C80.8906 9.55469 80.9258 9.53125 80.9492 9.50781C81.1836 9.22656 81.3945 9.03906 81.582 8.94531C81.7695 8.80469 81.8867 8.73438 81.9336 8.73438C82.0039 8.71094 82.0742 8.67578 82.1445 8.62891C82.2852 8.55859 82.3789 8.52344 82.4258 8.52344C82.4727 8.5 82.5195 8.46484 82.5664 8.41797C82.8477 8.27734 83.0586 8.18359 83.1992 8.13672C83.3398 8.08984 83.4688 8.03125 83.5859 7.96094C83.8438 7.89062 83.9727 7.86719 83.9727 7.89062C83.9961 7.89062 84.0195 7.87891 84.043 7.85547L84.3945 7.64453C84.6055 7.55078 84.7461 7.51563 84.8164 7.53906C84.9102 7.53906 84.9922 7.52734 85.0625 7.50391C85.3203 7.38672 85.4961 7.32812 85.5898 7.32812C85.7539 7.25781 85.8828 7.22266 85.9766 7.22266C86.0703 7.22266 86.1523 7.21094 86.2227 7.1875C86.3398 7.1875 86.4453 7.17578 86.5391 7.15234C86.6562 7.12891 86.7852 7.12891 86.9258 7.15234L87.1016 7.08203ZM85.8711 23.7461C86.0352 23.957 86.1289 24.0625 86.1523 24.0625C86.3867 24.2734 86.5508 24.4258 86.6445 24.5195C86.9023 24.6602 87.0547 24.7539 87.1016 24.8008C87.3828 24.8008 87.5352 24.7891 87.5586 24.7656C87.6055 24.7188 87.6523 24.6719 87.6992 24.625C87.8867 24.5312 88.0039 24.4727 88.0508 24.4492C88.2617 24.168 88.4141 24.0156 88.5078 23.9922C88.625 23.8047 88.6836 23.7109 88.6836 23.7109C88.707 23.7109 88.7305 23.6992 88.7539 23.6758C88.918 23.5352 89.0234 23.4414 89.0703 23.3945C89.2578 23.1836 89.3633 23.0547 89.3867 23.0078C89.4805 23.0078 89.5391 22.9844 89.5625 22.9375C89.6094 22.8906 89.668 22.8438 89.7383 22.7969C89.7852 22.6094 89.8555 22.4688 89.9492 22.375C90.0664 22.2578 90.1484 22.1172 90.1953 21.9531C90.4531 21.6953 90.582 21.5312 90.582 21.4609C90.7227 21.25 90.8047 21.1445 90.8281 21.1445C91.0156 20.8398 91.1445 20.6523 91.2148 20.582C91.3789 20.3477 91.4609 20.1953 91.4609 20.125C91.625 19.8906 91.707 19.7734 91.707 19.7734C91.7305 19.75 91.7422 19.7148 91.7422 19.668C91.7656 19.293 91.8125 19.0117 91.8828 18.8242C91.9766 18.6133 92.0234 18.3906 92.0234 18.1562C92 17.9219 91.9648 17.7812 91.918 17.7344C91.8945 17.6875 91.8828 17.6406 91.8828 17.5938C91.8594 17.3594 91.8477 17.2305 91.8477 17.207C91.8242 17.043 91.8008 16.9492 91.7773 16.9258C91.7539 16.8789 91.7422 16.832 91.7422 16.7852C91.625 16.5039 91.5547 16.3398 91.5312 16.293C91.5078 16.2461 91.5078 16.1992 91.5312 16.1523C91.3906 15.9414 91.3203 15.8125 91.3203 15.7656C91.2031 15.5312 91.1445 15.4023 91.1445 15.3789C91.168 15.3555 91.168 15.332 91.1445 15.3086C91.0039 15.0508 90.9336 14.8867 90.9336 14.8164C90.7695 14.5586 90.6875 14.4297 90.6875 14.4297C90.5234 14.1719 90.418 14.0078 90.3711 13.9375C90.3242 13.8438 90.2773 13.75 90.2305 13.6562C90.0898 13.4453 90.0195 13.3281 90.0195 13.3047C89.9727 13.2344 89.9375 13.1758 89.9141 13.1289C89.8906 13.082 89.8555 13.0234 89.8086 12.9531L89.5625 12.6367C89.375 12.4258 89.2578 12.2852 89.2109 12.2148C89.1875 12.1445 89.1406 12.0859 89.0703 12.0391C88.8594 11.8047 88.7305 11.6758 88.6836 11.6523C88.6602 11.6055 88.625 11.5703 88.5781 11.5469C88.4375 11.4297 88.3438 11.3359 88.2969 11.2656C88.0391 11.125 87.8984 11.043 87.875 11.0195C87.7812 10.9492 87.6992 10.9141 87.6289 10.9141C87.5586 10.9141 87.4766 10.8906 87.3828 10.8438C87.2656 10.9141 87.1367 10.9492 86.9961 10.9492C86.8789 10.9258 86.7734 10.9609 86.6797 11.0547C86.4453 11.1484 86.3047 11.1953 86.2578 11.1953C86 11.3359 85.8711 11.4062 85.8711 11.4062C85.7773 11.4531 85.707 11.5117 85.6602 11.582C85.6133 11.6289 85.543 11.6758 85.4492 11.7227C85.2383 11.8633 85.1328 11.9453 85.1328 11.9688C85.0391 12.0859 84.9805 12.168 84.957 12.2148C84.9336 12.2383 84.9336 12.2969 84.957 12.3906C84.6992 12.5547 84.5586 12.6484 84.5352 12.6719C84.5117 12.6953 84.4648 12.7188 84.3945 12.7422C84.3477 12.8594 84.2773 12.9531 84.1836 13.0234C84.1133 13.0938 84.0664 13.2109 84.043 13.375C83.9023 13.5156 83.7734 13.6211 83.6562 13.6914C83.6094 13.8789 83.5508 14.0312 83.4805 14.1484C83.3867 14.3125 83.3398 14.418 83.3398 14.4648C83.3398 14.4883 83.3164 14.5117 83.2695 14.5352C83.1758 14.8398 83.1172 15.0391 83.0938 15.1328C83.0703 15.2031 83.0117 15.2734 82.918 15.3438C82.8477 15.6484 82.7891 15.8594 82.7422 15.9766C82.6953 16.0703 82.6484 16.1641 82.6016 16.2578C82.5781 16.3984 82.5547 16.4922 82.5312 16.5391C82.5078 16.5625 82.4844 16.5977 82.4609 16.6445C82.4375 16.9258 82.4141 17.0781 82.3906 17.1016C82.3672 17.125 82.3789 17.1602 82.4258 17.207C82.3086 17.5352 82.25 17.793 82.25 17.9805C82.2734 18.1445 82.2852 18.3203 82.2852 18.5078C82.3086 18.625 82.332 18.7305 82.3555 18.8242C82.3789 18.8945 82.3789 18.9766 82.3555 19.0703C82.332 19.3516 82.332 19.5273 82.3555 19.5977C82.3789 19.668 82.4023 19.75 82.4258 19.8438C82.4727 19.9375 82.4961 20.0312 82.4961 20.125C82.5195 20.1953 82.543 20.2539 82.5664 20.3008C82.6836 20.5117 82.7773 20.6523 82.8477 20.7227C82.9648 20.9102 83.0703 21.0508 83.1641 21.1445C83.3281 21.3789 83.4336 21.5312 83.4805 21.6016C83.5273 21.6484 83.5742 21.707 83.6211 21.7773C83.668 21.8242 83.7148 21.8711 83.7617 21.918C83.8086 21.9648 83.8555 22.0234 83.9023 22.0938C84.0195 22.1406 84.1133 22.1992 84.1836 22.2695C84.2539 22.3164 84.3125 22.3633 84.3594 22.4102C84.4297 22.5508 84.5 22.6562 84.5703 22.7266C84.6641 22.7969 84.7461 22.8438 84.8164 22.8672C85.0273 23.0312 85.1562 23.1367 85.2031 23.1836C85.2734 23.2305 85.332 23.2891 85.3789 23.3594C85.4492 23.4062 85.5312 23.4648 85.625 23.5352C85.7188 23.582 85.8008 23.6523 85.8711 23.7461Z" fill="#FF1313"/>
</svg>
