<svg width="18" height="18" viewBox="0 0 18 18" fill="none" xmlns="http://www.w3.org/2000/svg">
<path d="M9.67972 9.16416L3.40306 10.2108C3.33089 10.2229 3.26317 10.2537 3.20671 10.3002C3.15024 10.3467 3.10702 10.4073 3.08139 10.4758L0.917222 16.2733C0.710555 16.8067 1.26805 17.315 1.77972 17.0592L16.7797 9.55916C16.8836 9.50728 16.971 9.42748 17.0321 9.32871C17.0932 9.22995 17.1255 9.11612 17.1255 8.99999C17.1255 8.88386 17.0932 8.77003 17.0321 8.67127C16.971 8.5725 16.8836 8.4927 16.7797 8.44082L1.77972 0.940822C1.26805 0.684988 0.710555 1.19416 0.917222 1.72666L3.08222 7.52416C3.10773 7.59283 3.1509 7.65357 3.20738 7.70024C3.26385 7.74691 3.33163 7.77787 3.40389 7.78999L9.68056 8.83582C9.71918 8.84259 9.75419 8.86276 9.77941 8.89279C9.80464 8.92281 9.81846 8.96077 9.81846 8.99999C9.81846 9.03921 9.80464 9.07717 9.77941 9.10719C9.75419 9.13722 9.71918 9.15739 9.68056 9.16416H9.67972Z" fill="#3D95EF"/>
</svg>
