<svg width="18" height="18" viewBox="0 0 18 18" fill="none" xmlns="http://www.w3.org/2000/svg">
<path d="M0.875 6.9425H0.25H0.875ZM0.875 14.625H1.5H0.875ZM14.625 17.125V16.5V17.125ZM3.375 17.125V17.75V17.125ZM17.125 6.9425H16.5H17.125ZM17.125 14.625H17.75H17.125ZM12.7344 3.34375L13.2931 3.06437L12.7344 3.34375ZM12.1906 2.25688L11.6319 2.53625L12.1913 2.25688H12.1906ZM9.95562 0.875V1.5V0.875ZM8.04562 0.875V1.5V0.875ZM5.80938 2.25688L6.36875 2.53625L5.80938 2.25688ZM5.26562 3.34438L4.7075 3.06437L5.26625 3.34375L5.26562 3.34438ZM3.19313 4.625V4V4.625ZM14.8081 4.625V5.25V4.625ZM11.5 10.25C11.5 10.913 11.2366 11.5489 10.7678 12.0178C10.2989 12.4866 9.66304 12.75 9 12.75V14C9.99456 14 10.9484 13.6049 11.6517 12.9017C12.3549 12.1984 12.75 11.2446 12.75 10.25H11.5ZM9 12.75C8.33696 12.75 7.70107 12.4866 7.23223 12.0178C6.76339 11.5489 6.5 10.913 6.5 10.25H5.25C5.25 11.2446 5.64509 12.1984 6.34835 12.9017C7.05161 13.6049 8.00544 14 9 14V12.75ZM6.5 10.25C6.5 9.58696 6.76339 8.95107 7.23223 8.48223C7.70107 8.01339 8.33696 7.75 9 7.75V6.5C8.00544 6.5 7.05161 6.89509 6.34835 7.59835C5.64509 8.30161 5.25 9.25544 5.25 10.25H6.5ZM9 7.75C9.66304 7.75 10.2989 8.01339 10.7678 8.48223C11.2366 8.95107 11.5 9.58696 11.5 10.25H12.75C12.75 9.25544 12.3549 8.30161 11.6517 7.59835C10.9484 6.89509 9.99456 6.5 9 6.5V7.75ZM0.25 6.9425V14.625H1.5V6.9425H0.25ZM14.625 16.5H3.375V17.75H14.625V16.5ZM16.5 6.9425V14.625H17.75V6.9425H16.5ZM13.2938 3.06437L12.75 1.97688L11.6319 2.53625L12.1756 3.62375L13.2931 3.06437H13.2938ZM9.95438 0.25H8.04437V1.5H9.95438V0.25ZM5.25 1.9775L4.70625 3.06437L5.825 3.62312L6.36812 2.53625L5.25 1.9775ZM8.045 0.25C7.46466 0.25002 6.89579 0.411642 6.40213 0.716757C5.90847 1.02187 5.50953 1.45842 5.25 1.9775L6.36812 2.53625C6.52387 2.22487 6.76323 1.963 7.0594 1.77998C7.35557 1.59696 7.69684 1.50001 8.045 1.5V0.25ZM3.1925 5.25C3.73899 5.24998 4.27468 5.09776 4.73953 4.81042C5.20439 4.52307 5.58003 4.11195 5.82437 3.62312L4.70625 3.06437C4.56569 3.3455 4.34963 3.58194 4.08227 3.74719C3.81491 3.91245 3.50681 3.99998 3.1925 4V5.25ZM14.8075 4C14.4931 4.0001 14.1849 3.91262 13.9174 3.74736C13.6499 3.5821 13.4337 3.3456 13.2931 3.06437L12.1756 3.62312C12.4199 4.11176 12.7953 4.52276 13.2599 4.81009C13.7245 5.09742 14.26 5.24974 14.8063 5.25V4H14.8075ZM12.75 1.9775C12.4905 1.45842 12.0915 1.02187 11.5979 0.716757C11.1042 0.411642 10.5353 0.25002 9.955 0.25V1.5C10.3032 1.50001 10.6444 1.59696 10.9406 1.77998C11.2368 1.963 11.4761 2.22487 11.6319 2.53625L12.75 1.9775ZM17.75 6.9425C17.75 5.3175 16.4325 4 14.8075 4V5.25C15.2564 5.25 15.6869 5.42832 16.0043 5.74572C16.3217 6.06313 16.5 6.49362 16.5 6.9425H17.75ZM1.5 6.9425C1.5 6.49362 1.67832 6.06313 1.99572 5.74572C2.31313 5.42832 2.74362 5.25 3.1925 5.25V4C2.4121 4 1.66366 4.31001 1.11184 4.86184C0.560013 5.41366 0.25 6.1621 0.25 6.9425H1.5ZM0.25 14.625C0.25 15.4538 0.57924 16.2487 1.16529 16.8347C1.75134 17.4208 2.5462 17.75 3.375 17.75V16.5C2.87772 16.5 2.40081 16.3025 2.04917 15.9508C1.69754 15.5992 1.5 15.1223 1.5 14.625H0.25ZM14.625 17.75C15.4538 17.75 16.2487 17.4208 16.8347 16.8347C17.4208 16.2487 17.75 15.4538 17.75 14.625H16.5C16.5 15.1223 16.3025 15.5992 15.9508 15.9508C15.5992 16.3025 15.1223 16.5 14.625 16.5V17.75Z" fill="white"/>
</svg>
