<svg width="24" height="22" viewBox="0 0 24 22" fill="none" xmlns="http://www.w3.org/2000/svg">
<path d="M5.9263 11.8037C6.08979 12.1981 6.3497 12.5478 6.68355 12.8228C7.12844 13.1739 7.65935 13.4072 8.22462 13.5L19.0319 13.4678C19.5116 13.4083 19.9684 13.2331 20.3604 12.9583C20.7974 12.6498 21.1247 12.217 21.297 11.7199L22.8979 4.34795C22.965 4.21897 23 4.0765 23 3.93198C23 3.78746 22.965 3.64495 22.8979 3.51596C22.7547 3.26602 22.5162 3.08072 22.2336 3H4C4.73067 7.50185 5.48125 10.8105 5.9263 11.8037Z" stroke="#464646" stroke-width="2" stroke-miterlimit="10"/>
<path d="M4.68018 6C5.42331 10.7282 6.17972 14.1916 6.62427 15.2358C6.80007 15.6416 7.06777 16.0031 7.40722 16.293C7.85099 16.6598 8.38708 16.9039 8.95986 17C12.5827 17 17.3777 17 21.0005 17" stroke="#464646" stroke-width="2" stroke-miterlimit="10"/>
<path d="M-1 1.625H3.13861C3.37574 1.6657 3.59427 1.77935 3.76378 1.9501C3.95042 2.13848 4.06538 2.38613 4.08884 2.65028L4.714 6.25744" stroke="#464646" stroke-width="2" stroke-miterlimit="10"/>
<path d="M8.5 22C9.32843 22 10 21.3284 10 20.5C10 19.6716 9.32843 19 8.5 19C7.67157 19 7 19.6716 7 20.5C7 21.3284 7.67157 22 8.5 22Z" fill="#464646"/>
<path d="M18.8999 22C19.7283 22 20.3999 21.3284 20.3999 20.5C20.3999 19.6716 19.7283 19 18.8999 19C18.0715 19 17.3999 19.6716 17.3999 20.5C17.3999 21.3284 18.0715 22 18.8999 22Z" fill="#464646"/>
</svg>
