<svg width="24" height="24" viewBox="0 0 24 24" fill="none" xmlns="http://www.w3.org/2000/svg">
<path d="M10.6875 12C10.6875 12.3481 10.8258 12.6819 11.0719 12.9281C11.3181 13.1742 11.6519 13.3125 12 13.3125C12.3481 13.3125 12.6819 13.1742 12.9281 12.9281C13.1742 12.6819 13.3125 12.3481 13.3125 12C13.3125 11.6519 13.1742 11.3181 12.9281 11.0719C12.6819 10.8258 12.3481 10.6875 12 10.6875C11.6519 10.6875 11.3181 10.8258 11.0719 11.0719C10.8258 11.3181 10.6875 11.6519 10.6875 12V12Z" fill="#5A5A5A"/>
<path d="M16.1562 12C16.1562 12.3481 16.2945 12.6819 16.5407 12.9281C16.7868 13.1742 17.1207 13.3125 17.4688 13.3125C17.8168 13.3125 18.1507 13.1742 18.3968 12.9281C18.643 12.6819 18.7812 12.3481 18.7812 12C18.7812 11.6519 18.643 11.3181 18.3968 11.0719C18.1507 10.8258 17.8168 10.6875 17.4688 10.6875C17.1207 10.6875 16.7868 10.8258 16.5407 11.0719C16.2945 11.3181 16.1562 11.6519 16.1562 12Z" fill="#5A5A5A"/>
<path d="M5.21875 12C5.21875 12.3481 5.35703 12.6819 5.60317 12.9281C5.84931 13.1742 6.18315 13.3125 6.53125 13.3125C6.87935 13.3125 7.21319 13.1742 7.45933 12.9281C7.70547 12.6819 7.84375 12.3481 7.84375 12C7.84375 11.6519 7.70547 11.3181 7.45933 11.0719C7.21319 10.8258 6.87935 10.6875 6.53125 10.6875C6.18315 10.6875 5.84931 10.8258 5.60317 11.0719C5.35703 11.3181 5.21875 11.6519 5.21875 12V12Z" fill="#5A5A5A"/>
<path d="M23.0677 7.35C22.4624 5.91161 21.5945 4.62054 20.4883 3.51161C19.3821 2.40536 18.091 1.53482 16.6499 0.932143C15.1767 0.313393 13.6125 0 12 0H11.9464C10.3232 0.00803571 8.75094 0.329464 7.27238 0.961607C5.84472 1.57232 4.56438 2.44018 3.46886 3.54643C2.37334 4.65268 1.51353 5.93839 0.918891 7.37143C0.302827 8.85536 -0.00788365 10.433 0.000151961 12.0562C0.00818757 13.9152 0.452825 15.7607 1.28585 17.4107V21.4821C1.28585 22.1625 1.83763 22.7143 2.51798 22.7143H6.59203C8.24201 23.5473 10.0875 23.992 11.9464 24H12.0027C13.6071 24 15.1634 23.6893 16.6285 23.0813C18.0615 22.4839 19.3499 21.6268 20.4535 20.5313C21.5597 19.4357 22.4302 18.1554 23.0383 16.7277C23.6704 15.2491 23.9918 13.6768 23.9999 12.0536C24.0079 10.4223 23.6918 8.83929 23.0677 7.35V7.35ZM19.0204 19.0821C17.1428 20.9411 14.6518 21.9643 12 21.9643H11.9545C10.3393 21.9563 8.73486 21.5545 7.31792 20.7991L7.09292 20.6786H3.32154V16.9071L3.201 16.6821C2.44566 15.2652 2.04388 13.6607 2.03584 12.0455C2.02513 9.375 3.04565 6.86786 4.91795 4.97946C6.78757 3.09107 9.28664 2.04643 11.9571 2.03571H12.0027C13.3419 2.03571 14.641 2.29554 15.8651 2.80982C17.0598 3.31071 18.1312 4.03125 19.0526 4.95268C19.9713 5.87143 20.6945 6.94554 21.1954 8.14018C21.7151 9.37768 21.9749 10.6902 21.9695 12.0455C21.9534 14.7134 20.9061 17.2125 19.0204 19.0821V19.0821Z" fill="#5A5A5A"/>
</svg>
