<svg width="16" height="15" viewBox="0 0 16 15" fill="none" xmlns="http://www.w3.org/2000/svg">
<path d="M10.643 5.21533H9.85696C9.68602 5.21533 9.52341 5.29676 9.42283 5.43733L6.78814 9.08702L5.5948 7.43275C5.49424 7.29389 5.33334 7.21075 5.16071 7.21075H4.37465C4.26571 7.21075 4.20202 7.33419 4.26571 7.42333L6.35405 10.3162C6.5669 10.6119 7.0077 10.6119 7.22055 10.3162L10.7503 5.42792C10.8157 5.33877 10.752 5.21533 10.643 5.21533Z" fill="#333333"/>
<path d="M7.50861 0C3.36211 0 0 3.35829 0 7.5C0 11.6417 3.36211 15 7.50861 15C11.6551 15 15.0172 11.6417 15.0172 7.5C15.0172 3.35829 11.6551 0 7.50861 0ZM7.50861 13.728C4.06604 13.728 1.27379 10.9389 1.27379 7.5C1.27379 4.06114 4.06604 1.27201 7.50861 1.27201C10.9512 1.27201 13.7434 4.06114 13.7434 7.5C13.7434 10.9389 10.9512 13.728 7.50861 13.728Z" fill="#333333"/>
</svg>
