<svg width="17" height="17" viewBox="0 0 17 17" fill="none" xmlns="http://www.w3.org/2000/svg">
<path d="M0.743988 0.743866C0.851394 0.636189 0.978987 0.550758 1.11946 0.492468C1.25993 0.434178 1.41053 0.404175 1.56261 0.404175C1.7147 0.404175 1.86529 0.434178 2.00577 0.492468C2.14624 0.550758 2.27383 0.636189 2.38124 0.743866L8.50011 6.86506L14.619 0.743866C14.7265 0.636363 14.8541 0.551086 14.9946 0.492906C15.135 0.434725 15.2856 0.40478 15.4376 0.40478C15.5896 0.40478 15.7402 0.434725 15.8807 0.492906C16.0211 0.551086 16.1487 0.636363 16.2562 0.743866C16.3637 0.851369 16.449 0.978994 16.5072 1.11945C16.5654 1.25991 16.5953 1.41046 16.5953 1.56249C16.5953 1.71452 16.5654 1.86507 16.5072 2.00553C16.449 2.14599 16.3637 2.27361 16.2562 2.38112L10.1351 8.49999L16.2562 14.6189C16.3637 14.7264 16.449 14.854 16.5072 14.9945C16.5654 15.1349 16.5953 15.2855 16.5953 15.4375C16.5953 15.5895 16.5654 15.7401 16.5072 15.8805C16.449 16.021 16.3637 16.1486 16.2562 16.2561C16.1487 16.3636 16.0211 16.4489 15.8807 16.5071C15.7402 16.5653 15.5896 16.5952 15.4376 16.5952C15.2856 16.5952 15.135 16.5653 14.9946 16.5071C14.8541 16.4489 14.7265 16.3636 14.619 16.2561L8.50011 10.1349L2.38124 16.2561C2.27374 16.3636 2.14611 16.4489 2.00565 16.5071C1.86519 16.5653 1.71465 16.5952 1.56261 16.5952C1.41058 16.5952 1.26004 16.5653 1.11958 16.5071C0.979116 16.4489 0.851492 16.3636 0.743988 16.2561C0.636485 16.1486 0.551208 16.021 0.493028 15.8805C0.434847 15.7401 0.404902 15.5895 0.404902 15.4375C0.404902 15.2855 0.434847 15.1349 0.493028 14.9945C0.551208 14.854 0.636485 14.7264 0.743988 14.6189L6.86518 8.49999L0.743988 2.38112C0.636311 2.27371 0.55088 2.14612 0.49259 2.00564C0.4343 1.86517 0.404297 1.71458 0.404297 1.56249C0.404297 1.4104 0.4343 1.25981 0.49259 1.11934C0.55088 0.978865 0.636311 0.851272 0.743988 0.743866Z" fill="#ffffff"/>
</svg>
