<svg width="22" height="5" viewBox="0 0 22 5" fill="none" xmlns="http://www.w3.org/2000/svg">
<path d="M2.43438 5C1.78874 5 1.16955 4.73661 0.713014 4.26777C0.256479 3.79893 0 3.16304 0 2.5C0 1.83696 0.256479 1.20107 0.713014 0.732233C1.16955 0.263392 1.78874 0 2.43438 0C3.08002 0 3.69922 0.263392 4.15575 0.732233C4.61229 1.20107 4.86876 1.83696 4.86876 2.5C4.86876 3.16304 4.61229 3.79893 4.15575 4.26777C3.69922 4.73661 3.08002 5 2.43438 5ZM10.549 5C9.90335 5 9.28416 4.73661 8.82762 4.26777C8.37109 3.79893 8.11461 3.16304 8.11461 2.5C8.11461 1.83696 8.37109 1.20107 8.82762 0.732233C9.28416 0.263392 9.90335 0 10.549 0C11.1946 0 11.8138 0.263392 12.2704 0.732233C12.7269 1.20107 12.9834 1.83696 12.9834 2.5C12.9834 3.16304 12.7269 3.79893 12.2704 4.26777C11.8138 4.73661 11.1946 5 10.549 5ZM18.6636 5C18.018 5 17.3988 4.73661 16.9422 4.26777C16.4857 3.79893 16.2292 3.16304 16.2292 2.5C16.2292 1.83696 16.4857 1.20107 16.9422 0.732233C17.3988 0.263392 18.018 0 18.6636 0C19.3092 0 19.9284 0.263392 20.385 0.732233C20.8415 1.20107 21.098 1.83696 21.098 2.5C21.098 3.16304 20.8415 3.79893 20.385 4.26777C19.9284 4.73661 19.3092 5 18.6636 5Z" fill="#575757"/>
</svg>
