<svg width="26" height="26" viewBox="0 0 26 26" fill="none" xmlns="http://www.w3.org/2000/svg">
<path d="M1.62444 26H8.51193C8.72572 26.0012 8.93764 25.9602 9.13555 25.8794C9.33347 25.7986 9.51348 25.6794 9.66526 25.5289L20.9062 14.2717L25.5195 9.75588C25.6718 9.60487 25.7926 9.42521 25.8751 9.22726C25.9575 9.02931 26 8.81699 26 8.60255C26 8.3881 25.9575 8.17578 25.8751 7.97784C25.7926 7.77989 25.6718 7.60022 25.5195 7.44921L18.632 0.480498C18.481 0.328244 18.3013 0.207397 18.1034 0.124928C17.9054 0.0424592 17.6931 0 17.4787 0C17.2642 0 17.0519 0.0424592 16.854 0.124928C16.656 0.207397 16.4764 0.328244 16.3253 0.480498L11.7445 5.07758L0.471106 16.3347C0.320553 16.4865 0.201443 16.6665 0.120605 16.8644C0.039767 17.0624 -0.00120885 17.2743 2.71509e-05 17.4881V24.3756C2.71509e-05 24.8064 0.17117 25.2196 0.475806 25.5242C0.780442 25.8288 1.19362 26 1.62444 26ZM17.4787 3.92425L22.0758 8.52132L19.7691 10.828L15.172 6.23091L17.4787 3.92425ZM3.24885 18.1541L12.8816 8.52132L17.4787 13.1184L7.84593 22.7512H3.24885V18.1541Z" fill="white"/>
</svg>
