<svg width="22" height="22" viewBox="0 0 22 22" fill="none" xmlns="http://www.w3.org/2000/svg">
<path d="M21.2041 17.8813L17.5231 21.548C17.4429 21.6704 17.3368 21.7737 17.2124 21.8506C17.0879 21.9275 16.9481 21.9762 16.8028 21.9931C16.6575 22.0101 16.5102 21.995 16.3714 21.9489C16.2325 21.9027 16.1055 21.8267 15.9992 21.7261C15.9469 21.6731 15.9011 21.614 15.863 21.5499L14.0859 19.788C13.9124 19.6084 13.8164 19.3678 13.8186 19.1181C13.8207 18.8684 13.9209 18.6295 14.0975 18.4529C14.2741 18.2763 14.5129 18.1762 14.7626 18.174C15.0124 18.1718 15.2529 18.2678 15.4326 18.4413L16.6916 19.6875L19.8588 16.5346C20.0395 16.367 20.2782 16.2759 20.5247 16.2806C20.7711 16.2853 21.0062 16.3853 21.1804 16.5597C21.3546 16.7341 21.4544 16.9693 21.4588 17.2157C21.4633 17.4622 21.3719 17.7008 21.2041 17.8813ZM17.4002 15.3051C17.401 15.5019 17.3405 15.694 17.2272 15.8549C17.1139 16.0158 16.9534 16.1375 16.7679 16.2031C16.5824 16.2687 16.381 16.275 16.1918 16.2211C16.0025 16.1672 15.8347 16.0558 15.7116 15.9022C15.0252 15.1268 14.1876 14.4998 13.2501 14.0598C12.3127 13.6198 11.2952 13.3761 10.2601 13.3436C10.1787 13.3465 10.0982 13.356 10.0158 13.356C9.93343 13.356 9.8539 13.3465 9.77247 13.3436C7.95606 13.4015 6.22015 14.1067 4.87802 15.332C3.53588 16.5573 2.67591 18.222 2.4533 20.0256H2.42997V20.0371C2.42999 20.1621 2.40536 20.286 2.35751 20.4016C2.30966 20.5171 2.23951 20.6222 2.15107 20.7106C2.06263 20.7991 1.95763 20.8692 1.84207 20.9171C1.72651 20.965 1.60265 20.9896 1.47757 20.9896C1.35249 20.9896 1.22863 20.965 1.11307 20.9171C0.997511 20.8692 0.892513 20.7991 0.804073 20.7106C0.715633 20.6222 0.645483 20.5171 0.597629 20.4016C0.549775 20.286 0.525154 20.1621 0.525173 20.0371L0.516602 19.949C0.516821 19.8283 0.540264 19.7088 0.58565 19.5971C0.817987 17.9812 1.46097 16.452 2.45311 15.1556C3.44526 13.8592 4.75339 12.8391 6.25241 12.1927C5.0735 11.3879 4.18337 10.2268 3.71249 8.8793C3.24161 7.53184 3.21475 6.06897 3.63585 4.70513C4.05694 3.3413 4.90385 2.14821 6.05242 1.30077C7.20099 0.453326 8.59082 -0.00390625 10.0182 -0.00390625C11.4456 -0.00390625 12.8354 0.453326 13.984 1.30077C15.1325 2.14821 15.9794 3.3413 16.4005 4.70513C16.8216 6.06897 16.7948 7.53184 16.3239 8.8793C15.853 10.2268 14.9629 11.3879 13.784 12.1927C14.9775 12.7091 16.0526 13.4645 16.9431 14.4122C17.1119 14.5169 17.2438 14.6717 17.3202 14.8551C17.4355 14.9932 17.5621 15.1208 17.6693 15.2651H17.3974L17.4002 15.3051ZM14.7868 6.67827C14.7868 5.73465 14.507 4.81222 13.9828 4.02763C13.4585 3.24304 12.7134 2.63152 11.8416 2.27042C10.9698 1.90931 10.0105 1.81483 9.08503 1.99892C8.15954 2.18301 7.30942 2.6374 6.64218 3.30465C5.97494 3.97189 5.52054 4.822 5.33645 5.74749C5.15236 6.67298 5.24684 7.63228 5.60795 8.50407C5.96906 9.37586 6.58057 10.121 7.36516 10.6452C8.14976 11.1695 9.07219 11.4493 10.0158 11.4493C10.6423 11.4493 11.2628 11.3259 11.8416 11.0861C12.4205 10.8464 12.9464 10.4949 13.3894 10.0519C13.8325 9.60887 14.1839 9.08292 14.4237 8.50407C14.6634 7.92522 14.7868 7.30481 14.7868 6.67827Z" fill="#8E8E93"/>
</svg>
