<svg width="17" height="16" viewBox="0 0 17 16" fill="none" xmlns="http://www.w3.org/2000/svg">
<path d="M16.4505 5.63393L11.3543 4.90397L9.0761 0.352127C9.01387 0.227501 8.91151 0.126612 8.78505 0.065288C8.46792 -0.0890118 8.08253 0.0395714 7.92396 0.352127L5.64579 4.90397L0.549519 5.63393C0.409015 5.65371 0.280554 5.71899 0.182201 5.8179C-0.064684 6.06913 -0.0606696 6.46873 0.194245 6.71403L3.88147 10.257L3.01034 15.2599C2.98626 15.3964 3.00834 15.5388 3.07457 15.6614C3.23916 15.97 3.62856 16.0907 3.94168 15.9265L8.50003 13.5645L13.0584 15.9265C13.1828 15.9918 13.3273 16.0136 13.4658 15.9898C13.8151 15.9305 14.0499 15.6041 13.9897 15.2599L13.1186 10.257L16.8058 6.71403C16.9062 6.61709 16.9724 6.49049 16.9925 6.35201C17.0467 6.00583 16.8018 5.68536 16.4505 5.63393Z" fill="#E3E3E3"/>
</svg>
