<svg width="24" height="20" viewBox="0 0 24 20" fill="none" xmlns="http://www.w3.org/2000/svg">
<path d="M20.3048 1.92028C19.2059 1.23818 17.9083 0.921066 16.6075 1.01669C15.3068 1.11232 14.0732 1.6155 13.0928 2.45046C12.7493 2.76857 12.3122 3.15485 11.8829 3.07154C11.6093 2.98343 11.3662 2.82352 11.1805 2.60952C10.1274 1.68452 8.78252 1.13304 7.36503 1.04501C5.94754 0.956974 4.54113 1.33759 3.37519 2.12478C2.55047 2.74064 1.90219 3.55136 1.49225 4.47953C1.08232 5.40771 0.924415 6.42236 1.03361 7.42661C1.26757 9.21142 2.11772 10.8667 3.44544 12.1225C4.5694 13.2889 5.78702 14.3947 6.91878 15.5308C7.86409 16.5992 8.90925 17.5805 10.0409 18.462C10.4168 18.7385 10.8559 18.9229 11.321 18.9997C11.7376 19.0051 12.1512 18.9294 12.5373 18.7772C12.9233 18.625 13.2741 18.3994 13.5689 18.1136C14.2557 17.5682 14.9582 17.0532 15.6451 16.5079C17.1125 15.3415 18.5252 14.1145 19.8677 12.8117C21.3741 11.3575 22.8728 9.44887 22.9898 7.30542C23.0509 6.26035 22.8363 5.21745 22.3665 4.27519C21.8967 3.33294 21.1872 2.52244 20.3048 1.92028Z" stroke="#5A5A5A" stroke-width="2" stroke-miterlimit="10"/>
</svg>
