<?xml version="1.0" encoding="utf-8"?>
<svg xmlns="http://www.w3.org/2000/svg" xmlns:xlink="http://www.w3.org/1999/xlink" style="margin: auto; display: block; shape-rendering: auto;" width="200px" height="200px" viewBox="0 0 100 100" preserveAspectRatio="xMidYMid">
<g transform="rotate(0 50 50)">
  <rect x="48" y="40" rx="2" ry="2" width="4" height="4" fill="#ff3535">
    <animate attributeName="opacity" values="1;0" keyTimes="0;1" dur="1.3333333333333333s" begin="-1.1666666666666667s" repeatCount="indefinite"></animate>
  </rect>
</g><g transform="rotate(45 50 50)">
  <rect x="48" y="40" rx="2" ry="2" width="4" height="4" fill="#ff3535">
    <animate attributeName="opacity" values="1;0" keyTimes="0;1" dur="1.3333333333333333s" begin="-1s" repeatCount="indefinite"></animate>
  </rect>
</g><g transform="rotate(90 50 50)">
  <rect x="48" y="40" rx="2" ry="2" width="4" height="4" fill="#ff3535">
    <animate attributeName="opacity" values="1;0" keyTimes="0;1" dur="1.3333333333333333s" begin="-0.8333333333333334s" repeatCount="indefinite"></animate>
  </rect>
</g><g transform="rotate(135 50 50)">
  <rect x="48" y="40" rx="2" ry="2" width="4" height="4" fill="#ff3535">
    <animate attributeName="opacity" values="1;0" keyTimes="0;1" dur="1.3333333333333333s" begin="-0.6666666666666666s" repeatCount="indefinite"></animate>
  </rect>
</g><g transform="rotate(180 50 50)">
  <rect x="48" y="40" rx="2" ry="2" width="4" height="4" fill="#ff3535">
    <animate attributeName="opacity" values="1;0" keyTimes="0;1" dur="1.3333333333333333s" begin="-0.5s" repeatCount="indefinite"></animate>
  </rect>
</g><g transform="rotate(225 50 50)">
  <rect x="48" y="40" rx="2" ry="2" width="4" height="4" fill="#ff3535">
    <animate attributeName="opacity" values="1;0" keyTimes="0;1" dur="1.3333333333333333s" begin="-0.3333333333333333s" repeatCount="indefinite"></animate>
  </rect>
</g><g transform="rotate(270 50 50)">
  <rect x="48" y="40" rx="2" ry="2" width="4" height="4" fill="#ff3535">
    <animate attributeName="opacity" values="1;0" keyTimes="0;1" dur="1.3333333333333333s" begin="-0.16666666666666666s" repeatCount="indefinite"></animate>
  </rect>
</g><g transform="rotate(315 50 50)">
  <rect x="48" y="40" rx="2" ry="2" width="4" height="4" fill="#ff3535">
    <animate attributeName="opacity" values="1;0" keyTimes="0;1" dur="1.3333333333333333s" begin="0s" repeatCount="indefinite"></animate>
  </rect>
</g>
<!-- [ldio] generated by https://loading.io/ --></svg>