<svg width="16" height="16" viewBox="0 0 16 16" fill="none" xmlns="http://www.w3.org/2000/svg">
    <path d="M8.0109 0C6.96185 0 5.92308 0.206917 4.95388 0.608937C3.98468 1.01096 3.10405 1.60021 2.36226 2.34304C0.864148 3.84327 0.0225164 5.87801 0.0225164 7.99965C0.0155328 9.84687 0.654232 11.6383 1.82789 13.0634L0.230214 14.6634C0.119369 14.7758 0.0442816 14.9187 0.0144257 15.0739C-0.0154302 15.2291 0.00128365 15.3896 0.0624583 15.5353C0.128808 15.6792 0.236369 15.8002 0.371486 15.8828C0.506604 15.9654 0.663186 16.006 0.821355 15.9993H8.0109C10.1296 15.9993 12.1614 15.1565 13.6595 13.6563C15.1577 12.156 15.9993 10.1213 15.9993 7.99965C15.9993 5.87801 15.1577 3.84327 13.6595 2.34304C12.1614 0.842817 10.1296 0 8.0109 0V0ZM8.0109 14.3994H2.74656L3.48948 13.6554C3.63826 13.5055 3.72177 13.3028 3.72177 13.0914C3.72177 12.8801 3.63826 12.6773 3.48948 12.5274C2.44347 11.4811 1.79208 10.104 1.64631 8.63065C1.50053 7.15732 1.86939 5.67895 2.69002 4.44742C3.51066 3.21589 4.7323 2.30738 6.14683 1.8767C7.56135 1.44601 9.08124 1.51978 10.4475 2.08544C11.8138 2.6511 12.942 3.67366 13.6399 4.97889C14.3377 6.28413 14.5621 7.79129 14.2747 9.2436C13.9873 10.6959 13.206 12.0035 12.0638 12.9436C10.9217 13.8837 9.48937 14.3982 8.0109 14.3994V14.3994Z" fill="#3B3B3B" />
</svg>