<svg width="25" height="30" viewBox="0 0 25 30" fill="none" xmlns="http://www.w3.org/2000/svg">
<path d="M12.6902 12.65C15.9763 12.65 18.6402 9.98609 18.6402 6.7C18.6402 3.41391 15.9763 0.75 12.6902 0.75C9.40414 0.75 6.74023 3.41391 6.74023 6.7C6.74023 9.98609 9.40414 12.65 12.6902 12.65Z" fill="#E24D4D"/>
<path d="M11.8596 14.2207H12.8596C15.9096 14.2207 18.8347 15.4323 20.9913 17.589C23.148 19.7456 24.3596 22.6707 24.3596 25.7207V26.3607C24.3596 27.2041 24.0246 28.0129 23.4282 28.6093C22.8318 29.2057 22.023 29.5407 21.1796 29.5407H3.52961C2.68622 29.5407 1.87738 29.2057 1.28101 28.6093C0.684648 28.0129 0.349609 27.2041 0.349609 26.3607V25.7207C0.349609 22.6707 1.56121 19.7456 3.71788 17.589C5.87455 15.4323 8.79962 14.2207 11.8496 14.2207H11.8596Z" fill="#E24D4D"/>
</svg>
