<svg width="29" height="24" viewBox="0 0 29 24" fill="none" xmlns="http://www.w3.org/2000/svg">
<path d="M24.7554 1.21085C23.3464 0.311622 21.6834 -0.105391 20.0168 0.0226673C18.3502 0.150726 16.7704 0.81691 15.5154 1.92085C15.0654 2.33085 14.5154 2.84084 13.9554 2.73084C13.6048 2.61452 13.2933 2.40338 13.0554 2.12084C11.7063 0.899571 9.98316 0.171443 8.1671 0.0552143C6.35103 -0.0610139 4.54916 0.441517 3.05537 1.48084C-1.26463 4.63084 -0.764626 11.2409 3.05537 14.6009L11.3854 22.8908C12.0007 23.4371 12.7973 23.7346 13.62 23.7253C14.4427 23.7161 15.2325 23.4008 15.8354 22.8408C18.6854 20.4908 21.5954 18.1608 24.2054 15.5608C25.8895 14.0487 27.1655 12.1364 27.9154 10.0008C28.3546 8.38851 28.287 6.68006 27.7216 5.10749C27.1563 3.53492 26.1207 2.17446 24.7554 1.21085Z" fill="#D25853"/>
</svg>
