<svg width="17.15" height="22.04" viewBox="0 0 21 26" fill="none" xmlns="http://www.w3.org/2000/svg">
<path d="M2.80328 24.2437C2.59289 24.243 2.38622 24.1882 2.20318 24.0845C2.01401 23.9781 1.85649 23.8234 1.74674 23.6362C1.63699 23.449 1.57896 23.236 1.57859 23.019V5.05275C1.56204 4.31832 1.83556 3.60696 2.3399 3.07282C2.84424 2.53868 3.53874 2.22481 4.27291 2.19922H16.0299C16.7641 2.22481 17.4586 2.53868 17.963 3.07282C18.4673 3.60696 18.7408 4.31832 18.7243 5.05275V23.019C18.723 23.2327 18.6658 23.4424 18.5584 23.6271C18.4509 23.8119 18.297 23.9653 18.1119 24.0722C17.9257 24.1797 17.7146 24.2363 17.4996 24.2363C17.2846 24.2363 17.0734 24.1797 16.8872 24.0722L9.94323 20.1409L3.41563 24.06C3.23138 24.1743 3.02006 24.2377 2.80328 24.2437V24.2437Z" stroke="#5A5A5A" stroke-width="3"/>
</svg>
