<svg width="16" height="16" viewBox="0 0 16 16" fill="none" xmlns="http://www.w3.org/2000/svg">
<path d="M14.7583 14.075L11.925 11.25C12.8392 10.0854 13.3352 8.64722 13.3333 7.16667C13.3333 5.84813 12.9423 4.5592 12.2098 3.46287C11.4773 2.36654 10.4361 1.51206 9.2179 1.00747C7.99972 0.502889 6.65928 0.370866 5.36607 0.628101C4.07286 0.885336 2.88498 1.52027 1.95263 2.45263C1.02027 3.38498 0.385336 4.57286 0.128101 5.86607C-0.129134 7.15928 0.00288854 8.49972 0.507473 9.7179C1.01206 10.9361 1.86654 11.9773 2.96287 12.7098C4.0592 13.4423 5.34813 13.8333 6.66667 13.8333C8.14722 13.8352 9.58539 13.3392 10.75 12.425L13.575 15.2583C13.6525 15.3365 13.7446 15.3984 13.8462 15.4408C13.9477 15.4831 14.0567 15.5048 14.1667 15.5048C14.2767 15.5048 14.3856 15.4831 14.4872 15.4408C14.5887 15.3984 14.6809 15.3365 14.7583 15.2583C14.8365 15.1809 14.8984 15.0887 14.9408 14.9872C14.9831 14.8856 15.0048 14.7767 15.0048 14.6667C15.0048 14.5567 14.9831 14.4477 14.9408 14.3462C14.8984 14.2446 14.8365 14.1525 14.7583 14.075ZM1.66667 7.16667C1.66667 6.17777 1.95992 5.21107 2.50932 4.38882C3.05873 3.56657 3.83962 2.92571 4.75326 2.54727C5.66689 2.16883 6.67222 2.06982 7.64213 2.26274C8.61203 2.45567 9.50295 2.93187 10.2022 3.63114C10.9015 4.3304 11.3777 5.22132 11.5706 6.19122C11.7635 7.16113 11.6645 8.16646 11.2861 9.08009C10.9076 9.99372 10.2668 10.7746 9.44453 11.324C8.62228 11.8734 7.65558 12.1667 6.66667 12.1667C5.34059 12.1667 4.06882 11.6399 3.13114 10.7022C2.19346 9.76453 1.66667 8.49276 1.66667 7.16667Z" fill="#8E8E93"/>
</svg>
