<svg width="18" height="18" viewBox="0 0 18 18" fill="none" xmlns="http://www.w3.org/2000/svg">
<path d="M9.67972 9.16428L3.40306 10.2109C3.33089 10.223 3.26317 10.2538 3.20671 10.3003C3.15024 10.3469 3.10702 10.4074 3.08139 10.4759L0.917222 16.2734C0.710555 16.8068 1.26805 17.3151 1.77972 17.0593L16.7797 9.55928C16.8836 9.5074 16.971 9.4276 17.0321 9.32884C17.0932 9.23007 17.1255 9.11624 17.1255 9.00011C17.1255 8.88398 17.0932 8.77015 17.0321 8.67139C16.971 8.57262 16.8836 8.49282 16.7797 8.44095L1.77972 0.940944C1.26805 0.68511 0.710555 1.19428 0.917222 1.72678L3.08222 7.52428C3.10773 7.59296 3.1509 7.65369 3.20738 7.70037C3.26385 7.74704 3.33163 7.77799 3.40389 7.79011L9.68056 8.83595C9.71918 8.84271 9.75419 8.86288 9.77941 8.89291C9.80464 8.92294 9.81846 8.9609 9.81846 9.00011C9.81846 9.03933 9.80464 9.07729 9.77941 9.10731C9.75419 9.13734 9.71918 9.15751 9.68056 9.16428H9.67972Z" fill="#8E8E93"/>
</svg>
