<svg width="28.33" height="22.03" viewBox="0 0 41 33" fill="none" xmlns="http://www.w3.org/2000/svg">
<path d="M22.5418 8.39375V2.16667C22.5418 1.62518 22.7569 1.10588 23.1398 0.72299C23.5227 0.340103 24.042 0.125 24.5835 0.125C25.1191 0.127255 25.6323 0.339897 26.0126 0.717083L40.3043 15.0088C40.4956 15.1986 40.6475 15.4244 40.7512 15.6732C40.8548 15.922 40.9082 16.1888 40.9082 16.4583C40.9082 16.7279 40.8548 16.9947 40.7512 17.2435C40.6475 17.4923 40.4956 17.7181 40.3043 17.9079L26.0126 32.1996C25.726 32.4805 25.3629 32.6708 24.9688 32.7465C24.5747 32.8223 24.1669 32.7802 23.7966 32.6255C23.4263 32.4708 23.1097 32.2104 22.8865 31.8769C22.6634 31.5433 22.5434 31.1514 22.5418 30.75V24.4208H20.8064C17.5807 24.3727 14.3832 25.0271 11.4358 26.3387C8.48839 27.6502 5.8617 29.5874 3.73804 32.0158C3.48211 32.3566 3.12598 32.6087 2.71958 32.7368C2.31318 32.8649 1.87686 32.8627 1.47179 32.7304C1.05956 32.5913 0.702553 32.3242 0.452812 31.9679C0.203075 31.6117 0.0736656 31.185 0.0834503 30.75C0.0834503 12.13 16.5801 8.945 22.5418 8.39375ZM20.8064 20.2967C22.1719 20.2924 23.5362 20.3811 24.8897 20.5621C25.373 20.6354 25.814 20.8798 26.1325 21.2507C26.451 21.6216 26.6258 22.0945 26.6251 22.5833V25.8296L35.9759 16.4583L26.6251 7.08708V10.3333C26.6251 10.8748 26.41 11.3941 26.0271 11.777C25.6442 12.1599 25.1249 12.375 24.5835 12.375C22.7255 12.375 8.02554 12.7833 4.84053 25.5029C9.46349 22.0945 15.0628 20.2686 20.8064 20.2967Z" fill="#5A5A5A"/>
</svg>
