<svg width="15" height="15" viewBox="0 0 15 15" fill="none" xmlns="http://www.w3.org/2000/svg">
<path d="M6.00677 0L11.4864 1.70996C11.6393 1.75766 11.7729 1.85306 11.8676 1.98176C11.9625 2.11046 12.0136 2.26616 12.0135 2.42635V3.75022H13.5152C13.7144 3.75022 13.9054 3.82852 14.0462 3.96982C14.1869 4.11022 14.266 4.30102 14.266 4.49991V10.5001C14.266 10.699 14.1869 10.8898 14.0462 11.0302C13.9054 11.1706 13.7144 11.2498 13.5152 11.2498L11.0975 11.2507C10.807 11.6332 10.454 11.9707 10.0463 12.2479L6.00677 15L1.96721 12.2487C1.36093 11.8357 0.864786 11.2813 0.52194 10.6333C0.179095 9.98529 -7.20595e-05 9.26352 2.17408e-08 8.53003V2.42635C9.01233e-05 2.26616 0.0512767 2.11046 0.146091 1.98176C0.240895 1.85306 0.37439 1.75855 0.527094 1.71085L6.00677 0ZM6.00677 1.57046L1.5017 2.97714V8.53003C1.50159 8.98992 1.607 9.44261 1.80982 9.8548C2.01263 10.267 2.30743 10.627 2.67151 10.9069L2.81342 11.0086L6.00677 13.1847L8.84644 11.2498H5.25592C5.05679 11.2498 4.86581 11.1706 4.725 11.0302C4.58419 10.8898 4.50508 10.699 4.50508 10.5001V4.49991C4.50508 4.30102 4.58419 4.11022 4.725 3.96982C4.86581 3.82852 5.05679 3.75022 5.25592 3.75022H10.5119V2.97714L6.00677 1.57046ZM6.00677 7.49955V9.7495H12.7644V7.49955H6.00677ZM6.00677 6.00018H12.7644V5.24959H6.00677V6.00018Z" fill="#333333"/>
</svg>
