<svg width="14" height="16" viewBox="0 0 14 16" fill="none" xmlns="http://www.w3.org/2000/svg">
<path d="M8.46967 12.4697C8.76256 12.1768 9.23744 12.1768 9.53033 12.4697L10.25 13.1893L10.25 3C10.25 2.58579 10.5858 2.25 11 2.25C11.4142 2.25 11.75 2.58579 11.75 3L11.75 13.1893L12.4697 12.4697C12.7626 12.1768 13.2374 12.1768 13.5303 12.4697C13.8232 12.7626 13.8232 13.2374 13.5303 13.5303L11.5303 15.5303C11.2374 15.8232 10.7626 15.8232 10.4697 15.5303L8.46967 13.5303C8.17678 13.2374 8.17678 12.7626 8.46967 12.4697Z" fill="#8E8E93"/>
<path d="M3.75 2.81066L4.46967 3.53033C4.76256 3.82322 5.23744 3.82322 5.53033 3.53033C5.82322 3.23744 5.82322 2.76256 5.53033 2.46967L3.53033 0.46967C3.23744 0.176777 2.76256 0.176777 2.46967 0.46967L0.46967 2.46967C0.176777 2.76256 0.176777 3.23744 0.46967 3.53033C0.762563 3.82322 1.23744 3.82322 1.53033 3.53033L2.25 2.81066L2.25 13C2.25 13.4142 2.58579 13.75 3 13.75C3.41421 13.75 3.75 13.4142 3.75 13L3.75 2.81066Z" fill="#8E8E93"/>
</svg>
