<svg width="24" height="22" viewBox="0 0 24 22" fill="none" xmlns="http://www.w3.org/2000/svg">
<path d="M22.2927 7.74665L15.3866 6.74296L12.2993 0.484175C12.215 0.312813 12.0763 0.174092 11.9049 0.089771C11.4752 -0.122391 10.9529 0.0544106 10.738 0.484175L7.65081 6.74296L0.744672 7.74665C0.55427 7.77385 0.380189 7.86361 0.246908 7.99961C-0.0876555 8.34505 -0.0822155 8.8945 0.263228 9.23178L5.25991 14.1034L4.07942 20.9823C4.04678 21.17 4.0767 21.3658 4.16646 21.5345C4.3895 21.9588 4.91719 22.1247 5.34151 21.899L11.5187 18.6512L17.6959 21.899C17.8645 21.9887 18.0603 22.0186 18.248 21.986C18.7213 21.9044 19.0396 21.4556 18.958 20.9823L17.7775 14.1034L22.7741 9.23178C22.9102 9.0985 22.9999 8.92442 23.0271 8.73402C23.1006 8.25801 22.7687 7.81737 22.2927 7.74665Z" fill="#8A8A8A"/>
</svg>
