<svg width="222" height="204" viewBox="0 0 222 204" fill="none" xmlns="http://www.w3.org/2000/svg">
<g clip-path="url(#clip0_3679_4325)">
<path d="M180.32 109.23H48.86C46.3637 109.23 44.34 111.254 44.34 113.75V197.77C44.34 200.267 46.3637 202.29 48.86 202.29H180.32C182.816 202.29 184.84 200.267 184.84 197.77V113.75C184.84 111.254 182.816 109.23 180.32 109.23Z" stroke="#E24E4D" stroke-width="2" stroke-miterlimit="10"/>
<path d="M175.17 116.76H53.59C52.6456 116.76 51.88 117.525 51.88 118.47V193.05C51.88 193.994 52.6456 194.76 53.59 194.76H175.17C176.114 194.76 176.88 193.994 176.88 193.05V118.47C176.88 117.525 176.114 116.76 175.17 116.76Z" stroke="#E24E4D" stroke-width="2" stroke-miterlimit="10"/>
<path d="M44.34 173.87H5.52002C4.32124 173.87 3.17155 173.394 2.32388 172.546C1.47622 171.699 1 170.549 1 169.35V37.8901C1 36.6914 1.47622 35.5417 2.32388 34.694C3.17155 33.8463 4.32124 33.3701 5.52002 33.3701H89.52C90.7188 33.3701 91.8685 33.8463 92.7161 34.694C93.5638 35.5417 94.04 36.6914 94.04 37.8901V109.23" stroke="#E24E4D" stroke-width="2" stroke-miterlimit="10"/>
<path d="M44.34 166.33H10.23C9.7773 166.327 9.34386 166.146 9.02374 165.826C8.70362 165.506 8.52264 165.073 8.52002 164.62V43.0401C8.52002 42.5866 8.70016 42.1516 9.02084 41.831C9.34153 41.5103 9.77649 41.3301 10.23 41.3301H84.81C85.0349 41.3288 85.2579 41.3721 85.466 41.4575C85.674 41.543 85.8631 41.6689 86.0221 41.828C86.1812 41.9871 86.3071 42.1761 86.3925 42.3842C86.478 42.5922 86.5213 42.8152 86.52 43.0401V109.23" stroke="#E24E4D" stroke-width="2" stroke-miterlimit="10"/>
<path d="M135.24 109.23V67.2302C135.239 66.6358 135.355 66.047 135.581 65.4974C135.808 64.9479 136.14 64.4484 136.56 64.0276C136.98 63.6068 137.479 63.273 138.028 63.0452C138.577 62.8174 139.166 62.7002 139.76 62.7002H216.36C216.954 62.7002 217.543 62.8174 218.092 63.0452C218.641 63.273 219.14 63.6068 219.56 64.0276C219.98 64.4484 220.312 64.9479 220.539 65.4974C220.765 66.047 220.881 66.6358 220.88 67.2302V151.23C220.88 152.429 220.404 153.579 219.556 154.426C218.708 155.274 217.559 155.75 216.36 155.75H184.88" stroke="#E24E4D" stroke-width="2" stroke-miterlimit="10"/>
<path d="M141.88 109.28V71.9903C141.883 71.5376 142.064 71.1041 142.384 70.784C142.704 70.4639 143.137 70.2829 143.59 70.2803H212.17C212.623 70.2829 213.056 70.4639 213.376 70.784C213.696 71.1041 213.877 71.5376 213.88 71.9903V146.57C213.88 147.024 213.7 147.459 213.379 147.779C213.058 148.1 212.624 148.28 212.17 148.28H184.88" stroke="#E24E4D" stroke-width="2" stroke-miterlimit="10"/>
<path d="M12.73 33.2598L43.3 2.68976C44.3834 1.61012 45.8505 1.00391 47.38 1.00391C48.9095 1.00391 50.3766 1.61012 51.46 2.68976L82.03 33.2598" stroke="#E24E4D" stroke-width="2" stroke-miterlimit="10"/>
<path d="M148.51 63.2498L172.51 39.2498C173.558 38.2031 174.979 37.6152 176.46 37.6152C177.941 37.6152 179.362 38.2031 180.41 39.2498L204.41 63.2498" stroke="#E24E4D" stroke-width="2" stroke-miterlimit="10"/>
<path d="M69.04 109.38L110.04 68.3802C110.598 67.8179 111.261 67.3715 111.993 67.0669C112.724 66.7623 113.508 66.6055 114.3 66.6055C115.092 66.6055 115.876 66.7623 116.607 67.0669C117.339 67.3715 118.002 67.8179 118.56 68.3802L159.56 109.38" stroke="#E24E4D" stroke-width="2" stroke-miterlimit="10"/>
<path d="M152.325 126C151.974 126 151.637 126.14 151.388 126.388C151.14 126.637 151 126.974 151 127.325V133.401C151 133.752 151.14 134.089 151.388 134.338L160.663 143.612C160.911 143.86 161.248 144 161.599 144C161.951 144 162.288 143.86 162.536 143.612L168.612 137.536C168.86 137.288 169 136.951 169 136.599C169 136.248 168.86 135.911 168.612 135.663L159.338 126.388C159.089 126.14 158.752 126 158.401 126H152.325ZM157.625 130.637C157.625 131.164 157.415 131.67 157.042 132.042C156.67 132.415 156.164 132.625 155.637 132.625C155.11 132.625 154.605 132.415 154.232 132.042C153.859 131.67 153.65 131.164 153.65 130.637C153.65 130.11 153.859 129.605 154.232 129.232C154.605 128.859 155.11 128.65 155.637 128.65C156.164 128.65 156.67 128.859 157.042 129.232C157.415 129.605 157.625 130.11 157.625 130.637Z" fill="#E24E4D"/>
<path d="M191.325 79C190.974 79 190.637 79.1396 190.388 79.3881C190.14 79.6365 190 79.9735 190 80.3249V86.401C190 86.7523 190.14 87.0893 190.388 87.3377L199.663 96.6121C199.911 96.8605 200.248 97 200.599 97C200.951 97 201.288 96.8605 201.536 96.6121L207.612 90.536C207.86 90.2876 208 89.9506 208 89.5993C208 89.248 207.86 88.9111 207.612 88.6626L198.338 79.3882C198.089 79.1397 197.752 79.0001 197.401 79H191.325ZM196.625 83.6372C196.625 84.1643 196.415 84.6698 196.042 85.0425C195.67 85.4152 195.164 85.6246 194.637 85.6246C194.11 85.6246 193.605 85.4152 193.232 85.0425C192.859 84.6698 192.65 84.1643 192.65 83.6372C192.65 83.1101 192.859 82.6046 193.232 82.2319C193.605 81.8592 194.11 81.6498 194.637 81.6498C195.164 81.6498 195.67 81.8592 196.042 82.2319C196.415 82.6046 196.625 83.1101 196.625 83.6372Z" fill="#E24E4D"/>
<path d="M61.3249 50C60.9735 50 60.6365 50.1396 60.3881 50.3881C60.1396 50.6365 60 50.9735 60 51.3249V57.401C60.0001 57.7523 60.1397 58.0893 60.3882 58.3377L69.6626 67.6121C69.9111 67.8605 70.248 68 70.5993 68C70.9506 68 71.2876 67.8605 71.536 67.6121L77.6121 61.536C77.8605 61.2876 78 60.9506 78 60.5993C78 60.248 77.8605 59.9111 77.6121 59.6626L68.3377 50.3882C68.0893 50.1397 67.7523 50.0001 67.401 50H61.3249ZM66.6246 54.6372C66.6246 55.1643 66.4152 55.6698 66.0425 56.0425C65.6698 56.4152 65.1643 56.6246 64.6372 56.6246C64.1101 56.6246 63.6046 56.4152 63.2319 56.0425C62.8592 55.6698 62.6498 55.1643 62.6498 54.6372C62.6498 54.1101 62.8592 53.6046 63.2319 53.2319C63.6046 52.8592 64.1101 52.6498 64.6372 52.6498C65.1643 52.6498 65.6698 52.8592 66.0425 53.2319C66.4152 53.6046 66.6246 54.1101 66.6246 54.6372Z" fill="#E24E4D"/>
</g>
<defs>
<clipPath id="clip0_3679_4325">
<rect width="221.88" height="203.29" fill="white"/>
</clipPath>
</defs>
</svg>
